<svg opacity="0.2" viewBox="0 0 512 512" xmlns="http://www.w3.org/2000/svg"><g fill-rule="nonzero" fill="none"><path d="M387.2 365.2a332.4 332.4 0 01-129.2 87c-114 42-188.1-.9-207.6-14.5a22.3 22.3 0 01-9.5-15 28 28 0 0122.8-30.2C131 380 378 318.9 362.1 110.6l.5-.1 28.6-4.8 18-3 3.6 3.4.8.9c87.7 100.2 27.1 200.3-26.4 258.3z" fill="#F6C358"/><path d="M391.2 105.6c45.5 86.6-6.5 169.3-53.1 219.7a332.4 332.4 0 01-129.2 87C134.5 439.7 77 431 40.8 417.9a28 28 0 0123-25.3C131 379.9 377.8 318.8 362 110.4h.5l28.6-4.8z" fill="#FCD462"/><path d="M409.2 102.5l-47 8c-.7-10.8-3.3-34-18.5-60.6a7.7 7.7 0 015.5-11.5c5-.7 10.7-1.9 15.3-3.8 4.3-1.8 9.2.5 10.4 5a139.6 139.6 0 0034.3 63z" fill="#C46744"/></g></svg>