<?xml version="1.0" standalone="no"?>
<!DOCTYPE svg PUBLIC "-//W3C//DTD SVG 1.1//EN" "http://www.w3.org/Graphics/SVG/1.1/DTD/svg11.dtd" >
<svg xmlns="http://www.w3.org/2000/svg" xmlns:xlink="http://www.w3.org/1999/xlink" version="1.1">
<metadata>
Created by FontForge 20170731 at Mon Mar 13 17:04:54 2017
 By Aleksey,,,
Copyright 2017 BlackFoundry
</metadata>
<defs>
<font id="InriaSans-BoldItalic" horiz-adv-x="588" >
  <font-face 
    font-family="Inria Sans"
    font-weight="700"
    font-style="italic"
    font-stretch="normal"
    units-per-em="1000"
    panose-1="0 0 0 0 0 0 0 0 0 0"
    ascent="800"
    descent="-200"
    x-height="507"
    cap-height="680"
    bbox="-268 -256 1406 978"
    underline-thickness="65"
    underline-position="-181"
    slope="-10"
    unicode-range="U+000D-FB04"
  />
<missing-glyph horiz-adv-x="636" 
d="M497 0h-448l120 680h448zM269 565l-80 -450h208l80 450h-208z" />
    <glyph glyph-name="ff" unicode="ff" horiz-adv-x="680" 
d="M476 0h-115l72 407h-192l-72 -407h-115l72 407h-82l17 100h83l9 53q17 93 63 136.5t127 43.5q26 0 52.5 -5.5t54.5 -17.5l-42 -98q-18 6 -34 9.5t-28 3.5q-35 0 -53 -17t-25 -55l-9 -53h192l9 53q17 97 69 143.5t141 46.5q33 0 65 -6.5t62 -19.5l-42 -98q-22 8 -43 12
t-39 4q-44 0 -67 -19.5t-31 -62.5l-9 -53h157l-17 -100h-158z" />
    <glyph glyph-name="fi" unicode="fi" horiz-adv-x="600" 
d="M380 642q-52 0 -79 -22t-35 -70l-8 -43h307l-89 -507h-115l72 407h-192l-72 -407h-115l72 407h-82l17 100h82l8 43q18 103 75 151.5t158 48.5q47 0 92 -10.5t86 -31.5l-46 -96q-37 15 -70.5 22.5t-65.5 7.5z" />
    <glyph glyph-name="fl" unicode="fl" horiz-adv-x="616" 
d="M545 101h12l-19 -106h-19q-73 0 -104 39.5t-18 113.5l85 479q-26 8 -49.5 11.5t-49.5 3.5q-54 0 -81.5 -22t-35.5 -70l-8 -43h138l-17 -100h-138l-72 -407h-115l72 407h-82l17 100h82l8 43q18 102 76 151t160 49q56 0 111.5 -14t110.5 -41l-98 -552q-4 -19 5 -30.5
t29 -11.5z" />
    <glyph glyph-name="ffi" unicode="ffi" horiz-adv-x="907" 
d="M476 0h-115l72 407h-192l-72 -407h-115l72 407h-82l17 100h83l9 53q17 93 63 136.5t127 43.5q26 0 52.5 -5.5t54.5 -17.5l-42 -98q-18 6 -34 9.5t-28 3.5q-35 0 -53 -17t-25 -55l-9 -53h191l8 43q18 103 75 151.5t158 48.5q47 0 92 -10.5t86 -31.5l-46 -96
q-37 15 -70.5 22.5t-65.5 7.5q-52 0 -79 -22t-35 -70l-8 -43h307l-89 -507h-115l71 407h-191z" />
    <glyph glyph-name="ffl" unicode="ffl" horiz-adv-x="923" 
d="M346 632q-35 0 -53 -17t-25 -55l-9 -53h191l8 43q18 102 76 151t160 49q56 0 111.5 -14t110.5 -41l-98 -552q-4 -19 5 -30.5t29 -11.5h12l-19 -106h-19q-73 0 -104 39.5t-18 113.5l85 479q-26 8 -49.5 11.5t-49.5 3.5q-54 0 -81.5 -22t-35.5 -70l-8 -43h138l-17 -100
h-138l-72 -407h-115l72 407h-192l-72 -407h-115l72 407h-82l17 100h83l9 53q17 93 63 136.5t127 43.5q26 0 52.5 -5.5t54.5 -17.5l-42 -98q-18 6 -34 9.5t-28 3.5z" />
    <glyph glyph-name="ft" unicode="ft" horiz-adv-x="720" 
d="M542 -10q-83 0 -119.5 47.5t-21.5 131.5l42 238h-202l-72 -407h-115l72 407h-82l17 100h82l8 43q18 102 76 151t160 49q56 0 111.5 -14t110.5 -41l-33 -188h157l-17 -100h-158l-42 -238q-6 -37 6 -54t46 -17q19 0 39.5 3.5t39.5 10.5l17 -101q-24 -10 -57 -15.5t-65 -5.5
zM383 642q-54 0 -81.5 -22t-35.5 -70l-8 -43h203l21 120q-26 8 -49.5 11.5t-49.5 3.5z" />
    <glyph glyph-name="fft" unicode="fft" horiz-adv-x="1027" 
d="M346 632q-35 0 -53 -17t-25 -55l-9 -53h191l8 43q18 102 76 151t160 49q56 0 111.5 -14t110.5 -41l-33 -188h157l-17 -100h-158l-42 -238q-6 -37 6 -54t46 -17q19 0 39.5 3.5t39.5 10.5l17 -101q-24 -10 -57 -15.5t-65 -5.5q-83 0 -119.5 47.5t-21.5 131.5l42 238h-202
l-72 -407h-115l72 407h-192l-72 -407h-115l72 407h-82l17 100h83l9 53q17 93 63 136.5t127 43.5q26 0 52.5 -5.5t54.5 -17.5l-42 -98q-18 6 -34 9.5t-28 3.5zM690 642q-54 0 -81.5 -22t-35.5 -70l-8 -43h203l21 120q-26 8 -49.5 11.5t-49.5 3.5z" />
    <glyph glyph-name="fb" unicode="fb" horiz-adv-x="902" 
d="M850 271l-7 -44q-19 -119 -79 -178t-162 -59q-51 0 -104 16t-116 52l100 569q-26 8 -49.5 11.5t-49.5 3.5q-54 0 -81.5 -22t-35.5 -70l-8 -43h138l-17 -100h-138l-72 -407h-115l72 407h-82l17 100h82l8 43q18 102 76 151t160 49q56 0 111.5 -14t110.5 -41l-46 -264
q43 44 82.5 65t78.5 21q74 0 109 -68.5t17 -177.5zM682 410q-29 0 -63.5 -27t-78.5 -82l-32 -186q22 -11 42.5 -16.5t41.5 -5.5q55 0 88.5 34t44.5 100l7 44q11 69 -1.5 104t-48.5 35z" />
    <glyph glyph-name="ffb" unicode="ffb" horiz-adv-x="1209" 
d="M346 632q-35 0 -53 -17t-25 -55l-9 -53h191l8 43q18 102 76 151t160 49q56 0 111.5 -14t110.5 -41l-46 -264q43 44 82.5 65t78.5 21q74 0 109 -68.5t17 -177.5l-7 -44q-19 -119 -79 -178t-162 -59q-51 0 -104 16t-116 52l100 569q-26 8 -49.5 11.5t-49.5 3.5
q-54 0 -81.5 -22t-35.5 -70l-8 -43h138l-17 -100h-138l-72 -407h-115l72 407h-192l-72 -407h-115l72 407h-82l17 100h83l9 53q17 93 63 136.5t127 43.5q26 0 52.5 -5.5t54.5 -17.5l-42 -98q-18 6 -34 9.5t-28 3.5zM989 410q-29 0 -63.5 -27t-78.5 -82l-32 -186
q22 -11 42.5 -16.5t41.5 -5.5q55 0 88.5 34t44.5 100l7 44q11 69 -1.5 104t-48.5 35z" />
    <glyph glyph-name="fff" unicode="fff" horiz-adv-x="987" 
d="M476 0h-115l72 407h-192l-72 -407h-115l72 407h-82l17 100h83l9 53q17 93 63 136.5t127 43.5q26 0 52.5 -5.5t54.5 -17.5l-42 -98q-18 6 -34 9.5t-28 3.5q-35 0 -53 -17t-25 -55l-9 -53h192l9 53q17 93 63 136.5t127 43.5q26 0 52.5 -5.5t54.5 -17.5l-42 -98
q-18 6 -34 9.5t-28 3.5q-35 0 -53 -17t-25 -55l-9 -53h192l9 53q17 97 69 143.5t141 46.5q33 0 65 -6.5t62 -19.5l-42 -98q-22 8 -43 12t-39 4q-44 0 -67 -19.5t-31 -62.5l-9 -53h157l-17 -100h-158l-72 -407h-115l72 407h-192z" />
    <glyph glyph-name="fh" unicode="fh" horiz-adv-x="922" 
d="M396 507l-17 -100h-138l-72 -407h-115l72 407h-82l17 100h82l8 43q18 102 76 151t160 49q56 0 111.5 -14t110.5 -41l-47 -267q47 45 89.5 67t86.5 22q72 0 105.5 -52t18.5 -137l-58 -328h-115l57 326q8 41 -4 62.5t-43 21.5t-69.5 -23.5t-87.5 -72.5l-55 -314h-115
l110 627q-26 8 -49.5 11.5t-49.5 3.5q-54 0 -81.5 -22t-35.5 -70l-8 -43h138z" />
    <glyph glyph-name="ffh" unicode="ffh" horiz-adv-x="1229" 
d="M476 0h-115l72 407h-192l-72 -407h-115l72 407h-82l17 100h83l9 53q17 93 63 136.5t127 43.5q26 0 52.5 -5.5t54.5 -17.5l-42 -98q-18 6 -34 9.5t-28 3.5q-35 0 -53 -17t-25 -55l-9 -53h191l8 43q18 102 76 151t160 49q56 0 111.5 -14t110.5 -41l-47 -267q47 45 89.5 67
t86.5 22q72 0 105.5 -52t18.5 -137l-58 -328h-115l57 326q8 41 -4 62.5t-43 21.5t-69.5 -23.5t-87.5 -72.5l-55 -314h-115l110 627q-26 8 -49.5 11.5t-49.5 3.5q-54 0 -81.5 -22t-35.5 -70l-8 -43h138l-17 -100h-138z" />
    <glyph glyph-name="fj" unicode="fj" horiz-adv-x="600" 
d="M380 642q-52 0 -79 -22t-35 -70l-8 -43h307l-90 -511q-22 -124 -81 -171.5t-176 -47.5l19 108q54 0 83.5 26.5t39.5 84.5l72 411h-191l-72 -407h-115l72 407h-82l17 100h82l8 43q18 103 75 151.5t158 48.5q47 0 92 -10.5t86 -31.5l-46 -96q-37 15 -70.5 22.5t-65.5 7.5z
" />
    <glyph glyph-name="ffj" unicode="ffj" horiz-adv-x="907" 
d="M687 642q-52 0 -79 -22t-35 -70l-8 -43h307l-90 -511q-22 -124 -81 -171.5t-176 -47.5l19 108q54 0 83.5 26.5t39.5 84.5l72 411h-191l-72 -407h-115l72 407h-192l-72 -407h-115l72 407h-82l17 100h83l9 53q17 93 63 136.5t127 43.5q26 0 52.5 -5.5t54.5 -17.5l-42 -98
q-18 6 -34 9.5t-28 3.5q-35 0 -53 -17t-25 -55l-9 -53h191l8 43q18 103 75 151.5t158 48.5q47 0 92 -10.5t86 -31.5l-46 -96q-37 15 -70.5 22.5t-65.5 7.5z" />
    <glyph glyph-name="fk" unicode="fk" horiz-adv-x="869" 
d="M396 507l-17 -100h-138l-72 -407h-115l72 407h-82l17 100h82l8 43q18 102 76 151t160 49q56 0 111.5 -14t110.5 -41l-73 -410q71 61 119.5 112.5t89.5 109.5h137q-38 -53 -85 -106t-113 -118l129 -283h-134l-91 214q-16 -14 -34 -29t-41 -32l-27 -153h-115l111 627
q-26 8 -49.5 11.5t-49.5 3.5q-54 0 -81.5 -22t-35.5 -70l-8 -43h138z" />
    <glyph glyph-name="ffk" unicode="ffk" horiz-adv-x="1176" 
d="M476 0h-115l72 407h-192l-72 -407h-115l72 407h-82l17 100h83l9 53q17 93 63 136.5t127 43.5q26 0 52.5 -5.5t54.5 -17.5l-42 -98q-18 6 -34 9.5t-28 3.5q-35 0 -53 -17t-25 -55l-9 -53h191l8 43q18 102 76 151t160 49q56 0 111.5 -14t110.5 -41l-73 -410
q71 61 119.5 112.5t89.5 109.5h137q-38 -53 -85 -106t-113 -118l129 -283h-134l-91 214q-16 -14 -34 -29t-41 -32l-27 -153h-115l111 627q-26 8 -49.5 11.5t-49.5 3.5q-54 0 -81.5 -22t-35.5 -70l-8 -43h138l-17 -100h-138z" />
    <glyph glyph-name=".notdef" horiz-adv-x="636" 
d="M497 0h-448l120 680h448zM269 565l-80 -450h208l80 450h-208z" />
    <glyph glyph-name=".null" horiz-adv-x="0" 
 />
    <glyph glyph-name=".null" horiz-adv-x="0" 
 />
    <glyph glyph-name="nonmarkingreturn" horiz-adv-x="333" 
 />
    <glyph glyph-name="CR" unicode="&#xd;" horiz-adv-x="0" 
 />
    <glyph glyph-name="space" unicode=" " horiz-adv-x="200" 
 />
    <glyph glyph-name="exclam" unicode="!" horiz-adv-x="281" 
d="M235 460l-59 -261h-90l34 261l39 220h115zM177 119l-21 -119h-121l21 119h121z" />
    <glyph glyph-name="quotedbl" unicode="&#x22;" horiz-adv-x="386" 
d="M217 584l-55 -196h-67l15 196l17 96h107zM392 584l-55 -196h-67l15 196l17 96h107z" />
    <glyph glyph-name="numbersign" unicode="#" horiz-adv-x="654" 
d="M353 0h-102l87 185h-139l-87 -185h-102l87 185h-94l15 87h120l65 136h-91l15 87h117l87 185h102l-87 -185h139l87 185h102l-87 -185h94l-15 -87h-120l-65 -136h91l-15 -87h-117zM305 408l-65 -136h139l65 136h-139z" />
    <glyph glyph-name="dollar" unicode="$" horiz-adv-x="518" 
d="M467 204q0 -88 -52 -143.5t-149 -67.5l-24 -138h-110l24 138q-37 5 -75 16.5t-79 31.5l42 103q52 -24 89 -33.5t78 -9.5q63 0 96.5 24t33.5 69q0 27 -15.5 46t-51.5 35l-73 33q-61 27 -89.5 69t-28.5 104q0 88 51 142.5t145 64.5l24 137h110l-25 -141q26 -5 53.5 -14
t61.5 -24l-42 -103q-50 21 -79.5 28.5t-59.5 7.5q-56 0 -84.5 -22t-28.5 -65q0 -26 14.5 -43.5t51.5 -34.5l73 -33q61 -28 90 -71t29 -106z" />
    <glyph glyph-name="percent" unicode="%" horiz-adv-x="734" 
d="M369 538l-5 -34q-9 -61 -47.5 -95t-100.5 -34q-65 0 -99.5 41t-25.5 106l5 34q9 61 47.5 95t100.5 34q66 0 100 -40.5t25 -106.5zM119 0l445 680h94l-445 -680h-94zM219 449q26 0 43 14.5t21 40.5l6 37q5 33 -7.5 51.5t-40.5 18.5q-26 0 -43 -14.5t-21 -40.5l-6 -37
q-5 -33 7.5 -51.5t40.5 -18.5zM687 158l-5 -34q-9 -61 -47.5 -95t-100.5 -34q-65 0 -99.5 41t-25.5 106l5 34q9 61 47.5 95t100.5 34q66 0 100 -40.5t25 -106.5zM537 69q26 0 43 14.5t21 40.5l6 37q5 33 -7.5 51.5t-40.5 18.5q-26 0 -43 -14.5t-21 -40.5l-6 -37
q-5 -33 7.5 -51.5t40.5 -18.5z" />
    <glyph glyph-name="ampersand" unicode="&#x26;" horiz-adv-x="555" 
d="M462 186q0 -89 -68.5 -142.5t-179.5 -53.5q-99 0 -154.5 45.5t-55.5 127.5q0 72 41.5 121.5t125.5 77.5q-41 40 -62 82.5t-21 85.5q0 74 51 117t140 43q101 0 151 -58.5t23 -138.5l-110 -15q14 53 -3 80.5t-63 27.5q-36 0 -55 -16.5t-19 -49.5q0 -30 17 -63t51 -70
l116 25q50 11 86 21t69 21l33 -102q-33 -10 -66 -18t-70 -15l-23 -4q24 -32 35 -63.5t11 -65.5zM119 171q0 -36 25.5 -55.5t71.5 -19.5q58 0 94.5 28.5t36.5 76.5q0 21 -7.5 45t-22.5 49l-48 -9q-75 -15 -112.5 -44t-37.5 -71z" />
    <glyph glyph-name="quotesingle" unicode="'" horiz-adv-x="211" 
d="M217 584l-55 -196h-67l15 196l17 96h107z" />
    <glyph glyph-name="parenleft" unicode="(" horiz-adv-x="335" 
d="M166 206v-22q0 -66 27 -137t77 -135l-89 -65q-61 74 -96.5 166t-35.5 177v31q0 146 71.5 276t219.5 253l66 -85q-129 -114 -184.5 -221.5t-55.5 -237.5z" />
    <glyph glyph-name="parenright" unicode=")" horiz-adv-x="335" 
d="M184 391v22q0 66 -27 137t-77 135l89 65q61 -74 96.5 -166t35.5 -177v-31q0 -146 -71.5 -276t-219.5 -253l-66 85q129 114 184.5 221.5t55.5 237.5z" />
    <glyph glyph-name="asterisk" unicode="*" horiz-adv-x="413" 
d="M353 387l21 -45l-85 -42l-22 46l-26 102l-60 -88l-35 -35l-66 69l35 34l88 56l-100 30l-44 24l45 83l43 -23l82 -67l-4 105l9 50l93 -17l-8 -49l-39 -97l99 35l50 7l13 -94l-49 -7l-105 6z" />
    <glyph glyph-name="plus" unicode="+" 
d="M519 355l-18 -100h-156l-28 -160h-102l28 160h-156l18 100h156l28 160h102l-28 -160h156z" />
    <glyph glyph-name="comma" unicode="," horiz-adv-x="211" 
d="M25 119h112l-3 -19q-18 -98 -52 -171.5t-97 -151.5l-65 39q42 72 63.5 132t41.5 171z" />
    <glyph glyph-name="hyphen" unicode="-" horiz-adv-x="404" 
d="M356 265h-304l17 100h304z" />
    <glyph glyph-name="period" unicode="." horiz-adv-x="211" 
d="M142 119l-21 -119h-121l21 119h121z" />
    <glyph glyph-name="slash" unicode="/" horiz-adv-x="394" 
d="M-109 -143l476 883h121l-476 -883h-121z" />
    <glyph glyph-name="zero" unicode="0" horiz-adv-x="610" 
d="M381 690q115 0 172.5 -79.5t34.5 -208.5l-22 -123q-26 -148 -93 -218.5t-179 -70.5q-117 0 -174.5 79.5t-33.5 209.5l22 123q26 146 93.5 217t179.5 71zM445 279l22 123q15 86 -9 131.5t-84 45.5q-58 0 -93.5 -42.5t-51.5 -134.5l-22 -123q-16 -87 7.5 -132.5t84.5 -45.5
q60 0 94.5 42t51.5 136z" />
    <glyph glyph-name="one" unicode="1" horiz-adv-x="377" 
d="M106 489l-38 94l190 97h100l-120 -680h-118l96 544z" />
    <glyph glyph-name="two" unicode="2" horiz-adv-x="514" 
d="M143 113h294l-20 -113h-412l17 95q18 96 57 150t124 95l74 36q62 30 81.5 48t24.5 45l4 22q7 43 -17 65.5t-77 22.5q-32 0 -67.5 -8.5t-88.5 -29.5l-28 103q58 24 104.5 35t92.5 11q105 0 159.5 -56.5t39.5 -142.5l-4 -23q-11 -64 -46 -104t-143 -92l-74 -36
q-41 -19 -62.5 -46.5t-32.5 -76.5z" />
    <glyph glyph-name="three" unicode="3" horiz-adv-x="504" 
d="M437 193l-2 -14q-14 -94 -75 -141.5t-168 -47.5q-50 0 -97.5 11.5t-98.5 36.5l43 103q49 -22 84.5 -31t71.5 -9q56 0 86.5 20.5t36.5 61.5l2 14q6 45 -14.5 68.5t-65.5 23.5h-106l19 108h106q44 0 71 20t33 57l3 19q7 44 -14 65t-71 21q-33 0 -70 -8.5t-92 -29.5l-30 103
q56 23 105.5 34.5t96.5 11.5q105 0 156.5 -52t37.5 -140l-3 -19q-7 -47 -33 -83.5t-68 -59.5q34 -23 48 -59.5t8 -83.5z" />
    <glyph glyph-name="four" unicode="4" horiz-adv-x="527" 
d="M506 261l-19 -107h-71l-27 -154h-116l27 154h-292l17 97q121 149 192 247.5t116 181.5h141q-43 -79 -110 -172.5t-194 -246.5h149l18 103h116l-18 -103h71z" />
    <glyph glyph-name="five" unicode="5" horiz-adv-x="510" 
d="M130 294l-54 57l78 329h351l-20 -113h-246l-34 -147q15 3 30 4.5t31 1.5q103 0 155 -59t33 -153l-6 -30q-20 -98 -83 -146t-170 -48q-51 0 -98.5 11.5t-98.5 36.5l45 103q54 -23 88.5 -31.5t70.5 -8.5q53 0 85 21t40 62l6 30q10 50 -14 77.5t-78 27.5q-22 0 -49 -6
t-62 -19z" />
    <glyph glyph-name="six" unicode="6" horiz-adv-x="568" 
d="M532 219l-4 -22q-18 -100 -79 -153.5t-157 -53.5q-115 0 -171 83t-33 218l22 131q23 138 91.5 203t191.5 65q47 0 92 -11t93 -35l-49 -103q-38 19 -71 28.5t-64 9.5q-73 0 -114 -38.5t-55 -118.5l-8 -48q39 32 78 47.5t78 15.5q85 0 130.5 -63t28.5 -155zM337 329
q-32 0 -70.5 -14.5t-67.5 -39.5q-12 -85 13 -129.5t84 -44.5q45 0 76 26t39 70l4 20q10 51 -10.5 81.5t-67.5 30.5z" />
    <glyph glyph-name="seven" unicode="7" horiz-adv-x="474" 
d="M526 680l-19 -103q-91 -140 -162 -283t-124 -294h-132q51 146 121 286.5t160 280.5h-296l20 113h432z" />
    <glyph glyph-name="eight" unicode="8" horiz-adv-x="567" 
d="M422 351q41 -28 61 -64t20 -83q0 -98 -66.5 -156t-185.5 -58q-102 0 -159 42.5t-57 115.5q0 57 35.5 108t102.5 86q-35 27 -52 61.5t-17 79.5q0 92 64 149.5t172 57.5q97 0 151 -42t54 -117q0 -53 -31.5 -100t-91.5 -80zM224 494q0 -26 16 -44.5t56 -36.5l50 -22
q39 28 58.5 57.5t19.5 61.5q0 36 -22.5 55t-65.5 19q-51 0 -81.5 -24.5t-30.5 -65.5zM157 177q0 -39 26 -60t74 -21q59 0 91.5 24.5t32.5 68.5q0 27 -18.5 47.5t-60.5 39.5l-52 23q-49 -31 -71 -59.5t-22 -62.5z" />
    <glyph glyph-name="nine" unicode="9" horiz-adv-x="570" 
d="M528 389l-22 -131q-23 -138 -91.5 -203t-191.5 -65q-47 0 -92 11t-93 35l49 103q38 -19 71 -28.5t64 -9.5q73 0 114 38.5t55 118.5l8 48q-39 -32 -78 -47.5t-78 -15.5q-83 0 -127.5 61.5t-31.5 156.5l3 22q13 97 75.5 152t161.5 55q115 0 171 -83t33 -218zM204 483
l-3 -20q-8 -53 12 -82.5t66 -29.5q32 0 70.5 14.5t67.5 39.5q12 85 -13 129.5t-84 44.5q-45 0 -77 -26.5t-39 -69.5z" />
    <glyph glyph-name="colon" unicode=":" horiz-adv-x="211" 
d="M210 507l-21 -119h-121l21 119h121zM142 119l-21 -119h-121l21 119h121z" />
    <glyph glyph-name="semicolon" unicode=";" horiz-adv-x="211" 
d="M210 507l-21 -119h-121l21 119h121zM25 119h112l-3 -19q-18 -98 -52 -171.5t-97 -151.5l-65 39q42 72 63.5 132t41.5 171z" />
    <glyph glyph-name="less" unicode="&#x3c;" 
d="M250 307l243 -100l-19 -104l-384 168l14 81l443 165l-20 -112z" />
    <glyph glyph-name="equal" unicode="=" 
d="M520 364h-414l18 100h414zM485 165h-414l18 100h414z" />
    <glyph glyph-name="greater" unicode="&#x3e;" 
d="M517 349l-14 -81l-443 -165l20 112l277 98l-243 100l19 104z" />
    <glyph glyph-name="question" unicode="?" horiz-adv-x="464" 
d="M271 583q-33 0 -72 -9t-91 -29l-29 99q55 23 105.5 34.5t100.5 11.5q108 0 158.5 -54t32.5 -144l-4 -20q-8 -39 -27.5 -68.5t-69.5 -73.5l-38 -33q-34 -30 -47.5 -47.5t-17.5 -41.5l-1 -9h-120l3 18q7 43 27.5 73.5t70.5 73.5l39 34q37 33 49.5 50t15.5 38l3 18
q8 39 -14.5 59t-73.5 20zM258 119l-21 -119h-121l21 119h121z" />
    <glyph glyph-name="at" unicode="@" horiz-adv-x="946" 
d="M699 -75l30 -92q-60 -27 -128 -41.5t-134 -14.5q-196 0 -311.5 117t-115.5 313q0 212 127 347.5t329 135.5q184 0 301 -112.5t117 -288.5q0 -127 -66 -210.5t-166 -83.5q-49 0 -80.5 20t-43.5 58q-41 -43 -79 -63t-80 -20q-68 0 -99.5 61t-15.5 160l7 44q17 107 70 159.5
t143 52.5q47 0 96.5 -16.5t100.5 -48.5l-42 -240q-7 -36 2.5 -55.5t33.5 -19.5q47 0 81.5 58.5t34.5 143.5q0 135 -87.5 220.5t-227.5 85.5q-158 0 -255.5 -108.5t-97.5 -279.5q0 -155 87 -245t237 -90q59 0 120.5 14t111.5 39zM407 255l-7 -44q-9 -58 1 -87t40 -29
q25 0 51.5 20t56.5 61l30 172q-21 10 -36 14t-29 4q-44 0 -71 -28.5t-36 -82.5z" />
    <glyph glyph-name="A" unicode="A" horiz-adv-x="601" 
d="M536 0h-120l-19 133h-233l-65 -133h-124l347 680h106zM348 513l-82 -172l-48 -98h164l-14 98z" />
    <glyph glyph-name="B" unicode="B" horiz-adv-x="586" 
d="M294 0h-245l120 680h197q98 0 147.5 -51t34.5 -137l-5 -30q-6 -38 -26 -67t-53 -47q38 -23 54 -60.5t8 -85.5l-5 -30q-15 -92 -69 -132t-158 -40zM357 570h-87l-30 -170h87q39 0 63 15.5t29 43.5l6 33q7 36 -11 57t-57 21zM332 290h-112l-32 -180h112q41 0 67 17t31 47
l6 33q7 39 -12 61t-60 22z" />
    <glyph glyph-name="C" unicode="C" horiz-adv-x="538" 
d="M228 402l-20 -122q-14 -84 13.5 -130.5t92.5 -46.5q31 0 66.5 6t77.5 19l25 -105q-48 -16 -94 -24.5t-87 -8.5q-119 0 -178.5 81t-38.5 209l20 122q24 146 96 217t195 71q44 0 86 -10t86 -32l-45 -106q-45 20 -74.5 27.5t-60.5 7.5q-64 0 -105 -45t-55 -130z" />
    <glyph glyph-name="D" unicode="D" horiz-adv-x="639" 
d="M290 0h-241l120 680h210q119 0 180.5 -78t40.5 -200l-22 -123q-24 -138 -97 -208.5t-191 -70.5zM371 565h-102l-80 -450h107q65 0 104.5 41t54.5 123l22 123q14 78 -13.5 120.5t-92.5 42.5z" />
    <glyph glyph-name="E" unicode="E" horiz-adv-x="536" 
d="M189 115h274l-20 -115h-394l120 680h384l-20 -115h-264l-29 -163h234l-20 -115h-234z" />
    <glyph glyph-name="F" unicode="F" horiz-adv-x="505" 
d="M463 376l-20 -115h-228l-46 -261h-120l120 680h378l-20 -115h-258l-34 -189h228z" />
    <glyph glyph-name="G" unicode="G" horiz-adv-x="603" 
d="M581 374l-58 -331q-51 -26 -105.5 -39.5t-103.5 -13.5q-124 0 -186.5 81t-41.5 209l20 122q24 145 100 216.5t206 71.5q48 0 94.5 -10.5t94.5 -31.5l-45 -105q-45 18 -80.5 26t-68.5 8q-72 0 -118 -45.5t-60 -129.5l-20 -122q-14 -85 16.5 -131t102.5 -46q22 0 46 4.5
t54 13.5l26 148h-111l19 105h219z" />
    <glyph glyph-name="H" unicode="H" horiz-adv-x="682" 
d="M543 0h-120l51 287h-254l-51 -287h-120l120 680h120l-49 -278h254l49 278h120z" />
    <glyph glyph-name="I" unicode="I" horiz-adv-x="308" 
d="M289 680l-120 -680h-120l120 680h120z" />
    <glyph glyph-name="J" unicode="J" horiz-adv-x="376" 
d="M-21 -10l21 115q93 0 128.5 29t49.5 110l77 436h120l-77 -436q-26 -149 -95.5 -201.5t-223.5 -52.5z" />
    <glyph glyph-name="K" unicode="K" horiz-adv-x="614" 
d="M553 0h-137l-119 303q-11 -10 -23.5 -22t-65.5 -59l-39 -222h-120l120 680h120l-55 -313q86 82 152.5 158.5t118.5 154.5h138q-57 -82 -119.5 -157t-131.5 -144z" />
    <glyph glyph-name="L" unicode="L" horiz-adv-x="507" 
d="M189 115h272l-20 -115h-392l120 680h120z" />
    <glyph glyph-name="M" unicode="M" horiz-adv-x="829" 
d="M169 680h126l108 -468l274 468h133l-120 -680h-115l46 260l56 232l-242 -412h-107l-91 418l-27 -238l-46 -260h-115z" />
    <glyph glyph-name="N" unicode="N" horiz-adv-x="683" 
d="M164 0h-115l120 680h110q66 -133 111 -240.5t87 -230.5l26 211l46 260h115l-120 -680h-110q-40 133 -86.5 254.5t-103.5 246.5l-34 -241z" />
    <glyph glyph-name="O" unicode="O" horiz-adv-x="640" 
d="M397 690q120 0 182 -81t39 -207l-22 -123q-26 -144 -98.5 -216.5t-189.5 -72.5q-121 0 -183 80.5t-39 208.5l22 123q25 142 98.5 215t190.5 73zM473 279l22 123q15 83 -12.5 129t-93.5 46q-63 0 -103 -44.5t-55 -130.5l-22 -123q-15 -85 12 -130.5t93 -45.5
q64 0 103.5 43.5t55.5 132.5z" />
    <glyph glyph-name="P" unicode="P" horiz-adv-x="575" 
d="M169 0h-120l120 680h211q104 0 154.5 -56.5t35.5 -153.5l-9 -56q-14 -90 -74 -137t-160 -47h-117zM373 565h-104l-39 -220h104q44 0 71.5 19.5t33.5 54.5l9 53q8 44 -12 68.5t-63 24.5z" />
    <glyph glyph-name="Q" unicode="Q" horiz-adv-x="640" 
d="M392 1q6 -44 31 -59t95 -15l-22 -125q-94 0 -145.5 41t-67.5 130l-3 18q-109 9 -163 88.5t-33 199.5l22 123q25 142 98.5 215t190.5 73q120 0 182 -81t39 -207l-22 -123q-21 -115 -71.5 -184.5t-130.5 -93.5zM471 279l22 123q15 83 -12.5 129t-93.5 46q-63 0 -103 -44.5
t-55 -130.5l-22 -123q-15 -85 12 -130.5t93 -45.5q64 0 103.5 43.5t55.5 132.5z" />
    <glyph glyph-name="R" unicode="R" horiz-adv-x="609" 
d="M169 0h-120l120 680h214q104 0 156 -57t35 -150l-8 -45q-10 -56 -41.5 -96.5t-81.5 -61.5q29 -67 51.5 -134.5t38.5 -135.5h-130q-14 63 -32.5 126t-42.5 124h-115zM377 570h-107l-37 -210h106q43 0 70.5 19.5t34.5 55.5l8 43q8 43 -11.5 67.5t-63.5 24.5z" />
    <glyph glyph-name="S" unicode="S" horiz-adv-x="518" 
d="M211 101q63 0 96.5 24t33.5 69q0 27 -15.5 46t-51.5 35l-73 33q-61 27 -89.5 69t-28.5 104q0 98 62.5 153.5t176.5 55.5q43 0 85.5 -10.5t95.5 -33.5l-42 -103q-50 21 -79.5 28.5t-59.5 7.5q-56 0 -84.5 -22t-28.5 -65q0 -26 14.5 -43.5t51.5 -34.5l73 -33q61 -28 90 -71
t29 -106q0 -100 -67 -157t-189 -57q-54 0 -104.5 12.5t-104.5 38.5l42 103q52 -24 89 -33.5t78 -9.5z" />
    <glyph glyph-name="T" unicode="T" horiz-adv-x="526" 
d="M258 565h-190l20 115h500l-20 -115h-190l-100 -565h-120z" />
    <glyph glyph-name="U" unicode="U" horiz-adv-x="646" 
d="M91 244l77 436h123l-77 -436q-12 -70 12.5 -105.5t84.5 -35.5q61 0 98 35.5t49 105.5l77 436h123l-77 -436q-23 -130 -90.5 -192t-183.5 -62q-119 0 -177.5 69.5t-38.5 184.5z" />
    <glyph glyph-name="V" unicode="V" horiz-adv-x="584" 
d="M515 680h130l-336 -680h-123l-97 680h124l43 -342l16 -177l81 178z" />
    <glyph glyph-name="W" unicode="W" horiz-adv-x="867" 
d="M228 680l4 -269l-6 -252l228 521h108l44 -516l85 247l100 269h125l-273 -680h-123l-42 506l-221 -506h-123l-33 680h127z" />
    <glyph glyph-name="X" unicode="X" horiz-adv-x="562" 
d="M502 0h-129l-97 243l-173 -243h-133l260 354l-129 326h129l91 -230l163 230h133l-250 -341z" />
    <glyph glyph-name="Y" unicode="Y" horiz-adv-x="544" 
d="M485 680h131l-279 -406l-49 -274h-120l48 271l-138 409h124l93 -289z" />
    <glyph glyph-name="Z" unicode="Z" horiz-adv-x="509" 
d="M163 115h285l-20 -115h-435l19 105l356 460h-265l20 115h415l-19 -105z" />
    <glyph glyph-name="bracketleft" unicode="[" horiz-adv-x="350" 
d="M156 -43h140l-17 -100h-255l155 883h255l-17 -100h-140z" />
    <glyph glyph-name="backslash" unicode="\" horiz-adv-x="394" 
d="M76 740h114l173 -883h-114z" />
    <glyph glyph-name="bracketright" unicode="]" horiz-adv-x="350" 
d="M86 740h255l-155 -883h-255l17 100h141l119 683h-139z" />
    <glyph glyph-name="asciicircum" unicode="^" 
d="M503 266h-106l-53 260l-145 -260h-110l239 414h81z" />
    <glyph glyph-name="underscore" unicode="_" horiz-adv-x="414" 
d="M335 -163h-404l13 73h404z" />
    <glyph glyph-name="grave" unicode="`" horiz-adv-x="500" 
d="M354 579h-96l-82 120l111 46z" />
    <glyph glyph-name="a" unicode="a" horiz-adv-x="558" 
d="M495 -5h-19q-49 0 -78 20.5t-38 60.5q-45 -43 -88 -64.5t-85 -21.5q-73 0 -107.5 68.5t-17.5 177.5l7 44q19 119 78 178t159 59q56 0 112 -16.5t104 -48.5l-54 -309q-3 -20 6 -31t28 -11h12zM187 280l-7 -44q-11 -68 1 -103.5t45 -35.5q30 0 64.5 24t71.5 71l35 202
q-21 10 -40.5 15t-40.5 5q-53 0 -86 -34t-43 -100z" />
    <glyph glyph-name="b" unicode="b" horiz-adv-x="560" 
d="M508 271l-7 -44q-19 -119 -79 -178t-162 -59q-51 0 -104 16t-116 52l120 682h115l-54 -309q43 44 82.5 65t78.5 21q74 0 109 -68.5t17 -177.5zM340 410q-29 0 -63.5 -27t-78.5 -82l-32 -186q22 -11 42.5 -16.5t41.5 -5.5q55 0 88.5 34t44.5 100l7 44q11 69 -1.5 104
t-48.5 35z" />
    <glyph glyph-name="c" unicode="c" horiz-adv-x="450" 
d="M307 411q-48 0 -79.5 -30.5t-41.5 -86.5l-11 -60q-13 -69 9.5 -103.5t80.5 -34.5q25 0 52 5.5t63 18.5l17 -99q-44 -16 -78.5 -23.5t-67.5 -7.5q-107 0 -157 68t-30 184l9 52q19 107 79.5 165t153.5 58q35 0 71.5 -8.5t77.5 -25.5l-38 -99q-31 13 -59 20t-51 7z" />
    <glyph glyph-name="d" unicode="d" horiz-adv-x="564" 
d="M452 0h-109l15 85q-45 -48 -86 -71.5t-83 -23.5q-74 0 -109 68.5t-17 177.5l7 44q19 119 79 178t162 59q28 0 55.5 -6t57.5 -18l43 247h115zM188 280l-7 -44q-11 -69 1.5 -104t48.5 -35q28 0 63 27t80 83l32 185q-22 11 -42.5 16.5t-42.5 5.5q-55 0 -88.5 -34t-44.5 -100
z" />
    <glyph glyph-name="e" unicode="e" horiz-adv-x="522" 
d="M423 122l16 -98q-46 -18 -87.5 -26t-86.5 -8q-114 0 -168 67.5t-34 184.5l9 52q18 103 81.5 163t155.5 60q86 0 137 -45t51 -126q0 -32 -10 -64.5t-29 -63.5h-289q-8 -63 19.5 -93.5t91.5 -30.5q29 0 66.5 7t76.5 21zM387 346q0 34 -21.5 52.5t-60.5 18.5
q-46 0 -76.5 -28t-43.5 -83h195q4 11 5.5 20.5t1.5 19.5z" />
    <glyph glyph-name="f" unicode="f" horiz-adv-x="373" 
d="M416 507l-17 -100h-158l-72 -407h-115l72 407h-82l17 100h83l9 53q17 97 69 143.5t141 46.5q33 0 65 -6.5t62 -19.5l-42 -98q-22 8 -43 12t-39 4q-44 0 -67 -19.5t-31 -62.5l-10 -53h158z" />
    <glyph glyph-name="g" unicode="g" horiz-adv-x="561" 
d="M521 452l-78 -452q-21 -122 -76 -172.5t-158 -50.5q-39 0 -82.5 7.5t-88.5 22.5l25 98q36 -12 72.5 -19t67.5 -7q56 0 84.5 26t40.5 95l12 69q-43 -40 -83 -59.5t-78 -19.5q-74 0 -108.5 68t-17.5 178l7 44q19 119 79 178t162 59q57 0 114 -17t106 -48zM178 280l-7 -44
q-11 -69 1.5 -104t48.5 -35q31 0 66.5 24.5t73.5 71.5l35 200q-23 11 -43 16t-42 5q-55 0 -89 -34t-44 -100z" />
    <glyph glyph-name="h" unicode="h" horiz-adv-x="584" 
d="M361 410q-31 0 -69.5 -23.5t-87.5 -72.5l-55 -314h-115l130 740h115l-55 -312q47 45 89.5 67t86.5 22q72 0 105.5 -52t18.5 -137l-58 -328h-115l57 326q8 41 -4 62.5t-43 21.5z" />
    <glyph glyph-name="i" unicode="i" horiz-adv-x="273" 
d="M279 722l-21 -119h-121l21 119h121zM238 507l-89 -507h-115l89 507h115z" />
    <glyph glyph-name="j" unicode="j" horiz-adv-x="273" 
d="M279 722l-21 -119h-121l21 119h121zM-109 -223l19 108q54 0 83.5 26.5t39.5 84.5l90 511h115l-90 -511q-22 -124 -81 -171.5t-176 -47.5z" />
    <glyph glyph-name="k" unicode="k" horiz-adv-x="532" 
d="M476 0h-134l-91 214q-16 -14 -34 -29t-41 -32l-27 -153h-115l130 740h115l-80 -455q68 59 117 111t92 111h137q-38 -53 -85 -106t-113 -118z" />
    <glyph glyph-name="l" unicode="l" horiz-adv-x="276" 
d="M66 148l104 592h115l-105 -597q-3 -20 6 -31t28 -11h12l-19 -106h-19q-73 0 -104 39.5t-18 113.5z" />
    <glyph glyph-name="m" unicode="m" horiz-adv-x="881" 
d="M356 410q-29 0 -65.5 -23t-85.5 -72l-56 -315h-115l89 507h109l-15 -86q48 49 91 72.5t87 23.5q49 0 80 -26t40 -74q50 51 95.5 75.5t91.5 24.5q70 0 102 -52t17 -137l-58 -328h-115l57 326q7 41 -3.5 62.5t-38.5 21.5q-29 0 -65.5 -23t-85.5 -72l-56 -315h-115l57 326
q7 41 -3.5 62.5t-38.5 21.5z" />
    <glyph glyph-name="n" unicode="n" horiz-adv-x="584" 
d="M361 410q-31 0 -69.5 -23.5t-87.5 -72.5l-55 -314h-115l89 507h109l-15 -86q48 49 92.5 72.5t90.5 23.5q72 0 105.5 -52t18.5 -137l-58 -328h-115l57 326q8 41 -4 62.5t-43 21.5z" />
    <glyph glyph-name="o" unicode="o" horiz-adv-x="545" 
d="M311 517q106 0 161 -70t38 -181l-8 -52q-16 -107 -79 -165.5t-162 -58.5q-106 0 -161 70.5t-37 181.5l8 52q17 107 79 165t161 58zM384 214l9 57q11 66 -12 104.5t-74 38.5q-47 0 -78 -31.5t-40 -88.5l-9 -57q-11 -66 12.5 -105t73.5 -39q46 0 77.5 32t40.5 89z" />
    <glyph glyph-name="p" unicode="p" horiz-adv-x="564" 
d="M264 -10q-29 0 -57 6t-56 18l-40 -227h-115l127 720h109l-15 -85q45 48 86 71.5t83 23.5q74 0 109 -68.5t17 -177.5l-7 -44q-19 -119 -79 -178t-162 -59zM344 410q-28 0 -63 -27t-80 -83l-32 -185q23 -11 44 -16.5t41 -5.5q55 0 88.5 34t44.5 100l7 44q11 69 -1.5 104
t-48.5 35z" />
    <glyph glyph-name="q" unicode="q" horiz-adv-x="561" 
d="M311 517q51 0 104 -16t116 -52l-117 -662h-115l51 289q-43 -44 -82.5 -65t-78.5 -21q-74 0 -109 68.5t-17 177.5l7 44q19 119 79 178t162 59zM188 280l-7 -44q-11 -69 1.5 -104t48.5 -35q29 0 63.5 26.5t77.5 81.5l33 187q-22 11 -42.5 16.5t-41.5 5.5q-55 0 -88.5 -34
t-44.5 -100z" />
    <glyph glyph-name="r" unicode="r" horiz-adv-x="387" 
d="M411 517l-20 -115q-55 0 -99 -21t-87 -64l-56 -317h-115l89 507h109l-15 -87q49 49 96.5 73t97.5 24z" />
    <glyph glyph-name="s" unicode="s" horiz-adv-x="461" 
d="M201 91q43 0 64.5 12.5t21.5 37.5q0 19 -13.5 32t-45.5 24l-55 19q-54 19 -81 54.5t-27 89.5q0 74 50 115.5t142 41.5q41 0 81 -8.5t84 -27.5l-37 -98q-36 17 -68.5 25t-62.5 8q-37 0 -55.5 -11.5t-18.5 -35.5q0 -18 12 -29.5t39 -21.5l55 -19q58 -20 86.5 -56t28.5 -90
q0 -77 -53.5 -120t-152.5 -43q-47 0 -91 9.5t-90 30.5l36 98q42 -19 78.5 -28t72.5 -9z" />
    <glyph glyph-name="t" unicode="t" horiz-adv-x="400" 
d="M327 112l17 -101q-24 -10 -57 -15.5t-65 -5.5q-83 0 -119.5 47.5t-21.5 131.5l42 238h-82l17 100h83l23 132h115l-23 -132h157l-17 -100h-158l-42 -238q-6 -38 6 -54.5t46 -16.5q19 0 39.5 3.5t39.5 10.5z" />
    <glyph glyph-name="u" unicode="u" horiz-adv-x="570" 
d="M457 0h-109l15 86q-48 -49 -90.5 -72.5t-85.5 -23.5q-69 0 -101 52t-16 137l58 328h115l-57 -326q-7 -41 3 -62.5t37 -21.5q28 0 64.5 23.5t85.5 72.5l55 314h115z" />
    <glyph glyph-name="v" unicode="v" horiz-adv-x="499" 
d="M410 507h116l-269 -507h-105l-91 507h110l43 -253l15 -112l54 112z" />
    <glyph glyph-name="w" unicode="w" horiz-adv-x="737" 
d="M637 507h117l-219 -507h-125l-16 381l-157 -381h-125l-41 507h112l14 -201l1 -191l157 392h116l20 -381l63 179z" />
    <glyph glyph-name="x" unicode="x" horiz-adv-x="484" 
d="M420 0h-117l-74 167l-129 -167h-126l210 262l-110 245h117l68 -153l118 153h126l-199 -248z" />
    <glyph glyph-name="y" unicode="y" horiz-adv-x="499" 
d="M257 0l-27 -50q-50 -93 -108.5 -133t-145.5 -40l20 115q59 5 86.5 21.5t52.5 61.5l16 30l-90 502h114l43 -253l15 -105l51 105l127 253h115z" />
    <glyph glyph-name="z" unicode="z" horiz-adv-x="432" 
d="M151 100h219l-18 -100h-362l16 90l265 317h-199l17 100h342l-15 -90z" />
    <glyph glyph-name="braceleft" unicode="{" horiz-adv-x="381" 
d="M238 -44h89l-17 -100h-81q-100 0 -138 57.5t-2 147.5l35 86q22 54 9 77.5t-61 23.5h-53l17 100h53q49 0 70.5 24t17.5 77l-5 86q-5 98 44 151.5t145 53.5h104l-17 -100h-89q-35 0 -53 -23t-16 -63l5 -86q4 -69 -22.5 -114t-80.5 -61q48 -15 59 -56.5t-16 -108.5l-36 -86
q-16 -40 -6 -63t45 -23z" />
    <glyph glyph-name="bar" unicode="|" horiz-adv-x="303" 
d="M11 -213l168 953h115l-168 -953h-115z" />
    <glyph glyph-name="braceright" unicode="}" horiz-adv-x="381" 
d="M219 147l5 -86q5 -98 -44 -151.5t-145 -53.5h-104l17 100h89q35 0 53 23t16 63l-5 86q-4 69 22.5 114t80.5 61q-48 15 -59 56.5t16 108.5l36 86q16 40 6 63t-45 23h-89l17 100h81q100 0 138 -57.5t2 -147.5l-35 -86q-22 -54 -9 -77.5t61 -23.5h53l-17 -100h-53
q-49 0 -70.5 -24t-17.5 -77z" />
    <glyph glyph-name="asciitilde" unicode="~" 
d="M384 210q-30 0 -56 14t-61 56q-19 23 -28.5 29.5t-17.5 6.5q-16 0 -30.5 -24t-29.5 -72l-87 20q26 89 62 132.5t87 43.5q30 0 55.5 -14t60.5 -56q20 -23 29 -29.5t17 -6.5q16 0 31.5 24t31.5 73l86 -20q-26 -90 -62 -133.5t-88 -43.5z" />
    <glyph glyph-name="uni00A0" unicode="&#xa0;" horiz-adv-x="200" 
 />
    <glyph glyph-name="exclamdown" unicode="&#xa1;" horiz-adv-x="281" 
d="M103 388l21 119h121l-21 -119h-121zM45 47l59 261h90l-34 -261l-39 -220h-115z" />
    <glyph glyph-name="cent" unicode="&#xa2;" horiz-adv-x="450" 
d="M376 120l17 -99q-34 -13 -62 -20t-53 -9l-20 -117h-110l22 126q-69 23 -97.5 86t-12.5 155l9 52q17 95 66 151.5t126 68.5l20 118h110l-21 -122q20 -4 40 -11t41 -16l-38 -99q-31 13 -59 20t-51 7q-48 0 -79.5 -30.5t-41.5 -86.5l-11 -60q-13 -69 9.5 -103.5t80.5 -34.5
q25 0 52 5.5t63 18.5z" />
    <glyph glyph-name="sterling" unicode="&#xa3;" horiz-adv-x="487" 
d="M178 115h258l-20 -115h-400l19 105q61 44 89.5 83t29.5 84h-98l18 100h60q-14 44 -18.5 68.5t-4.5 49.5q0 95 57 147.5t163 52.5q45 0 88.5 -10t93.5 -32l-45 -106q-41 18 -73.5 26.5t-61.5 8.5q-49 0 -74.5 -24t-25.5 -70q0 -15 3 -32.5t21 -78.5h156l-18 -100h-123
q-4 -39 -27 -78t-67 -79z" />
    <glyph glyph-name="currency" unicode="&#xa4;" horiz-adv-x="558" 
d="M272 103q-32 0 -60.5 8.5t-51.5 24.5l-129 -111l-49 62l127 111q-8 18 -12.5 39.5t-4.5 44.5q0 36 11 70t32 63l-78 98l64 56l78 -98q24 13 50.5 19.5t53.5 6.5q32 0 60.5 -8.5t50.5 -24.5l128 112l49 -63l-126 -110q9 -19 13.5 -40t4.5 -45q0 -37 -11 -71t-33 -63
l77 -97l-63 -55l-78 97q-23 -13 -49 -19.5t-54 -6.5zM388 314q0 43 -23.5 68t-64.5 25q-49 0 -81 -34.5t-32 -86.5q0 -43 23.5 -68t64.5 -25q49 0 81 34.5t32 86.5z" />
    <glyph glyph-name="yen" unicode="&#xa5;" horiz-adv-x="566" 
d="M506 236l-16 -87h-165l-26 -149h-120l26 149h-165l16 87h165l6 35l-14 41h-144l15 87h100l-95 281h124l93 -289l190 289h131l-193 -281h100l-15 -87h-145l-26 -38l-7 -38h165z" />
    <glyph glyph-name="brokenbar" unicode="&#xa6;" horiz-adv-x="281" 
d="M101 357l67 383h115l-67 -383h-115zM0 -213l68 383h115l-68 -383h-115z" />
    <glyph glyph-name="section" unicode="&#xa7;" horiz-adv-x="516" 
d="M357 100q22 -22 32.5 -52.5t10.5 -69.5q0 -94 -63.5 -147.5t-179.5 -53.5q-52 0 -100 12t-102 39l46 103q56 -25 89.5 -34t70.5 -9q55 0 84 21t29 59q0 24 -12.5 39.5t-40.5 28.5l-73 33q-61 28 -91 66.5t-30 89.5q0 49 30 90.5t83 67.5q-19 21 -28.5 48.5t-9.5 62.5
q0 91 61 143.5t172 52.5q43 0 85.5 -10.5t95.5 -33.5l-46 -103q-50 21 -79.5 28.5t-59.5 7.5q-50 0 -76.5 -19t-26.5 -55q0 -22 12.5 -36.5t43.5 -28.5l73 -33q60 -27 87 -64t27 -90q0 -47 -30 -87.5t-84 -65.5zM153 244q0 -22 13 -36t56 -33l53 -24q33 15 51.5 36.5
t18.5 45.5q0 22 -14 37.5t-48 30.5l-68 31q-29 -14 -45.5 -38.5t-16.5 -49.5z" />
    <glyph glyph-name="dieresis" unicode="&#xa8;" horiz-adv-x="500" 
d="M289 716l-19 -107h-109l19 107h109zM483 716l-19 -107h-109l19 107h109z" />
    <glyph glyph-name="copyright" unicode="&#xa9;" horiz-adv-x="834" 
d="M804 340q0 -163 -105.5 -270t-266.5 -107t-266.5 107t-105.5 270t105.5 270t266.5 107t266.5 -107t105.5 -270zM136 340q0 -134 83.5 -220.5t212.5 -86.5t212.5 86.5t83.5 220.5q0 133 -84 220t-212 87t-212 -87t-84 -220zM433 472q-43 0 -64 -27t-21 -84v-41
q0 -57 20.5 -84.5t64.5 -27.5q24 0 51 7t57 22l29 -79q-33 -17 -69.5 -26t-72.5 -9q-84 0 -128.5 51t-44.5 146v41q0 94 44.5 145t128.5 51q35 0 69 -8.5t64 -23.5l-29 -79q-28 13 -52.5 19.5t-46.5 6.5z" />
    <glyph glyph-name="ordfeminine" unicode="&#xaa;" horiz-adv-x="353" 
d="M363 340h-12q-31 0 -52 14.5t-29 40.5q-31 -30 -59 -45t-54 -15q-48 0 -71.5 46t-10.5 117l5 29q14 80 55 119t111 39q33 0 68 -11t67 -32l-35 -197q-2 -15 3 -21.5t20 -6.5h8zM161 527l-5 -29q-7 -42 1 -64t30 -22q18 0 39.5 14.5t45.5 42.5l22 129q-13 6 -25.5 9
t-24.5 3q-34 0 -55 -21t-28 -62z" />
    <glyph glyph-name="guillemotleft" unicode="&#xab;" horiz-adv-x="712" 
d="M152 241l164 -115l-21 -112l-261 195l13 77l330 192l-21 -124zM472 241l164 -115l-21 -112l-261 195l13 77l330 192l-21 -124z" />
    <glyph glyph-name="logicalnot" unicode="&#xac;" 
d="M420 375h-312l18 100h414l-46 -257h-102z" />
    <glyph glyph-name="uni00AD" unicode="&#xad;" horiz-adv-x="0" 
 />
    <glyph glyph-name="registered" unicode="&#xae;" horiz-adv-x="537" 
d="M542 479q0 -102 -67 -170t-167 -68t-167 68t-67 170q0 103 66.5 170.5t167.5 67.5t167.5 -67.5t66.5 -170.5zM136 479q0 -77 49 -128.5t123 -51.5t123 51.5t49 128.5q0 78 -49 129t-123 51t-123 -51t-49 -129zM280 353h-61v255h95q39 0 61.5 -22t22.5 -60v-9
q0 -23 -9 -41.5t-25 -28.5q14 -22 26 -45.5t23 -48.5h-67q-10 23 -20 43t-20 38h-26v-81zM314 550h-34v-57h34q10 0 15.5 6.5t5.5 17.5v9q0 11 -5.5 17.5t-15.5 6.5z" />
    <glyph glyph-name="macron" unicode="&#xaf;" horiz-adv-x="500" 
d="M176 692h303l-15 -83h-303z" />
    <glyph glyph-name="degree" unicode="&#xb0;" horiz-adv-x="355" 
d="M386 546q0 -76 -50.5 -128t-125.5 -52q-66 0 -105.5 39t-39.5 105q0 76 50.5 128t125.5 52q66 0 105.5 -39t39.5 -105zM304 542q0 33 -17.5 52t-48.5 19q-39 0 -65 -28t-26 -71q0 -33 17.5 -52t48.5 -19q39 0 65 28t26 71z" />
    <glyph glyph-name="plusminus" unicode="&#xb1;" 
d="M526 395l-18 -100h-156l-26 -150h-102l26 150h-156l18 100h156l26 150h102l-26 -150h156zM456 0h-414l18 100h414z" />
    <glyph glyph-name="twosuperior" unicode="&#xb2;" horiz-adv-x="269" 
d="M146 518h142l-13 -73h-221l12 68q8 48 29 74.5t67 45.5l37 15q20 8 29 16.5t11 20.5l1 3q2 13 -7.5 20t-30.5 7q-15 0 -33.5 -4t-51.5 -15l-13 71q28 12 54.5 17.5t52.5 5.5q59 0 86.5 -26t21.5 -73l-1 -9q-4 -33 -26.5 -57.5t-66.5 -41.5l-37 -15q-19 -7 -29 -19
t-13 -31z" />
    <glyph glyph-name="threesuperior" unicode="&#xb3;" horiz-adv-x="275" 
d="M293 542l-2 -12q-8 -46 -40 -68t-91 -22q-28 0 -53.5 5.5t-46.5 15.5l23 70q19 -8 38 -11.5t39 -3.5q26 0 39 7t16 22l1 7q2 15 -7.5 24t-29.5 9h-51l11 64h51q19 0 31 8t14 22l1 7q3 15 -6.5 22t-33.5 7q-16 0 -34.5 -3.5t-41.5 -11.5l-17 70q27 10 52 15t49 5
q60 0 89.5 -26t23.5 -70l-1 -7q-3 -25 -18 -43.5t-41 -28.5q22 -13 31 -31.5t5 -41.5z" />
    <glyph glyph-name="acute" unicode="&#xb4;" horiz-adv-x="500" 
d="M484 699l-124 -120h-106l125 166z" />
    <glyph glyph-name="mu" unicode="&#xb5;" horiz-adv-x="574" 
d="M127 11v-136l-16 -88h-115l128 720h115l-57 -326q-7 -41 3 -62.5t37 -21.5q28 0 64 23t85 72l55 315h115l-64 -364q-4 -19 5 -30.5t29 -11.5h12l-19 -106h-19q-55 0 -84.5 25t-33.5 74q-49 -53 -93 -78.5t-85 -25.5q-20 0 -36 5.5t-26 15.5z" />
    <glyph glyph-name="paragraph" unicode="&#xb6;" horiz-adv-x="572" 
d="M82 440l9 56q14 90 74 137t160 47h322l-16 -87h-84l-130 -736h-120l130 736h-63l-64 -363h-28q-104 0 -154.5 56.5t-35.5 153.5z" />
    <glyph glyph-name="periodcentered" unicode="&#xb7;" horiz-adv-x="500" 
d="M344 444l-21 -119h-121l21 119h121z" />
    <glyph glyph-name="cedilla" unicode="&#xb8;" horiz-adv-x="500" 
d="M299 -117q0 -47 -37 -76.5t-98 -29.5q-19 0 -37.5 3t-47.5 12l17 69q19 -5 37.5 -8t31.5 -3q21 0 33 7.5t12 19.5q0 10 -9 15.5t-26 5.5q-6 0 -12 -0.5t-16 -2.5l-19 32l25 73h77l-14 -39q38 -3 60.5 -24.5t22.5 -53.5z" />
    <glyph glyph-name="onesuperior" unicode="&#xb9;" horiz-adv-x="220" 
d="M124 673l-23 64l105 48h60l-60 -340h-79l44 249z" />
    <glyph glyph-name="ordmasculine" unicode="&#xba;" horiz-adv-x="346" 
d="M244 685q71 0 108.5 -47t26.5 -120l-5 -34q-11 -71 -53.5 -110t-109.5 -39q-73 0 -110.5 46.5t-25.5 120.5l5 34q10 71 53 110t111 39zM293 484l6 37q6 42 -9 65.5t-49 23.5q-32 0 -53 -19.5t-27 -54.5l-6 -37q-7 -41 9 -65t50 -24q32 0 52.5 19.5t26.5 54.5z" />
    <glyph glyph-name="guillemotright" unicode="&#xbb;" horiz-adv-x="713" 
d="M355 283l-13 -77l-330 -192l21 124l204 113l-164 115l21 112zM675 283l-13 -77l-330 -192l21 124l204 113l-164 115l21 112z" />
    <glyph glyph-name="onequarter" unicode="&#xbc;" horiz-adv-x="631" 
d="M106 568l-23 64l105 48h60l-60 -340h-79l44 249zM51 0l445 680h94l-445 -680h-94zM600 136l-12 -69h-34l-12 -67h-73l12 67h-143l11 64q46 56 82.5 108.5t63.5 100.5h85q-28 -52 -63.5 -103t-78.5 -101h55l8 46h73l-8 -46h34z" />
    <glyph glyph-name="onehalf" unicode="&#xbd;" horiz-adv-x="670" 
d="M106 568l-23 64l105 48h60l-60 -340h-79l44 249zM51 0l445 680h94l-445 -680h-94zM470 73h142l-13 -73h-221l12 68q8 48 29 74.5t67 45.5l37 15q20 8 29 16.5t11 20.5l1 3q2 13 -7.5 20t-30.5 7q-15 0 -33.5 -4t-51.5 -15l-13 71q28 12 54.5 17.5t52.5 5.5q59 0 86.5 -26
t21.5 -73l-1 -9q-4 -33 -26.5 -57.5t-66.5 -41.5l-37 -15q-19 -7 -29 -19t-13 -31z" />
    <glyph glyph-name="threequarters" unicode="&#xbe;" horiz-adv-x="671" 
d="M275 437l-2 -12q-8 -46 -40 -68t-91 -22q-28 0 -53.5 5.5t-46.5 15.5l23 70q19 -8 38 -11.5t39 -3.5q26 0 39 7t16 22l1 7q2 15 -7.5 24t-29.5 9h-51l11 64h51q19 0 31 8t14 22l1 7q3 15 -6.5 22t-33.5 7q-16 0 -34.5 -3.5t-41.5 -11.5l-17 70q27 10 52 15t49 5
q60 0 89.5 -26t23.5 -70l-1 -7q-3 -25 -18 -43.5t-41 -28.5q22 -13 31 -31.5t5 -41.5zM91 0l445 680h94l-445 -680h-94zM640 136l-12 -69h-34l-12 -67h-73l12 67h-143l11 64q46 56 82.5 108.5t63.5 100.5h85q-28 -52 -63.5 -103t-78.5 -101h55l8 46h73l-8 -46h34z" />
    <glyph glyph-name="questiondown" unicode="&#xbf;" horiz-adv-x="464" 
d="M232 388l21 119h121l-21 -119h-121zM218 -76q34 0 73 9t91 29l29 -99q-56 -24 -106.5 -35t-99.5 -11q-108 0 -158.5 54t-32.5 144l4 20q8 39 27.5 68.5t69.5 73.5l38 33q34 30 47 47.5t17 41.5l2 9h120l-3 -18q-7 -43 -27.5 -73.5t-70.5 -73.5l-39 -34q-36 -31 -49 -48.5
t-17 -39.5l-3 -18q-7 -39 15 -59t73 -20z" />
    <glyph glyph-name="Agrave" unicode="&#xc0;" horiz-adv-x="601" 
d="M536 0h-120l-19 133h-233l-65 -133h-124l347 680h106zM348 513l-82 -172l-48 -98h164l-14 98zM432 752h-96l-82 120l111 46z" />
    <glyph glyph-name="Aacute" unicode="&#xc1;" horiz-adv-x="601" 
d="M536 0h-120l-19 133h-233l-65 -133h-124l347 680h106zM348 513l-82 -172l-48 -98h164l-14 98zM562 872l-124 -120h-106l125 166z" />
    <glyph glyph-name="Acircumflex" unicode="&#xc2;" horiz-adv-x="601" 
d="M536 0h-120l-19 133h-233l-65 -133h-124l347 680h106zM348 513l-82 -172l-48 -98h164l-14 98zM537 752h-88l-47 80l-75 -80h-94l124 161h112z" />
    <glyph glyph-name="Atilde" unicode="&#xc3;" horiz-adv-x="601" 
d="M536 0h-120l-19 133h-233l-65 -133h-124l347 680h106zM348 513l-82 -172l-48 -98h164l-14 98zM456 761q-24 0 -42.5 10t-40.5 38q-10 14 -15.5 18t-10.5 4q-10 0 -16.5 -14.5t-13.5 -47.5h-81q13 79 40 116.5t72 37.5q24 0 42 -10t39 -38q10 -14 15.5 -18t10.5 -4
q10 0 16.5 14.5t13.5 47.5h81q-13 -79 -39.5 -116.5t-70.5 -37.5z" />
    <glyph glyph-name="Adieresis" unicode="&#xc4;" horiz-adv-x="601" 
d="M536 0h-120l-19 133h-233l-65 -133h-124l347 680h106zM348 513l-82 -172l-48 -98h164l-14 98zM367 889l-19 -107h-109l19 107h109zM561 889l-19 -107h-109l19 107h109z" />
    <glyph glyph-name="Aring" unicode="&#xc5;" horiz-adv-x="601" 
d="M397 133h-233l-65 -133h-124l323 633q-23 16 -31.5 42t-2.5 58l3 15q10 49 44.5 77t85.5 28q56 0 86.5 -34.5t19.5 -86.5l-3 -15q-6 -30 -22.5 -53t-41.5 -35l100 -629h-120zM431 726l3 15q4 21 -7.5 33.5t-34.5 12.5q-21 0 -36 -12.5t-20 -33.5l-3 -15q-4 -21 6.5 -33.5
t33.5 -12.5q22 0 37.5 12.5t20.5 33.5zM348 513l-82 -172l-48 -98h164l-14 98z" />
    <glyph glyph-name="AE" unicode="&#xc6;" horiz-adv-x="843" 
d="M92 0h-136l450 680h454l-20 -115h-264l-29 -163h234l-20 -115h-234l-31 -172h274l-20 -115h-394l23 133h-201zM454 558l-204 -315h149z" />
    <glyph glyph-name="Ccedilla" unicode="&#xc7;" horiz-adv-x="538" 
d="M357 -117q0 -47 -37 -76.5t-98 -29.5q-19 0 -37.5 3t-47.5 12l17 69q19 -5 37.5 -8t31.5 -3q21 0 33 7.5t12 19.5q0 10 -9 15.5t-26 5.5q-6 0 -12 -0.5t-16 -2.5l-19 32l26 76q-78 27 -113.5 101t-18.5 176l20 122q24 146 96 217t195 71q44 0 86 -10t86 -32l-45 -106
q-45 20 -74.5 27.5t-60.5 7.5q-64 0 -105 -45t-55 -130l-20 -122q-14 -84 13.5 -130.5t92.5 -46.5q31 0 66.5 6t77.5 19l25 -105q-48 -16 -94 -24.5t-87 -8.5h-12l-11 -29q38 -3 60.5 -24.5t22.5 -53.5z" />
    <glyph glyph-name="Egrave" unicode="&#xc8;" horiz-adv-x="536" 
d="M189 115h274l-20 -115h-394l120 680h384l-20 -115h-264l-29 -163h234l-20 -115h-234zM418 752h-96l-82 120l111 46z" />
    <glyph glyph-name="Eacute" unicode="&#xc9;" horiz-adv-x="536" 
d="M189 115h274l-20 -115h-394l120 680h384l-20 -115h-264l-29 -163h234l-20 -115h-234zM548 872l-124 -120h-106l125 166z" />
    <glyph glyph-name="Ecircumflex" unicode="&#xca;" horiz-adv-x="536" 
d="M189 115h274l-20 -115h-394l120 680h384l-20 -115h-264l-29 -163h234l-20 -115h-234zM522 752h-88l-47 80l-75 -80h-94l124 161h112z" />
    <glyph glyph-name="Edieresis" unicode="&#xcb;" horiz-adv-x="536" 
d="M189 115h274l-20 -115h-394l120 680h384l-20 -115h-264l-29 -163h234l-20 -115h-234zM353 889l-19 -107h-109l19 107h109zM547 889l-19 -107h-109l19 107h109z" />
    <glyph glyph-name="Igrave" unicode="&#xcc;" horiz-adv-x="308" 
d="M289 680l-120 -680h-120l120 680h120zM286 752h-96l-82 120l111 46z" />
    <glyph glyph-name="Iacute" unicode="&#xcd;" horiz-adv-x="308" 
d="M289 680l-120 -680h-120l120 680h120zM416 872l-124 -120h-106l125 166z" />
    <glyph glyph-name="Icircumflex" unicode="&#xce;" horiz-adv-x="308" 
d="M289 680l-120 -680h-120l120 680h120zM390 752h-88l-47 80l-75 -80h-94l124 161h112z" />
    <glyph glyph-name="Idieresis" unicode="&#xcf;" horiz-adv-x="308" 
d="M289 680l-120 -680h-120l120 680h120zM221 889l-19 -107h-109l19 107h109zM415 889l-19 -107h-109l19 107h109z" />
    <glyph glyph-name="Eth" unicode="&#xd0;" horiz-adv-x="648" 
d="M27 290l19 109h82l50 281h210q119 0 180.5 -78t40.5 -200l-22 -123q-24 -138 -97 -208.5t-191 -70.5h-241l51 290h-82zM368 399l-19 -109h-120l-31 -175h107q65 0 104.5 41t54.5 123l22 123q14 78 -13.5 120.5t-92.5 42.5h-102l-30 -166h120z" />
    <glyph glyph-name="Ntilde" unicode="&#xd1;" horiz-adv-x="683" 
d="M164 0h-115l120 680h110q66 -133 111 -240.5t87 -230.5l26 211l46 260h115l-120 -680h-110q-40 133 -86.5 254.5t-103.5 246.5l-34 -241zM498 761q-24 0 -42.5 10t-40.5 38q-10 14 -15.5 18t-10.5 4q-10 0 -16.5 -14.5t-13.5 -47.5h-81q13 79 40 116.5t72 37.5
q24 0 42 -10t39 -38q10 -14 15.5 -18t10.5 -4q10 0 16.5 14.5t13.5 47.5h81q-13 -79 -39.5 -116.5t-70.5 -37.5z" />
    <glyph glyph-name="Ograve" unicode="&#xd2;" horiz-adv-x="640" 
d="M397 690q120 0 182 -81t39 -207l-22 -123q-26 -144 -98.5 -216.5t-189.5 -72.5q-121 0 -183 80.5t-39 208.5l22 123q25 142 98.5 215t190.5 73zM473 279l22 123q15 83 -12.5 129t-93.5 46q-63 0 -103 -44.5t-55 -130.5l-22 -123q-15 -85 12 -130.5t93 -45.5
q64 0 103.5 43.5t55.5 132.5zM452 752h-96l-82 120l111 46z" />
    <glyph glyph-name="Oacute" unicode="&#xd3;" horiz-adv-x="640" 
d="M397 690q120 0 182 -81t39 -207l-22 -123q-26 -144 -98.5 -216.5t-189.5 -72.5q-121 0 -183 80.5t-39 208.5l22 123q25 142 98.5 215t190.5 73zM473 279l22 123q15 83 -12.5 129t-93.5 46q-63 0 -103 -44.5t-55 -130.5l-22 -123q-15 -85 12 -130.5t93 -45.5
q64 0 103.5 43.5t55.5 132.5zM582 872l-124 -120h-106l125 166z" />
    <glyph glyph-name="Ocircumflex" unicode="&#xd4;" horiz-adv-x="640" 
d="M397 690q120 0 182 -81t39 -207l-22 -123q-26 -144 -98.5 -216.5t-189.5 -72.5q-121 0 -183 80.5t-39 208.5l22 123q25 142 98.5 215t190.5 73zM473 279l22 123q15 83 -12.5 129t-93.5 46q-63 0 -103 -44.5t-55 -130.5l-22 -123q-15 -85 12 -130.5t93 -45.5
q64 0 103.5 43.5t55.5 132.5zM556 752h-88l-47 80l-75 -80h-94l124 161h112z" />
    <glyph glyph-name="Otilde" unicode="&#xd5;" horiz-adv-x="640" 
d="M397 690q120 0 182 -81t39 -207l-22 -123q-26 -144 -98.5 -216.5t-189.5 -72.5q-121 0 -183 80.5t-39 208.5l22 123q25 142 98.5 215t190.5 73zM473 279l22 123q15 83 -12.5 129t-93.5 46q-63 0 -103 -44.5t-55 -130.5l-22 -123q-15 -85 12 -130.5t93 -45.5
q64 0 103.5 43.5t55.5 132.5zM476 761q-24 0 -42.5 10t-40.5 38q-10 14 -15.5 18t-10.5 4q-10 0 -16.5 -14.5t-13.5 -47.5h-81q13 79 40 116.5t72 37.5q24 0 42 -10t39 -38q10 -14 15.5 -18t10.5 -4q10 0 16.5 14.5t13.5 47.5h81q-13 -79 -39.5 -116.5t-70.5 -37.5z" />
    <glyph glyph-name="Odieresis" unicode="&#xd6;" horiz-adv-x="640" 
d="M397 690q120 0 182 -81t39 -207l-22 -123q-26 -144 -98.5 -216.5t-189.5 -72.5q-121 0 -183 80.5t-39 208.5l22 123q25 142 98.5 215t190.5 73zM473 279l22 123q15 83 -12.5 129t-93.5 46q-63 0 -103 -44.5t-55 -130.5l-22 -123q-15 -85 12 -130.5t93 -45.5
q64 0 103.5 43.5t55.5 132.5zM387 889l-19 -107h-109l19 107h109zM581 889l-19 -107h-109l19 107h109z" />
    <glyph glyph-name="multiply" unicode="&#xd7;" 
d="M490 176l-78 -66l-115 134l-165 -143l-62 75l164 143l-115 135l79 67l114 -135l165 144l62 -76l-164 -142z" />
    <glyph glyph-name="Oslash" unicode="&#xd8;" horiz-adv-x="641" 
d="M291 -10q-37 0 -70 8t-59 24l-37 -52h-109l82 115q-24 38 -31.5 87.5t2.5 106.5l22 123q25 142 98.5 215t190.5 73q36 0 69 -8.5t60 -24.5l38 53h109l-84 -117q24 -38 31.5 -87t-2.5 -104l-22 -123q-26 -144 -98.5 -216.5t-189.5 -72.5zM214 402l-22 -123
q-3 -17 -4.5 -35t-0.5 -35l252 350q-13 9 -30 13.5t-37 4.5q-63 0 -103 -44.5t-55 -130.5zM456 279l22 123q3 19 4.5 36t0.5 31l-251 -350q13 -8 29.5 -12t35.5 -4q64 0 103.5 43.5t55.5 132.5z" />
    <glyph glyph-name="Ugrave" unicode="&#xd9;" horiz-adv-x="646" 
d="M91 244l77 436h123l-77 -436q-12 -70 12.5 -105.5t84.5 -35.5q61 0 98 35.5t49 105.5l77 436h123l-77 -436q-23 -130 -90.5 -192t-183.5 -62q-119 0 -177.5 69.5t-38.5 184.5zM455 752h-96l-82 120l111 46z" />
    <glyph glyph-name="Uacute" unicode="&#xda;" horiz-adv-x="646" 
d="M91 244l77 436h123l-77 -436q-12 -70 12.5 -105.5t84.5 -35.5q61 0 98 35.5t49 105.5l77 436h123l-77 -436q-23 -130 -90.5 -192t-183.5 -62q-119 0 -177.5 69.5t-38.5 184.5zM585 872l-124 -120h-106l125 166z" />
    <glyph glyph-name="Ucircumflex" unicode="&#xdb;" horiz-adv-x="646" 
d="M91 244l77 436h123l-77 -436q-12 -70 12.5 -105.5t84.5 -35.5q61 0 98 35.5t49 105.5l77 436h123l-77 -436q-23 -130 -90.5 -192t-183.5 -62q-119 0 -177.5 69.5t-38.5 184.5zM559 752h-88l-47 80l-75 -80h-94l124 161h112z" />
    <glyph glyph-name="Udieresis" unicode="&#xdc;" horiz-adv-x="646" 
d="M91 244l77 436h123l-77 -436q-12 -70 12.5 -105.5t84.5 -35.5q61 0 98 35.5t49 105.5l77 436h123l-77 -436q-23 -130 -90.5 -192t-183.5 -62q-119 0 -177.5 69.5t-38.5 184.5zM390 889l-19 -107h-109l19 107h109zM584 889l-19 -107h-109l19 107h109z" />
    <glyph glyph-name="Yacute" unicode="&#xdd;" horiz-adv-x="544" 
d="M485 680h131l-279 -406l-49 -274h-120l48 271l-138 409h124l93 -289zM534 872l-124 -120h-106l125 166z" />
    <glyph glyph-name="Thorn" unicode="&#xde;" horiz-adv-x="575" 
d="M307 118h-117l-21 -118h-120l120 680h120l-20 -112h91q104 0 154.5 -56.5t35.5 -153.5l-9 -56q-14 -90 -74 -137t-160 -47zM353 453h-104l-39 -220h104q44 0 71.5 19.5t33.5 54.5l9 53q8 44 -12 68.5t-63 24.5z" />
    <glyph glyph-name="germandbls" unicode="&#xdf;" horiz-adv-x="634" 
d="M588 161q0 -78 -50.5 -124.5t-140.5 -46.5q-37 0 -75 8t-71 24l30 98q31 -15 61.5 -23t55.5 -8q34 0 54.5 17.5t20.5 43.5q0 17 -9 33.5t-26 32.5l-34 32q-33 31 -47.5 59.5t-14.5 59.5q0 27 10.5 55.5t43.5 78.5q25 39 32.5 57.5t7.5 33.5q0 25 -18.5 37.5t-53.5 12.5
q-43 0 -65.5 -20t-30.5 -62l-99 -560h-115l72 407h-82l17 100h83l9 53q17 97 70.5 143.5t145.5 46.5q84 0 133.5 -38t49.5 -106q0 -31 -12 -63t-47 -83q-22 -32 -28.5 -46t-6.5 -25q0 -16 9 -31t32 -37l34 -33q28 -27 41.5 -58.5t13.5 -68.5z" />
    <glyph glyph-name="agrave" unicode="&#xe0;" horiz-adv-x="558" 
d="M495 -5h-19q-49 0 -78 20.5t-38 60.5q-45 -43 -88 -64.5t-85 -21.5q-73 0 -107.5 68.5t-17.5 177.5l7 44q19 119 78 178t159 59q56 0 112 -16.5t104 -48.5l-54 -309q-3 -20 6 -31t28 -11h12zM187 280l-7 -44q-11 -68 1 -103.5t45 -35.5q30 0 64.5 24t71.5 71l35 202
q-21 10 -40.5 15t-40.5 5q-53 0 -86 -34t-43 -100zM378 579h-96l-82 120l111 46z" />
    <glyph glyph-name="aacute" unicode="&#xe1;" horiz-adv-x="558" 
d="M495 -5h-19q-49 0 -78 20.5t-38 60.5q-45 -43 -88 -64.5t-85 -21.5q-73 0 -107.5 68.5t-17.5 177.5l7 44q19 119 78 178t159 59q56 0 112 -16.5t104 -48.5l-54 -309q-3 -20 6 -31t28 -11h12zM187 280l-7 -44q-11 -68 1 -103.5t45 -35.5q30 0 64.5 24t71.5 71l35 202
q-21 10 -40.5 15t-40.5 5q-53 0 -86 -34t-43 -100zM508 699l-124 -120h-106l125 166z" />
    <glyph glyph-name="acircumflex" unicode="&#xe2;" horiz-adv-x="558" 
d="M495 -5h-19q-49 0 -78 20.5t-38 60.5q-45 -43 -88 -64.5t-85 -21.5q-73 0 -107.5 68.5t-17.5 177.5l7 44q19 119 78 178t159 59q56 0 112 -16.5t104 -48.5l-54 -309q-3 -20 6 -31t28 -11h12zM187 280l-7 -44q-11 -68 1 -103.5t45 -35.5q30 0 64.5 24t71.5 71l35 202
q-21 10 -40.5 15t-40.5 5q-53 0 -86 -34t-43 -100zM483 579h-88l-47 80l-75 -80h-94l124 161h112z" />
    <glyph glyph-name="atilde" unicode="&#xe3;" horiz-adv-x="558" 
d="M495 -5h-19q-49 0 -78 20.5t-38 60.5q-45 -43 -88 -64.5t-85 -21.5q-73 0 -107.5 68.5t-17.5 177.5l7 44q19 119 78 178t159 59q56 0 112 -16.5t104 -48.5l-54 -309q-3 -20 6 -31t28 -11h12zM187 280l-7 -44q-11 -68 1 -103.5t45 -35.5q30 0 64.5 24t71.5 71l35 202
q-21 10 -40.5 15t-40.5 5q-53 0 -86 -34t-43 -100zM402 588q-24 0 -42.5 10t-40.5 38q-10 14 -15.5 18t-10.5 4q-10 0 -16.5 -14.5t-13.5 -47.5h-81q13 79 40 116.5t72 37.5q24 0 42 -10t39 -38q10 -14 15.5 -18t10.5 -4q10 0 16.5 14.5t13.5 47.5h81q-13 -79 -39.5 -116.5
t-70.5 -37.5z" />
    <glyph glyph-name="adieresis" unicode="&#xe4;" horiz-adv-x="558" 
d="M495 -5h-19q-49 0 -78 20.5t-38 60.5q-45 -43 -88 -64.5t-85 -21.5q-73 0 -107.5 68.5t-17.5 177.5l7 44q19 119 78 178t159 59q56 0 112 -16.5t104 -48.5l-54 -309q-3 -20 6 -31t28 -11h12zM187 280l-7 -44q-11 -68 1 -103.5t45 -35.5q30 0 64.5 24t71.5 71l35 202
q-21 10 -40.5 15t-40.5 5q-53 0 -86 -34t-43 -100zM313 716l-19 -107h-109l19 107h109zM507 716l-19 -107h-109l19 107h109z" />
    <glyph glyph-name="aring" unicode="&#xe5;" horiz-adv-x="558" 
d="M495 -5h-19q-49 0 -78 20.5t-38 60.5q-45 -43 -88 -64.5t-85 -21.5q-73 0 -107.5 68.5t-17.5 177.5l7 44q19 119 78 178t159 59q56 0 112 -16.5t104 -48.5l-54 -309q-3 -20 6 -31t28 -11h12zM187 280l-7 -44q-11 -68 1 -103.5t45 -35.5q30 0 64.5 24t71.5 71l35 202
q-21 10 -40.5 15t-40.5 5q-53 0 -86 -34t-43 -100zM371 803q56 0 86.5 -34.5t19.5 -86.5l-3 -15q-9 -48 -44.5 -76t-86.5 -28q-56 0 -85.5 33.5t-19.5 86.5l3 15q10 49 44.5 77t85.5 28zM405 676l3 15q4 21 -7.5 33.5t-34.5 12.5q-21 0 -36 -12.5t-20 -33.5l-3 -15
q-4 -21 6.5 -33.5t33.5 -12.5q22 0 37.5 12.5t20.5 33.5z" />
    <glyph glyph-name="ae" unicode="&#xe6;" horiz-adv-x="798" 
d="M684 122l16 -98q-45 -17 -86 -25.5t-84 -8.5q-70 0 -119 25t-72 73q-49 -51 -94.5 -74.5t-95.5 -23.5q-63 0 -97 34.5t-34 97.5q0 80 47.5 124t137.5 44q28 0 61.5 -3t66.5 -8l8 43q8 43 -15.5 66t-74.5 23q-27 0 -60 -6t-67 -17l-27 98q46 16 86.5 23.5t76.5 7.5
q59 0 97 -20.5t56 -60.5q30 40 72 60.5t93 20.5q79 0 130.5 -46t51.5 -125q0 -32 -10 -64.5t-29 -63.5h-289q-8 -63 19.5 -93.5t91.5 -30.5q29 0 66.5 7t76.5 21zM645 346q0 34 -21 52.5t-58 18.5q-46 0 -76.5 -28t-43.5 -83h192q4 11 5.5 20.5t1.5 19.5zM206 206
q-36 0 -55 -19t-19 -53q0 -24 11 -36t32 -12q35 0 70 20t74 62v28q-28 5 -58 7.5t-55 2.5z" />
    <glyph glyph-name="ccedilla" unicode="&#xe7;" horiz-adv-x="450" 
d="M316 -117q0 -47 -37 -76.5t-98 -29.5q-19 0 -37.5 3t-47.5 12l17 69q19 -5 37.5 -8t31.5 -3q21 0 33 7.5t12 19.5q0 10 -9 15.5t-26 5.5q-6 0 -12 -0.5t-16 -2.5l-19 32l25 74q-69 23 -97.5 86t-12.5 155l9 52q19 107 79.5 165t153.5 58q35 0 71.5 -8.5t77.5 -25.5
l-38 -99q-31 13 -59 20t-51 7q-48 0 -79.5 -30.5t-41.5 -86.5l-11 -60q-13 -69 9.5 -103.5t80.5 -34.5q25 0 52 5.5t63 18.5l17 -99q-44 -16 -78.5 -23.5t-67.5 -7.5h-4l-10 -29q38 -3 60.5 -24.5t22.5 -53.5z" />
    <glyph glyph-name="egrave" unicode="&#xe8;" horiz-adv-x="522" 
d="M423 122l16 -98q-46 -18 -87.5 -26t-86.5 -8q-114 0 -168 67.5t-34 184.5l9 52q18 103 81.5 163t155.5 60q86 0 137 -45t51 -126q0 -32 -10 -64.5t-29 -63.5h-289q-8 -63 19.5 -93.5t91.5 -30.5q29 0 66.5 7t76.5 21zM387 346q0 34 -21.5 52.5t-60.5 18.5
q-46 0 -76.5 -28t-43.5 -83h195q4 11 5.5 20.5t1.5 19.5zM368 579h-96l-82 120l111 46z" />
    <glyph glyph-name="eacute" unicode="&#xe9;" horiz-adv-x="522" 
d="M423 122l16 -98q-46 -18 -87.5 -26t-86.5 -8q-114 0 -168 67.5t-34 184.5l9 52q18 103 81.5 163t155.5 60q86 0 137 -45t51 -126q0 -32 -10 -64.5t-29 -63.5h-289q-8 -63 19.5 -93.5t91.5 -30.5q29 0 66.5 7t76.5 21zM387 346q0 34 -21.5 52.5t-60.5 18.5
q-46 0 -76.5 -28t-43.5 -83h195q4 11 5.5 20.5t1.5 19.5zM498 699l-124 -120h-106l125 166z" />
    <glyph glyph-name="ecircumflex" unicode="&#xea;" horiz-adv-x="522" 
d="M423 122l16 -98q-46 -18 -87.5 -26t-86.5 -8q-114 0 -168 67.5t-34 184.5l9 52q18 103 81.5 163t155.5 60q86 0 137 -45t51 -126q0 -32 -10 -64.5t-29 -63.5h-289q-8 -63 19.5 -93.5t91.5 -30.5q29 0 66.5 7t76.5 21zM387 346q0 34 -21.5 52.5t-60.5 18.5
q-46 0 -76.5 -28t-43.5 -83h195q4 11 5.5 20.5t1.5 19.5zM471 579h-88l-47 80l-75 -80h-94l124 161h112z" />
    <glyph glyph-name="edieresis" unicode="&#xeb;" horiz-adv-x="522" 
d="M423 122l16 -98q-46 -18 -87.5 -26t-86.5 -8q-114 0 -168 67.5t-34 184.5l9 52q18 103 81.5 163t155.5 60q86 0 137 -45t51 -126q0 -32 -10 -64.5t-29 -63.5h-289q-8 -63 19.5 -93.5t91.5 -30.5q29 0 66.5 7t76.5 21zM387 346q0 34 -21.5 52.5t-60.5 18.5
q-46 0 -76.5 -28t-43.5 -83h195q4 11 5.5 20.5t1.5 19.5zM302 716l-19 -107h-109l19 107h109zM496 716l-19 -107h-109l19 107h109z" />
    <glyph glyph-name="igrave" unicode="&#xec;" horiz-adv-x="273" 
d="M238 507l-89 -507h-115l89 507h115zM240 579h-96l-82 120l111 46z" />
    <glyph glyph-name="iacute" unicode="&#xed;" horiz-adv-x="273" 
d="M238 507l-89 -507h-115l89 507h115zM370 699l-124 -120h-106l125 166z" />
    <glyph glyph-name="icircumflex" unicode="&#xee;" horiz-adv-x="273" 
d="M238 507l-89 -507h-115l89 507h115zM345 579h-88l-47 80l-75 -80h-94l124 161h112z" />
    <glyph glyph-name="idieresis" unicode="&#xef;" horiz-adv-x="273" 
d="M238 507l-89 -507h-115l89 507h115zM175 716l-19 -107h-109l19 107h109zM369 716l-19 -107h-109l19 107h109z" />
    <glyph glyph-name="eth" unicode="&#xf0;" horiz-adv-x="536" 
d="M506 284l-7 -40q-21 -123 -89 -188.5t-175 -65.5q-98 0 -149.5 65.5t-33.5 170.5l5 30q14 83 67.5 131.5t128.5 48.5q46 0 83.5 -22t59.5 -63q2 54 -11.5 102t-40.5 90l-154 -85l17 101l84 46q-15 15 -34 30t-42 30l59 85q34 -23 62 -46t50 -47l169 93l-17 -101l-101 -55
q47 -70 65 -150.5t4 -159.5zM171 239l-5 -30q-9 -52 13 -84t67 -32q48 0 81.5 36t50.5 105q-18 45 -48.5 70t-66.5 25q-34 0 -59.5 -24.5t-32.5 -65.5z" />
    <glyph glyph-name="ntilde" unicode="&#xf1;" horiz-adv-x="584" 
d="M361 410q-31 0 -69.5 -23.5t-87.5 -72.5l-55 -314h-115l89 507h109l-15 -86q48 49 92.5 72.5t90.5 23.5q72 0 105.5 -52t18.5 -137l-58 -328h-115l57 326q8 41 -4 62.5t-43 21.5zM428 588q-24 0 -42.5 10t-40.5 38q-10 14 -15.5 18t-10.5 4q-10 0 -16.5 -14.5
t-13.5 -47.5h-81q13 79 40 116.5t72 37.5q24 0 42 -10t39 -38q10 -14 15.5 -18t10.5 -4q10 0 16.5 14.5t13.5 47.5h81q-13 -79 -39.5 -116.5t-70.5 -37.5z" />
    <glyph glyph-name="ograve" unicode="&#xf2;" horiz-adv-x="545" 
d="M311 517q106 0 161 -70t38 -181l-8 -52q-16 -107 -79 -165.5t-162 -58.5q-106 0 -161 70.5t-37 181.5l8 52q17 107 79 165t161 58zM384 214l9 57q11 66 -12 104.5t-74 38.5q-47 0 -78 -31.5t-40 -88.5l-9 -57q-11 -66 12.5 -105t73.5 -39q46 0 77.5 32t40.5 89zM368 579
h-96l-82 120l111 46z" />
    <glyph glyph-name="oacute" unicode="&#xf3;" horiz-adv-x="545" 
d="M311 517q106 0 161 -70t38 -181l-8 -52q-16 -107 -79 -165.5t-162 -58.5q-106 0 -161 70.5t-37 181.5l8 52q17 107 79 165t161 58zM384 214l9 57q11 66 -12 104.5t-74 38.5q-47 0 -78 -31.5t-40 -88.5l-9 -57q-11 -66 12.5 -105t73.5 -39q46 0 77.5 32t40.5 89zM498 699
l-124 -120h-106l125 166z" />
    <glyph glyph-name="ocircumflex" unicode="&#xf4;" horiz-adv-x="545" 
d="M311 517q106 0 161 -70t38 -181l-8 -52q-16 -107 -79 -165.5t-162 -58.5q-106 0 -161 70.5t-37 181.5l8 52q17 107 79 165t161 58zM384 214l9 57q11 66 -12 104.5t-74 38.5q-47 0 -78 -31.5t-40 -88.5l-9 -57q-11 -66 12.5 -105t73.5 -39q46 0 77.5 32t40.5 89zM472 579
h-88l-47 80l-75 -80h-94l124 161h112z" />
    <glyph glyph-name="otilde" unicode="&#xf5;" horiz-adv-x="545" 
d="M311 517q106 0 161 -70t38 -181l-8 -52q-16 -107 -79 -165.5t-162 -58.5q-106 0 -161 70.5t-37 181.5l8 52q17 107 79 165t161 58zM384 214l9 57q11 66 -12 104.5t-74 38.5q-47 0 -78 -31.5t-40 -88.5l-9 -57q-11 -66 12.5 -105t73.5 -39q46 0 77.5 32t40.5 89zM392 588
q-24 0 -42.5 10t-40.5 38q-10 14 -15.5 18t-10.5 4q-10 0 -16.5 -14.5t-13.5 -47.5h-81q13 79 40 116.5t72 37.5q24 0 42 -10t39 -38q10 -14 15.5 -18t10.5 -4q10 0 16.5 14.5t13.5 47.5h81q-13 -79 -39.5 -116.5t-70.5 -37.5z" />
    <glyph glyph-name="odieresis" unicode="&#xf6;" horiz-adv-x="545" 
d="M311 517q106 0 161 -70t38 -181l-8 -52q-16 -107 -79 -165.5t-162 -58.5q-106 0 -161 70.5t-37 181.5l8 52q17 107 79 165t161 58zM384 214l9 57q11 66 -12 104.5t-74 38.5q-47 0 -78 -31.5t-40 -88.5l-9 -57q-11 -66 12.5 -105t73.5 -39q46 0 77.5 32t40.5 89zM303 716
l-19 -107h-109l19 107h109zM497 716l-19 -107h-109l19 107h109z" />
    <glyph glyph-name="divide" unicode="&#xf7;" 
d="M410 566l-21 -119h-121l21 119h121zM503 265h-414l17 100h414zM341 178l-21 -119h-121l21 119h121z" />
    <glyph glyph-name="oslash" unicode="&#xf8;" horiz-adv-x="545" 
d="M247 -10q-31 0 -58 6.5t-50 19.5l-35 -46h-103l78 101q-22 33 -29.5 77t-0.5 94l8 52q17 107 79 165t161 58q31 0 58.5 -6.5t50.5 -19.5l36 46h103l-79 -101q22 -33 29.5 -76.5t0.5 -93.5l-8 -52q-16 -107 -79 -165.5t-162 -58.5zM175 294l-9 -57q-2 -17 -2.5 -31
t0.5 -27l174 225q-10 5 -21.5 7.5t-23.5 2.5q-47 0 -78 -31.5t-40 -88.5zM370 214l9 57q2 15 3 29t0 27l-174 -223q9 -5 20.5 -8t23.5 -3q46 0 77.5 32t40.5 89z" />
    <glyph glyph-name="ugrave" unicode="&#xf9;" horiz-adv-x="570" 
d="M457 0h-109l15 86q-48 -49 -90.5 -72.5t-85.5 -23.5q-69 0 -101 52t-16 137l58 328h115l-57 -326q-7 -41 3 -62.5t37 -21.5q28 0 64.5 23.5t85.5 72.5l55 314h115zM384 579h-96l-82 120l111 46z" />
    <glyph glyph-name="uacute" unicode="&#xfa;" horiz-adv-x="570" 
d="M457 0h-109l15 86q-48 -49 -90.5 -72.5t-85.5 -23.5q-69 0 -101 52t-16 137l58 328h115l-57 -326q-7 -41 3 -62.5t37 -21.5q28 0 64.5 23.5t85.5 72.5l55 314h115zM514 699l-124 -120h-106l125 166z" />
    <glyph glyph-name="ucircumflex" unicode="&#xfb;" horiz-adv-x="570" 
d="M457 0h-109l15 86q-48 -49 -90.5 -72.5t-85.5 -23.5q-69 0 -101 52t-16 137l58 328h115l-57 -326q-7 -41 3 -62.5t37 -21.5q28 0 64.5 23.5t85.5 72.5l55 314h115zM489 579h-88l-47 80l-75 -80h-94l124 161h112z" />
    <glyph glyph-name="udieresis" unicode="&#xfc;" horiz-adv-x="570" 
d="M457 0h-109l15 86q-48 -49 -90.5 -72.5t-85.5 -23.5q-69 0 -101 52t-16 137l58 328h115l-57 -326q-7 -41 3 -62.5t37 -21.5q28 0 64.5 23.5t85.5 72.5l55 314h115zM319 716l-19 -107h-109l19 107h109zM513 716l-19 -107h-109l19 107h109z" />
    <glyph glyph-name="yacute" unicode="&#xfd;" horiz-adv-x="499" 
d="M257 0l-27 -50q-50 -93 -108.5 -133t-145.5 -40l20 115q59 5 86.5 21.5t52.5 61.5l16 30l-90 502h114l43 -253l15 -105l51 105l127 253h115zM484 699l-124 -120h-106l125 166z" />
    <glyph glyph-name="thorn" unicode="&#xfe;" horiz-adv-x="564" 
d="M264 -10q-29 0 -57 6t-56 18l-40 -227h-115l168 953h115l-55 -310q44 44 83.5 65.5t78.5 21.5q74 0 109 -68.5t17 -177.5l-7 -44q-19 -119 -79 -178t-162 -59zM344 410q-28 0 -63 -27t-80 -83l-32 -185q22 -11 42.5 -16.5t42.5 -5.5q55 0 88.5 34t44.5 100l7 44
q11 69 -1.5 104t-48.5 35z" />
    <glyph glyph-name="ydieresis" unicode="&#xff;" horiz-adv-x="499" 
d="M257 0l-27 -50q-50 -93 -108.5 -133t-145.5 -40l20 115q59 5 86.5 21.5t52.5 61.5l16 30l-90 502h114l43 -253l15 -105l51 105l127 253h115zM288 716l-19 -107h-109l19 107h109zM482 716l-19 -107h-109l19 107h109z" />
    <glyph glyph-name="Amacron" unicode="&#x100;" horiz-adv-x="601" 
d="M536 0h-120l-19 133h-233l-65 -133h-124l347 680h106zM348 513l-82 -172l-48 -98h164l-14 98zM254 865h303l-15 -83h-303z" />
    <glyph glyph-name="amacron" unicode="&#x101;" horiz-adv-x="558" 
d="M495 -5h-19q-49 0 -78 20.5t-38 60.5q-45 -43 -88 -64.5t-85 -21.5q-73 0 -107.5 68.5t-17.5 177.5l7 44q19 119 78 178t159 59q56 0 112 -16.5t104 -48.5l-54 -309q-3 -20 6 -31t28 -11h12zM187 280l-7 -44q-11 -68 1 -103.5t45 -35.5q30 0 64.5 24t71.5 71l35 202
q-21 10 -40.5 15t-40.5 5q-53 0 -86 -34t-43 -100zM200 692h303l-15 -83h-303z" />
    <glyph glyph-name="Abreve" unicode="&#x102;" horiz-adv-x="601" 
d="M536 0h-120l-19 133h-233l-65 -133h-124l347 680h106zM348 513l-82 -172l-48 -98h164l-14 98zM405 839q22 0 35.5 15.5t21.5 49.5h90q-18 -75 -54.5 -110.5t-97.5 -35.5q-65 0 -94.5 37t-21.5 109h84q-5 -33 4 -49t33 -16z" />
    <glyph glyph-name="abreve" unicode="&#x103;" horiz-adv-x="558" 
d="M495 -5h-19q-49 0 -78 20.5t-38 60.5q-45 -43 -88 -64.5t-85 -21.5q-73 0 -107.5 68.5t-17.5 177.5l7 44q19 119 78 178t159 59q56 0 112 -16.5t104 -48.5l-54 -309q-3 -20 6 -31t28 -11h12zM187 280l-7 -44q-11 -68 1 -103.5t45 -35.5q30 0 64.5 24t71.5 71l35 202
q-21 10 -40.5 15t-40.5 5q-53 0 -86 -34t-43 -100zM351 666q22 0 35.5 15.5t21.5 49.5h90q-18 -75 -54.5 -110.5t-97.5 -35.5q-65 0 -94.5 37t-21.5 109h84q-5 -33 4 -49t33 -16z" />
    <glyph glyph-name="Aogonek" unicode="&#x104;" horiz-adv-x="601" 
d="M498 -124l11 -83q-22 -8 -43.5 -12t-43.5 -4q-50 0 -77 21.5t-27 60.5q0 34 24 67.5t74 72.5l-18 134h-234l-65 -133h-124l347 680h106l108 -680q-63 -46 -87.5 -70.5t-24.5 -43.5q0 -9 6.5 -14t19.5 -5q10 0 21.5 2t26.5 7zM348 513l-82 -172l-48 -98h164l-14 98z" />
    <glyph glyph-name="aogonek" unicode="&#x105;" horiz-adv-x="558" 
d="M458 -124l11 -83q-22 -8 -43.5 -12t-43.5 -4q-50 0 -77 21.5t-27 60.5q0 36 30 73t94 81q-16 9 -26.5 24.5t-15.5 38.5q-45 -43 -88 -64.5t-85 -21.5q-73 0 -107.5 68.5t-17.5 177.5l7 44q19 119 78 178t159 59q56 0 112 -16.5t104 -48.5l-54 -309q-3 -20 6 -31t28 -11
h12l-19 -106q-66 -48 -88.5 -70t-22.5 -39q0 -9 6.5 -14t19.5 -5q10 0 21.5 2t26.5 7zM187 280l-7 -44q-11 -68 1 -103.5t45 -35.5q30 0 64.5 24t71.5 71l35 202q-21 10 -40.5 15t-40.5 5q-53 0 -86 -34t-43 -100z" />
    <glyph glyph-name="Cacute" unicode="&#x106;" horiz-adv-x="538" 
d="M228 402l-20 -122q-14 -84 13.5 -130.5t92.5 -46.5q31 0 66.5 6t77.5 19l25 -105q-48 -16 -94 -24.5t-87 -8.5q-119 0 -178.5 81t-38.5 209l20 122q24 146 96 217t195 71q44 0 86 -10t86 -32l-45 -106q-45 20 -74.5 27.5t-60.5 7.5q-64 0 -105 -45t-55 -130zM572 872
l-124 -120h-106l125 166z" />
    <glyph glyph-name="cacute" unicode="&#x107;" horiz-adv-x="450" 
d="M307 411q-48 0 -79.5 -30.5t-41.5 -86.5l-11 -60q-13 -69 9.5 -103.5t80.5 -34.5q25 0 52 5.5t63 18.5l17 -99q-44 -16 -78.5 -23.5t-67.5 -7.5q-107 0 -157 68t-30 184l9 52q19 107 79.5 165t153.5 58q35 0 71.5 -8.5t77.5 -25.5l-38 -99q-31 13 -59 20t-51 7zM492 699
l-124 -120h-106l125 166z" />
    <glyph glyph-name="Ccircumflex" unicode="&#x108;" horiz-adv-x="538" 
d="M228 402l-20 -122q-14 -84 13.5 -130.5t92.5 -46.5q31 0 66.5 6t77.5 19l25 -105q-48 -16 -94 -24.5t-87 -8.5q-119 0 -178.5 81t-38.5 209l20 122q24 146 96 217t195 71q44 0 86 -10t86 -32l-45 -106q-45 20 -74.5 27.5t-60.5 7.5q-64 0 -105 -45t-55 -130zM546 752h-88
l-47 80l-75 -80h-94l124 161h112z" />
    <glyph glyph-name="ccircumflex" unicode="&#x109;" horiz-adv-x="450" 
d="M307 411q-48 0 -79.5 -30.5t-41.5 -86.5l-11 -60q-13 -69 9.5 -103.5t80.5 -34.5q25 0 52 5.5t63 18.5l17 -99q-44 -16 -78.5 -23.5t-67.5 -7.5q-107 0 -157 68t-30 184l9 52q19 107 79.5 165t153.5 58q35 0 71.5 -8.5t77.5 -25.5l-38 -99q-31 13 -59 20t-51 7zM466 579
h-88l-47 80l-75 -80h-94l124 161h112z" />
    <glyph glyph-name="Cdotaccent" unicode="&#x10a;" horiz-adv-x="538" 
d="M228 402l-20 -122q-14 -84 13.5 -130.5t92.5 -46.5q31 0 66.5 6t77.5 19l25 -105q-48 -16 -94 -24.5t-87 -8.5q-119 0 -178.5 81t-38.5 209l20 122q24 146 96 217t195 71q44 0 86 -10t86 -32l-45 -106q-45 20 -74.5 27.5t-60.5 7.5q-64 0 -105 -45t-55 -130zM481 895
l-21 -119h-121l21 119h121z" />
    <glyph glyph-name="cdotaccent" unicode="&#x10b;" horiz-adv-x="450" 
d="M307 411q-48 0 -79.5 -30.5t-41.5 -86.5l-11 -60q-13 -69 9.5 -103.5t80.5 -34.5q25 0 52 5.5t63 18.5l17 -99q-44 -16 -78.5 -23.5t-67.5 -7.5q-107 0 -157 68t-30 184l9 52q19 107 79.5 165t153.5 58q35 0 71.5 -8.5t77.5 -25.5l-38 -99q-31 13 -59 20t-51 7zM401 722
l-21 -119h-121l21 119h121z" />
    <glyph glyph-name="Ccaron" unicode="&#x10c;" horiz-adv-x="538" 
d="M228 402l-20 -122q-14 -84 13.5 -130.5t92.5 -46.5q31 0 66.5 6t77.5 19l25 -105q-48 -16 -94 -24.5t-87 -8.5q-119 0 -178.5 81t-38.5 209l20 122q24 146 96 217t195 71q44 0 86 -10t86 -32l-45 -106q-45 20 -74.5 27.5t-60.5 7.5q-64 0 -105 -45t-55 -130zM480 913h94
l-124 -161h-112l-68 161h88l47 -80z" />
    <glyph glyph-name="ccaron" unicode="&#x10d;" horiz-adv-x="450" 
d="M307 411q-48 0 -79.5 -30.5t-41.5 -86.5l-11 -60q-13 -69 9.5 -103.5t80.5 -34.5q25 0 52 5.5t63 18.5l17 -99q-44 -16 -78.5 -23.5t-67.5 -7.5q-107 0 -157 68t-30 184l9 52q19 107 79.5 165t153.5 58q35 0 71.5 -8.5t77.5 -25.5l-38 -99q-31 13 -59 20t-51 7zM400 740
h94l-124 -161h-112l-68 161h88l47 -80z" />
    <glyph glyph-name="Dcaron" unicode="&#x10e;" horiz-adv-x="639" 
d="M290 0h-241l120 680h210q119 0 180.5 -78t40.5 -200l-22 -123q-24 -138 -97 -208.5t-191 -70.5zM371 565h-102l-80 -450h107q65 0 104.5 41t54.5 123l22 123q14 78 -13.5 120.5t-92.5 42.5zM489 913h94l-124 -161h-112l-68 161h88l47 -80z" />
    <glyph glyph-name="dcaron" unicode="&#x10f;" horiz-adv-x="651" 
d="M452 0h-109l15 85q-45 -48 -86 -71.5t-83 -23.5q-74 0 -109 68.5t-17 177.5l7 44q19 119 79 178t162 59q28 0 55.5 -6t57.5 -18l43 247h115zM188 280l-7 -44q-11 -69 1.5 -104t48.5 -35q28 0 63 27t80 83l32 185q-22 11 -42.5 16.5t-42.5 5.5q-55 0 -88.5 -34t-44.5 -100
zM754 740l-70 -194h-77l34 194h113z" />
    <glyph glyph-name="Dcroat" unicode="&#x110;" horiz-adv-x="648" 
d="M27 290l19 109h82l50 281h210q119 0 180.5 -78t40.5 -200l-22 -123q-24 -138 -97 -208.5t-191 -70.5h-241l51 290h-82zM368 399l-19 -109h-120l-31 -175h107q65 0 104.5 41t54.5 123l22 123q14 78 -13.5 120.5t-92.5 42.5h-102l-30 -166h120z" />
    <glyph glyph-name="dcroat" unicode="&#x111;" horiz-adv-x="560" 
d="M452 0h-109l15 85q-45 -48 -86 -71.5t-83 -23.5q-74 0 -109 68.5t-17 177.5l7 44q19 119 79 178t162 59q28 0 55.5 -6t57.5 -18l17 97h-153l13 75h153l13 75h115l-13 -75h78l-13 -75h-78zM188 280l-7 -44q-11 -69 1.5 -104t48.5 -35q28 0 63 27t80 83l32 185
q-22 11 -42.5 16.5t-42.5 5.5q-55 0 -88.5 -34t-44.5 -100z" />
    <glyph glyph-name="Emacron" unicode="&#x112;" horiz-adv-x="536" 
d="M189 115h274l-20 -115h-394l120 680h384l-20 -115h-264l-29 -163h234l-20 -115h-234zM240 865h303l-15 -83h-303z" />
    <glyph glyph-name="emacron" unicode="&#x113;" horiz-adv-x="522" 
d="M423 122l16 -98q-46 -18 -87.5 -26t-86.5 -8q-114 0 -168 67.5t-34 184.5l9 52q18 103 81.5 163t155.5 60q86 0 137 -45t51 -126q0 -32 -10 -64.5t-29 -63.5h-289q-8 -63 19.5 -93.5t91.5 -30.5q29 0 66.5 7t76.5 21zM387 346q0 34 -21.5 52.5t-60.5 18.5
q-46 0 -76.5 -28t-43.5 -83h195q4 11 5.5 20.5t1.5 19.5zM189 692h303l-15 -83h-303z" />
    <glyph glyph-name="Ebreve" unicode="&#x114;" horiz-adv-x="536" 
d="M189 115h274l-20 -115h-394l120 680h384l-20 -115h-264l-29 -163h234l-20 -115h-234zM391 839q22 0 35.5 15.5t21.5 49.5h90q-18 -75 -54.5 -110.5t-97.5 -35.5q-65 0 -94.5 37t-21.5 109h84q-5 -33 4 -49t33 -16z" />
    <glyph glyph-name="ebreve" unicode="&#x115;" horiz-adv-x="522" 
d="M423 122l16 -98q-46 -18 -87.5 -26t-86.5 -8q-114 0 -168 67.5t-34 184.5l9 52q18 103 81.5 163t155.5 60q86 0 137 -45t51 -126q0 -32 -10 -64.5t-29 -63.5h-289q-8 -63 19.5 -93.5t91.5 -30.5q29 0 66.5 7t76.5 21zM387 346q0 34 -21.5 52.5t-60.5 18.5
q-46 0 -76.5 -28t-43.5 -83h195q4 11 5.5 20.5t1.5 19.5zM341 666q22 0 35.5 15.5t21.5 49.5h90q-18 -75 -54.5 -110.5t-97.5 -35.5q-65 0 -94.5 37t-21.5 109h84q-5 -33 4 -49t33 -16z" />
    <glyph glyph-name="Edotaccent" unicode="&#x116;" horiz-adv-x="536" 
d="M189 115h274l-20 -115h-394l120 680h384l-20 -115h-264l-29 -163h234l-20 -115h-234zM457 895l-21 -119h-121l21 119h121z" />
    <glyph glyph-name="edotaccent" unicode="&#x117;" horiz-adv-x="522" 
d="M423 122l16 -98q-46 -18 -87.5 -26t-86.5 -8q-114 0 -168 67.5t-34 184.5l9 52q18 103 81.5 163t155.5 60q86 0 137 -45t51 -126q0 -32 -10 -64.5t-29 -63.5h-289q-8 -63 19.5 -93.5t91.5 -30.5q29 0 66.5 7t76.5 21zM387 346q0 34 -21.5 52.5t-60.5 18.5
q-46 0 -76.5 -28t-43.5 -83h195q4 11 5.5 20.5t1.5 19.5zM406 722l-21 -119h-121l21 119h121z" />
    <glyph glyph-name="Eogonek" unicode="&#x118;" horiz-adv-x="536" 
d="M405 -124l11 -83q-22 -8 -43.5 -12t-43.5 -4q-50 0 -77 21.5t-27 60.5q0 33 26 66.5t81 74.5h-283l120 680h384l-20 -115h-264l-29 -163h234l-20 -115h-234l-31 -172h274l-20 -115q-63 -46 -87.5 -70.5t-24.5 -43.5q0 -9 6.5 -14t19.5 -5q10 0 21.5 2t26.5 7z" />
    <glyph glyph-name="eogonek" unicode="&#x119;" horiz-adv-x="522" 
d="M386 -124l11 -83q-22 -8 -43.5 -12t-43.5 -4q-50 0 -77 21.5t-27 60.5q0 31 19 63t59 68h-19q-114 0 -168 67.5t-34 184.5l9 52q18 103 81.5 163t155.5 60q86 0 137 -45t51 -126q0 -32 -10 -64.5t-29 -63.5h-289q-8 -63 19.5 -93.5t91.5 -30.5q29 0 66.5 7t76.5 21
l16 -98q-67 -52 -97 -84t-30 -54q0 -9 6.5 -14t19.5 -5q10 0 21.5 2t26.5 7zM387 346q0 34 -21.5 52.5t-60.5 18.5q-46 0 -76.5 -28t-43.5 -83h195q4 11 5.5 20.5t1.5 19.5z" />
    <glyph glyph-name="Ecaron" unicode="&#x11a;" horiz-adv-x="536" 
d="M189 115h274l-20 -115h-394l120 680h384l-20 -115h-264l-29 -163h234l-20 -115h-234zM456 913h94l-124 -161h-112l-68 161h88l47 -80z" />
    <glyph glyph-name="ecaron" unicode="&#x11b;" horiz-adv-x="522" 
d="M423 122l16 -98q-46 -18 -87.5 -26t-86.5 -8q-114 0 -168 67.5t-34 184.5l9 52q18 103 81.5 163t155.5 60q86 0 137 -45t51 -126q0 -32 -10 -64.5t-29 -63.5h-289q-8 -63 19.5 -93.5t91.5 -30.5q29 0 66.5 7t76.5 21zM387 346q0 34 -21.5 52.5t-60.5 18.5
q-46 0 -76.5 -28t-43.5 -83h195q4 11 5.5 20.5t1.5 19.5zM405 740h94l-124 -161h-112l-68 161h88l47 -80z" />
    <glyph glyph-name="Gcircumflex" unicode="&#x11c;" horiz-adv-x="603" 
d="M581 374l-58 -331q-51 -26 -105.5 -39.5t-103.5 -13.5q-124 0 -186.5 81t-41.5 209l20 122q24 145 100 216.5t206 71.5q48 0 94.5 -10.5t94.5 -31.5l-45 -105q-45 18 -80.5 26t-68.5 8q-72 0 -118 -45.5t-60 -129.5l-20 -122q-14 -85 16.5 -131t102.5 -46q22 0 46 4.5
t54 13.5l26 148h-111l19 105h219zM563 752h-88l-47 80l-75 -80h-94l124 161h112z" />
    <glyph glyph-name="gcircumflex" unicode="&#x11d;" horiz-adv-x="560" 
d="M521 452l-78 -452q-21 -122 -76 -172.5t-158 -50.5q-39 0 -82.5 7.5t-88.5 22.5l25 98q36 -12 72.5 -19t67.5 -7q56 0 84.5 26t40.5 95l12 69q-43 -40 -83 -59.5t-78 -19.5q-74 0 -108.5 68t-17.5 178l7 44q19 119 79 178t162 59q57 0 114 -17t106 -48zM178 280l-7 -44
q-11 -69 1.5 -104t48.5 -35q31 0 66.5 24.5t73.5 71.5l35 200q-23 11 -43 16t-42 5q-55 0 -89 -34t-44 -100zM485 579h-88l-47 80l-75 -80h-94l124 161h112z" />
    <glyph glyph-name="Gbreve" unicode="&#x11e;" horiz-adv-x="603" 
d="M581 374l-58 -331q-51 -26 -105.5 -39.5t-103.5 -13.5q-124 0 -186.5 81t-41.5 209l20 122q24 145 100 216.5t206 71.5q48 0 94.5 -10.5t94.5 -31.5l-45 -105q-45 18 -80.5 26t-68.5 8q-72 0 -118 -45.5t-60 -129.5l-20 -122q-14 -85 16.5 -131t102.5 -46q22 0 46 4.5
t54 13.5l26 148h-111l19 105h219zM431 839q22 0 35.5 15.5t21.5 49.5h90q-18 -75 -54.5 -110.5t-97.5 -35.5q-65 0 -94.5 37t-21.5 109h84q-5 -33 4 -49t33 -16z" />
    <glyph glyph-name="gbreve" unicode="&#x11f;" horiz-adv-x="560" 
d="M521 452l-78 -452q-21 -122 -76 -172.5t-158 -50.5q-39 0 -82.5 7.5t-88.5 22.5l25 98q36 -12 72.5 -19t67.5 -7q56 0 84.5 26t40.5 95l12 69q-43 -40 -83 -59.5t-78 -19.5q-74 0 -108.5 68t-17.5 178l7 44q19 119 79 178t162 59q57 0 114 -17t106 -48zM178 280l-7 -44
q-11 -69 1.5 -104t48.5 -35q31 0 66.5 24.5t73.5 71.5l35 200q-23 11 -43 16t-42 5q-55 0 -89 -34t-44 -100zM355 666q22 0 35.5 15.5t21.5 49.5h90q-18 -75 -54.5 -110.5t-97.5 -35.5q-65 0 -94.5 37t-21.5 109h84q-5 -33 4 -49t33 -16z" />
    <glyph glyph-name="Gdotaccent" unicode="&#x120;" horiz-adv-x="603" 
d="M581 374l-58 -331q-51 -26 -105.5 -39.5t-103.5 -13.5q-124 0 -186.5 81t-41.5 209l20 122q24 145 100 216.5t206 71.5q48 0 94.5 -10.5t94.5 -31.5l-45 -105q-45 18 -80.5 26t-68.5 8q-72 0 -118 -45.5t-60 -129.5l-20 -122q-14 -85 16.5 -131t102.5 -46q22 0 46 4.5
t54 13.5l26 148h-111l19 105h219zM497 895l-21 -119h-121l21 119h121z" />
    <glyph glyph-name="gdotaccent" unicode="&#x121;" horiz-adv-x="560" 
d="M521 452l-78 -452q-21 -122 -76 -172.5t-158 -50.5q-39 0 -82.5 7.5t-88.5 22.5l25 98q36 -12 72.5 -19t67.5 -7q56 0 84.5 26t40.5 95l12 69q-43 -40 -83 -59.5t-78 -19.5q-74 0 -108.5 68t-17.5 178l7 44q19 119 79 178t162 59q57 0 114 -17t106 -48zM178 280l-7 -44
q-11 -69 1.5 -104t48.5 -35q31 0 66.5 24.5t73.5 71.5l35 200q-23 11 -43 16t-42 5q-55 0 -89 -34t-44 -100zM420 722l-21 -119h-121l21 119h121z" />
    <glyph glyph-name="Gcommaaccent" unicode="&#x122;" horiz-adv-x="603" 
d="M581 374l-58 -331q-51 -26 -105.5 -39.5t-103.5 -13.5q-124 0 -186.5 81t-41.5 209l20 122q24 145 100 216.5t206 71.5q48 0 94.5 -10.5t94.5 -31.5l-45 -105q-45 18 -80.5 26t-68.5 8q-72 0 -118 -45.5t-60 -129.5l-20 -122q-14 -85 16.5 -131t102.5 -46q22 0 46 4.5
t54 13.5l26 148h-111l19 105h219zM331 -77l-108 -179l-74 17l58 162h124z" />
    <glyph glyph-name="gcommaaccent" unicode="&#x123;" horiz-adv-x="560" 
d="M521 452l-78 -452q-21 -122 -76 -172.5t-158 -50.5q-39 0 -82.5 7.5t-88.5 22.5l25 98q36 -12 72.5 -19t67.5 -7q56 0 84.5 26t40.5 95l12 69q-43 -40 -83 -59.5t-78 -19.5q-74 0 -108.5 68t-17.5 178l7 44q19 119 79 178t162 59q57 0 114 -17t106 -48zM178 280l-7 -44
q-11 -69 1.5 -104t48.5 -35q31 0 66.5 24.5t73.5 71.5l35 200q-23 11 -43 16t-42 5q-55 0 -89 -34t-44 -100zM272 579l108 179l74 -17l-58 -162h-124z" />
    <glyph glyph-name="Hcircumflex" unicode="&#x124;" horiz-adv-x="682" 
d="M543 0h-120l51 287h-254l-51 -287h-120l120 680h120l-49 -278h254l49 278h120zM577 752h-88l-47 80l-75 -80h-94l124 161h112z" />
    <glyph glyph-name="hcircumflex" unicode="&#x125;" horiz-adv-x="584" 
d="M361 410q-31 0 -69.5 -23.5t-87.5 -72.5l-55 -314h-115l130 740h115l-55 -312q47 45 89.5 67t86.5 22q72 0 105.5 -52t18.5 -137l-58 -328h-115l57 326q8 41 -4 62.5t-43 21.5zM489 812h-88l-47 80l-75 -80h-94l124 161h112z" />
    <glyph glyph-name="Hbar" unicode="&#x126;" horiz-adv-x="700" 
d="M483 287h-254l-51 -287h-120l88 501h-82l16 87h82l16 92h120l-16 -92h254l16 92h120l-16 -92h82l-16 -87h-82l-88 -501h-120zM266 501l-17 -99h254l17 99h-254z" />
    <glyph glyph-name="hbar" unicode="&#x127;" horiz-adv-x="584" 
d="M361 410q-31 0 -69.5 -23.5t-87.5 -72.5l-55 -314h-115l104 590h-82l13 75h82l13 75h115l-13 -75h149l-13 -75h-149l-29 -162q47 45 89.5 67t86.5 22q72 0 105.5 -52t18.5 -137l-58 -328h-115l57 326q8 41 -4 62.5t-43 21.5z" />
    <glyph glyph-name="Itilde" unicode="&#x128;" horiz-adv-x="308" 
d="M289 680l-120 -680h-120l120 680h120zM310 761q-24 0 -42.5 10t-40.5 38q-10 14 -15.5 18t-10.5 4q-10 0 -16.5 -14.5t-13.5 -47.5h-81q13 79 40 116.5t72 37.5q24 0 42 -10t39 -38q10 -14 15.5 -18t10.5 -4q10 0 16.5 14.5t13.5 47.5h81q-13 -79 -39.5 -116.5
t-70.5 -37.5z" />
    <glyph glyph-name="itilde" unicode="&#x129;" horiz-adv-x="273" 
d="M238 507l-89 -507h-115l89 507h115zM264 588q-24 0 -42.5 10t-40.5 38q-10 14 -15.5 18t-10.5 4q-10 0 -16.5 -14.5t-13.5 -47.5h-81q13 79 40 116.5t72 37.5q24 0 42 -10t39 -38q10 -14 15.5 -18t10.5 -4q10 0 16.5 14.5t13.5 47.5h81q-13 -79 -39.5 -116.5t-70.5 -37.5
z" />
    <glyph glyph-name="Imacron" unicode="&#x12a;" horiz-adv-x="308" 
d="M289 680l-120 -680h-120l120 680h120zM108 865h303l-15 -83h-303z" />
    <glyph glyph-name="imacron" unicode="&#x12b;" horiz-adv-x="273" 
d="M238 507l-89 -507h-115l89 507h115zM62 692h303l-15 -83h-303z" />
    <glyph glyph-name="Ibreve" unicode="&#x12c;" horiz-adv-x="308" 
d="M289 680l-120 -680h-120l120 680h120zM259 839q22 0 35.5 15.5t21.5 49.5h90q-18 -75 -54.5 -110.5t-97.5 -35.5q-65 0 -94.5 37t-21.5 109h84q-5 -33 4 -49t33 -16z" />
    <glyph glyph-name="ibreve" unicode="&#x12d;" horiz-adv-x="273" 
d="M238 507l-89 -507h-115l89 507h115zM213 666q22 0 35.5 15.5t21.5 49.5h90q-18 -75 -54.5 -110.5t-97.5 -35.5q-65 0 -94.5 37t-21.5 109h84q-5 -33 4 -49t33 -16z" />
    <glyph glyph-name="Iogonek" unicode="&#x12e;" horiz-adv-x="308" 
d="M147 -124l11 -83q-22 -8 -43.5 -12t-43.5 -4q-50 0 -77 21.5t-27 60.5q0 32 20 65t61 68l121 688h120l-120 -680q-52 -43 -74 -68.5t-22 -45.5q0 -9 6.5 -14t19.5 -5q10 0 21.5 2t26.5 7z" />
    <glyph glyph-name="iogonek" unicode="&#x12f;" horiz-adv-x="273" 
d="M276 719l-20 -113h-115l20 113h115zM127 -124l11 -83q-22 -8 -43.5 -12t-43.5 -4q-50 0 -77 21.5t-27 60.5q0 33 21.5 67t65.5 71l89 510h115l-89 -507q-52 -43 -74 -68.5t-22 -45.5q0 -9 6.5 -14t19.5 -5q10 0 21.5 2t26.5 7z" />
    <glyph glyph-name="Idotaccent" unicode="&#x130;" horiz-adv-x="308" 
d="M289 680l-120 -680h-120l120 680h120zM325 895l-21 -119h-121l21 119h121z" />
    <glyph glyph-name="dotlessi" unicode="&#x131;" horiz-adv-x="273" 
d="M238 507l-89 -507h-115l89 507h115z" />
    <glyph glyph-name="IJ" unicode="&#x132;" horiz-adv-x="684" 
d="M289 680l-120 -680h-120l120 680h120zM287 -10l21 115q93 0 128.5 29t49.5 110l77 436h120l-77 -436q-26 -149 -95.5 -201.5t-223.5 -52.5z" />
    <glyph glyph-name="ij" unicode="&#x133;" horiz-adv-x="546" 
d="M279 722l-21 -119h-121l21 119h121zM238 507l-89 -507h-115l89 507h115zM552 722l-21 -119h-121l21 119h121zM164 -223l19 108q54 0 83.5 26.5t39.5 84.5l90 511h115l-90 -511q-22 -124 -81 -171.5t-176 -47.5z" />
    <glyph glyph-name="Jcircumflex" unicode="&#x134;" horiz-adv-x="376" 
d="M-21 -10l21 115q93 0 128.5 29t49.5 110l77 436h120l-77 -436q-26 -149 -95.5 -201.5t-223.5 -52.5zM476 752h-88l-47 80l-75 -80h-94l124 161h112z" />
    <glyph glyph-name="jcircumflex" unicode="&#x135;" horiz-adv-x="273" 
d="M-109 -223l19 108q54 0 83.5 26.5t39.5 84.5l90 511h115l-90 -511q-22 -124 -81 -171.5t-176 -47.5zM345 579h-88l-47 80l-75 -80h-94l124 161h112z" />
    <glyph glyph-name="Kcommaaccent" unicode="&#x136;" horiz-adv-x="614" 
d="M553 0h-137l-119 303q-11 -10 -23.5 -22t-65.5 -59l-39 -222h-120l120 680h120l-55 -313q86 82 152.5 158.5t118.5 154.5h138q-57 -82 -119.5 -157t-131.5 -144zM336 -77l-108 -179l-74 17l58 162h124z" />
    <glyph glyph-name="kcommaaccent" unicode="&#x137;" horiz-adv-x="532" 
d="M476 0h-134l-91 214q-16 -14 -34 -29t-41 -32l-27 -153h-115l130 740h115l-80 -455q68 59 117 111t92 111h137q-38 -53 -85 -106t-113 -118zM289 -77l-108 -179l-74 17l58 162h124z" />
    <glyph glyph-name="kgreenlandic" unicode="&#x138;" horiz-adv-x="532" 
d="M476 0h-134l-91 214q-16 -14 -34 -29t-41 -32l-27 -153h-115l89 507h115l-39 -222q71 61 119.5 112.5t89.5 109.5h137q-38 -53 -85 -106t-113 -118z" />
    <glyph glyph-name="Lacute" unicode="&#x139;" horiz-adv-x="507" 
d="M189 115h272l-20 -115h-392l120 680h120zM415 872l-124 -120h-106l125 166z" />
    <glyph glyph-name="lacute" unicode="&#x13a;" horiz-adv-x="276" 
d="M66 148l104 592h115l-105 -597q-3 -20 6 -31t28 -11h12l-19 -106h-19q-73 0 -104 39.5t-18 113.5zM404 932l-124 -120h-106l125 166z" />
    <glyph glyph-name="Lcommaaccent" unicode="&#x13b;" horiz-adv-x="507" 
d="M189 115h272l-20 -115h-392l120 680h120zM297 -77l-108 -179l-74 17l58 162h124z" />
    <glyph glyph-name="lcommaaccent" unicode="&#x13c;" horiz-adv-x="276" 
d="M66 148l104 592h115l-105 -597q-3 -20 6 -31t28 -11h12l-19 -106h-19q-73 0 -104 39.5t-18 113.5zM171 -77l-108 -179l-74 17l58 162h124z" />
    <glyph glyph-name="Lcaron" unicode="&#x13d;" horiz-adv-x="507" 
d="M189 115h272l-20 -115h-392l120 680h120zM477 680l-70 -194h-77l34 194h113z" />
    <glyph glyph-name="lcaron" unicode="&#x13e;" horiz-adv-x="360" 
d="M66 148l104 592h115l-105 -597q-3 -20 6 -31t28 -11h12l-19 -106h-19q-73 0 -104 39.5t-18 113.5zM467 740l-70 -194h-77l34 194h113z" />
    <glyph glyph-name="Ldot" unicode="&#x13f;" horiz-adv-x="507" 
d="M189 115h272l-20 -115h-392l120 680h120zM501 444l-21 -119h-121l21 119h121z" />
    <glyph glyph-name="ldot" unicode="&#x140;" horiz-adv-x="336" 
d="M66 148l104 592h115l-105 -597q-3 -20 6 -31t28 -11h12l-19 -106h-19q-73 0 -104 39.5t-18 113.5zM395 444l-21 -119h-121l21 119h121z" />
    <glyph glyph-name="Lslash" unicode="&#x141;" horiz-adv-x="517" 
d="M199 115h272l-20 -115h-392l46 259l-88 -37l20 124l90 38l52 296h120l-43 -242l129 54l-20 -124l-131 -55z" />
    <glyph glyph-name="lslash" unicode="&#x142;" horiz-adv-x="329" 
d="M234 101h12l-19 -106h-19q-73 0 -104 39.5t-18 113.5l25 145l-89 -43l20 113l89 42l59 335h115l-48 -275l92 44l-20 -113l-92 -44l-37 -209q-3 -20 6 -31t28 -11z" />
    <glyph glyph-name="Nacute" unicode="&#x143;" horiz-adv-x="683" 
d="M164 0h-115l120 680h110q66 -133 111 -240.5t87 -230.5l26 211l46 260h115l-120 -680h-110q-40 133 -86.5 254.5t-103.5 246.5l-34 -241zM604 872l-124 -120h-106l125 166z" />
    <glyph glyph-name="nacute" unicode="&#x144;" horiz-adv-x="584" 
d="M361 410q-31 0 -69.5 -23.5t-87.5 -72.5l-55 -314h-115l89 507h109l-15 -86q48 49 92.5 72.5t90.5 23.5q72 0 105.5 -52t18.5 -137l-58 -328h-115l57 326q8 41 -4 62.5t-43 21.5zM534 699l-124 -120h-106l125 166z" />
    <glyph glyph-name="Ncommaaccent" unicode="&#x145;" horiz-adv-x="683" 
d="M164 0h-115l120 680h110q66 -133 111 -240.5t87 -230.5l26 211l46 260h115l-120 -680h-110q-40 133 -86.5 254.5t-103.5 246.5l-34 -241zM345 -77l-108 -179l-74 17l58 162h124z" />
    <glyph glyph-name="ncommaaccent" unicode="&#x146;" horiz-adv-x="584" 
d="M361 410q-31 0 -69.5 -23.5t-87.5 -72.5l-55 -314h-115l89 507h109l-15 -86q48 49 92.5 72.5t90.5 23.5q72 0 105.5 -52t18.5 -137l-58 -328h-115l57 326q8 41 -4 62.5t-43 21.5zM296 -77l-108 -179l-74 17l58 162h124z" />
    <glyph glyph-name="Ncaron" unicode="&#x147;" horiz-adv-x="683" 
d="M164 0h-115l120 680h110q66 -133 111 -240.5t87 -230.5l26 211l46 260h115l-120 -680h-110q-40 133 -86.5 254.5t-103.5 246.5l-34 -241zM511 913h94l-124 -161h-112l-68 161h88l47 -80z" />
    <glyph glyph-name="ncaron" unicode="&#x148;" horiz-adv-x="584" 
d="M361 410q-31 0 -69.5 -23.5t-87.5 -72.5l-55 -314h-115l89 507h109l-15 -86q48 49 92.5 72.5t90.5 23.5q72 0 105.5 -52t18.5 -137l-58 -328h-115l57 326q8 41 -4 62.5t-43 21.5zM442 740h94l-124 -161h-112l-68 161h88l47 -80z" />
    <glyph glyph-name="napostrophe" unicode="&#x149;" horiz-adv-x="723" 
d="M500 410q-31 0 -69.5 -23.5t-87.5 -72.5l-55 -314h-115l89 507h109l-15 -86q48 49 92.5 72.5t90.5 23.5q72 0 105.5 -52t18.5 -137l-58 -328h-115l57 326q8 41 -4 62.5t-43 21.5zM131 681h112l-3 -19q-14 -74 -47 -140t-95 -143l-65 39q44 73 63.5 125t34.5 138z" />
    <glyph glyph-name="Eng" unicode="&#x14a;" horiz-adv-x="683" 
d="M164 0h-115l120 680h110q66 -133 111 -240.5t87 -230.5l26 211l46 260h115l-115 -649q-26 -148 -95.5 -201t-223.5 -53l21 115q89 0 125.5 27.5t50.5 102.5q-40 128 -84.5 245t-98.5 234l-34 -241z" />
    <glyph glyph-name="eng" unicode="&#x14b;" horiz-adv-x="584" 
d="M524 328l-59 -332q-22 -125 -80.5 -172t-176.5 -47l19 108q55 0 84 26.5t39 84.5l58 330q7 42 -4.5 63t-42.5 21t-69.5 -23.5t-87.5 -72.5l-55 -314h-115l89 507h109l-15 -86q48 49 92.5 72.5t90.5 23.5q73 0 106.5 -52t17.5 -137z" />
    <glyph glyph-name="Omacron" unicode="&#x14c;" horiz-adv-x="640" 
d="M397 690q120 0 182 -81t39 -207l-22 -123q-26 -144 -98.5 -216.5t-189.5 -72.5q-121 0 -183 80.5t-39 208.5l22 123q25 142 98.5 215t190.5 73zM473 279l22 123q15 83 -12.5 129t-93.5 46q-63 0 -103 -44.5t-55 -130.5l-22 -123q-15 -85 12 -130.5t93 -45.5
q64 0 103.5 43.5t55.5 132.5zM274 865h303l-15 -83h-303z" />
    <glyph glyph-name="omacron" unicode="&#x14d;" horiz-adv-x="545" 
d="M311 517q106 0 161 -70t38 -181l-8 -52q-16 -107 -79 -165.5t-162 -58.5q-106 0 -161 70.5t-37 181.5l8 52q17 107 79 165t161 58zM384 214l9 57q11 66 -12 104.5t-74 38.5q-47 0 -78 -31.5t-40 -88.5l-9 -57q-11 -66 12.5 -105t73.5 -39q46 0 77.5 32t40.5 89zM190 692
h303l-15 -83h-303z" />
    <glyph glyph-name="Obreve" unicode="&#x14e;" horiz-adv-x="640" 
d="M397 690q120 0 182 -81t39 -207l-22 -123q-26 -144 -98.5 -216.5t-189.5 -72.5q-121 0 -183 80.5t-39 208.5l22 123q25 142 98.5 215t190.5 73zM473 279l22 123q15 83 -12.5 129t-93.5 46q-63 0 -103 -44.5t-55 -130.5l-22 -123q-15 -85 12 -130.5t93 -45.5
q64 0 103.5 43.5t55.5 132.5zM425 839q22 0 35.5 15.5t21.5 49.5h90q-18 -75 -54.5 -110.5t-97.5 -35.5q-65 0 -94.5 37t-21.5 109h84q-5 -33 4 -49t33 -16z" />
    <glyph glyph-name="obreve" unicode="&#x14f;" horiz-adv-x="545" 
d="M311 517q106 0 161 -70t38 -181l-8 -52q-16 -107 -79 -165.5t-162 -58.5q-106 0 -161 70.5t-37 181.5l8 52q17 107 79 165t161 58zM384 214l9 57q11 66 -12 104.5t-74 38.5q-47 0 -78 -31.5t-40 -88.5l-9 -57q-11 -66 12.5 -105t73.5 -39q46 0 77.5 32t40.5 89zM341 666
q22 0 35.5 15.5t21.5 49.5h90q-18 -75 -54.5 -110.5t-97.5 -35.5q-65 0 -94.5 37t-21.5 109h84q-5 -33 4 -49t33 -16z" />
    <glyph glyph-name="Ohungarumlaut" unicode="&#x150;" horiz-adv-x="640" 
d="M397 690q120 0 182 -81t39 -207l-22 -123q-26 -144 -98.5 -216.5t-189.5 -72.5q-121 0 -183 80.5t-39 208.5l22 123q25 142 98.5 215t190.5 73zM473 279l22 123q15 83 -12.5 129t-93.5 46q-63 0 -103 -44.5t-55 -130.5l-22 -123q-15 -85 12 -130.5t93 -45.5
q64 0 103.5 43.5t55.5 132.5zM472 872l-94 -120h-96l105 166zM622 872l-94 -120h-96l105 166z" />
    <glyph glyph-name="ohungarumlaut" unicode="&#x151;" horiz-adv-x="545" 
d="M311 517q106 0 161 -70t38 -181l-8 -52q-16 -107 -79 -165.5t-162 -58.5q-106 0 -161 70.5t-37 181.5l8 52q17 107 79 165t161 58zM384 214l9 57q11 66 -12 104.5t-74 38.5q-47 0 -78 -31.5t-40 -88.5l-9 -57q-11 -66 12.5 -105t73.5 -39q46 0 77.5 32t40.5 89zM388 699
l-94 -120h-96l105 166zM538 699l-94 -120h-96l105 166z" />
    <glyph glyph-name="OE" unicode="&#x152;" horiz-adv-x="867" 
d="M85 278l22 123q24 138 97 208.5t191 70.5h505l-20 -115h-264l-29 -163h234l-20 -115h-234l-31 -172h274l-20 -115h-484q-119 0 -180.5 78t-40.5 200zM314 115h102l80 450h-107q-65 0 -104.5 -41t-54.5 -123l-22 -123q-14 -78 13.5 -120.5t92.5 -42.5z" />
    <glyph glyph-name="oe" unicode="&#x153;" horiz-adv-x="848" 
d="M747 122l16 -98q-45 -17 -85.5 -25.5t-79.5 -8.5q-60 0 -103 21t-67 62q-31 -41 -74 -62t-97 -21q-103 0 -157.5 70.5t-37.5 181.5l8 52q16 107 77.5 165t157.5 58q55 0 97 -23t65 -66q31 44 74.5 66.5t96.5 22.5q79 0 131 -46t52 -125q0 -32 -10 -64.5t-29 -63.5h-289
q-8 -63 19.5 -93.5t91.5 -30.5q29 0 66.5 7t76.5 21zM708 346q0 34 -21 52.5t-58 18.5q-46 0 -76.5 -28t-43.5 -83h192q4 11 5.5 20.5t1.5 19.5zM383 214l9 57q11 66 -12 104.5t-74 38.5q-47 0 -78 -31.5t-40 -88.5l-9 -57q-11 -66 12.5 -105t73.5 -39q46 0 77.5 32t40.5 89
z" />
    <glyph glyph-name="Racute" unicode="&#x154;" horiz-adv-x="609" 
d="M169 0h-120l120 680h214q104 0 156 -57t35 -150l-8 -45q-10 -56 -41.5 -96.5t-81.5 -61.5q29 -67 51.5 -134.5t38.5 -135.5h-130q-14 63 -32.5 126t-42.5 124h-115zM377 570h-107l-37 -210h106q43 0 70.5 19.5t34.5 55.5l8 43q8 43 -11.5 67.5t-63.5 24.5zM567 872
l-124 -120h-106l125 166z" />
    <glyph glyph-name="racute" unicode="&#x155;" horiz-adv-x="387" 
d="M411 517l-20 -115q-55 0 -99 -21t-87 -64l-56 -317h-115l89 507h109l-15 -87q49 49 96.5 73t97.5 24zM454 699l-124 -120h-106l125 166z" />
    <glyph glyph-name="Rcommaaccent" unicode="&#x156;" horiz-adv-x="609" 
d="M169 0h-120l120 680h214q104 0 156 -57t35 -150l-8 -45q-10 -56 -41.5 -96.5t-81.5 -61.5q29 -67 51.5 -134.5t38.5 -135.5h-130q-14 63 -32.5 126t-42.5 124h-115zM377 570h-107l-37 -210h106q43 0 70.5 19.5t34.5 55.5l8 43q8 43 -11.5 67.5t-63.5 24.5zM333 -77
l-108 -179l-74 17l58 162h124z" />
    <glyph glyph-name="rcommaaccent" unicode="&#x157;" horiz-adv-x="387" 
d="M411 517l-20 -115q-55 0 -99 -21t-87 -64l-56 -317h-115l89 507h109l-15 -87q49 49 96.5 73t97.5 24zM139 -77l-108 -179l-74 17l58 162h124z" />
    <glyph glyph-name="Rcaron" unicode="&#x158;" horiz-adv-x="609" 
d="M169 0h-120l120 680h214q104 0 156 -57t35 -150l-8 -45q-10 -56 -41.5 -96.5t-81.5 -61.5q29 -67 51.5 -134.5t38.5 -135.5h-130q-14 63 -32.5 126t-42.5 124h-115zM377 570h-107l-37 -210h106q43 0 70.5 19.5t34.5 55.5l8 43q8 43 -11.5 67.5t-63.5 24.5zM475 913h94
l-124 -161h-112l-68 161h88l47 -80z" />
    <glyph glyph-name="rcaron" unicode="&#x159;" horiz-adv-x="387" 
d="M411 517l-20 -115q-55 0 -99 -21t-87 -64l-56 -317h-115l89 507h109l-15 -87q49 49 96.5 73t97.5 24zM361 740h94l-124 -161h-112l-68 161h88l47 -80z" />
    <glyph glyph-name="Sacute" unicode="&#x15a;" horiz-adv-x="518" 
d="M211 101q63 0 96.5 24t33.5 69q0 27 -15.5 46t-51.5 35l-73 33q-61 27 -89.5 69t-28.5 104q0 98 62.5 153.5t176.5 55.5q43 0 85.5 -10.5t95.5 -33.5l-42 -103q-50 21 -79.5 28.5t-59.5 7.5q-56 0 -84.5 -22t-28.5 -65q0 -26 14.5 -43.5t51.5 -34.5l73 -33q61 -28 90 -71
t29 -106q0 -100 -67 -157t-189 -57q-54 0 -104.5 12.5t-104.5 38.5l42 103q52 -24 89 -33.5t78 -9.5zM528 872l-124 -120h-106l125 166z" />
    <glyph glyph-name="sacute" unicode="&#x15b;" horiz-adv-x="461" 
d="M201 91q43 0 64.5 12.5t21.5 37.5q0 19 -13.5 32t-45.5 24l-55 19q-54 19 -81 54.5t-27 89.5q0 74 50 115.5t142 41.5q41 0 81 -8.5t84 -27.5l-37 -98q-36 17 -68.5 25t-62.5 8q-37 0 -55.5 -11.5t-18.5 -35.5q0 -18 12 -29.5t39 -21.5l55 -19q58 -20 86.5 -56t28.5 -90
q0 -77 -53.5 -120t-152.5 -43q-47 0 -91 9.5t-90 30.5l36 98q42 -19 78.5 -28t72.5 -9zM460 699l-124 -120h-106l125 166z" />
    <glyph glyph-name="Scircumflex" unicode="&#x15c;" horiz-adv-x="518" 
d="M211 101q63 0 96.5 24t33.5 69q0 27 -15.5 46t-51.5 35l-73 33q-61 27 -89.5 69t-28.5 104q0 98 62.5 153.5t176.5 55.5q43 0 85.5 -10.5t95.5 -33.5l-42 -103q-50 21 -79.5 28.5t-59.5 7.5q-56 0 -84.5 -22t-28.5 -65q0 -26 14.5 -43.5t51.5 -34.5l73 -33q61 -28 90 -71
t29 -106q0 -100 -67 -157t-189 -57q-54 0 -104.5 12.5t-104.5 38.5l42 103q52 -24 89 -33.5t78 -9.5zM503 752h-88l-47 80l-75 -80h-94l124 161h112z" />
    <glyph glyph-name="scircumflex" unicode="&#x15d;" horiz-adv-x="461" 
d="M201 91q43 0 64.5 12.5t21.5 37.5q0 19 -13.5 32t-45.5 24l-55 19q-54 19 -81 54.5t-27 89.5q0 74 50 115.5t142 41.5q41 0 81 -8.5t84 -27.5l-37 -98q-36 17 -68.5 25t-62.5 8q-37 0 -55.5 -11.5t-18.5 -35.5q0 -18 12 -29.5t39 -21.5l55 -19q58 -20 86.5 -56t28.5 -90
q0 -77 -53.5 -120t-152.5 -43q-47 0 -91 9.5t-90 30.5l36 98q42 -19 78.5 -28t72.5 -9zM434 579h-88l-47 80l-75 -80h-94l124 161h112z" />
    <glyph glyph-name="Scedilla" unicode="&#x15e;" horiz-adv-x="518" 
d="M303 -117q0 -47 -37 -76.5t-98 -29.5q-19 0 -37.5 3t-47.5 12l17 69q19 -5 37.5 -8t31.5 -3q21 0 33 7.5t12 19.5q0 10 -9 15.5t-26 5.5q-6 0 -12 -0.5t-16 -2.5l-19 32l23 66q-38 5 -75.5 16.5t-77.5 31.5l42 103q52 -24 89 -33.5t78 -9.5q63 0 96.5 24t33.5 69
q0 27 -15.5 46t-51.5 35l-73 33q-61 27 -89.5 69t-28.5 104q0 98 62.5 153.5t176.5 55.5q43 0 85.5 -10.5t95.5 -33.5l-42 -103q-50 21 -79.5 28.5t-59.5 7.5q-56 0 -84.5 -22t-28.5 -65q0 -26 14.5 -43.5t51.5 -34.5l73 -33q61 -28 90 -71t29 -106q0 -96 -61.5 -152.5
t-174.5 -61.5l-11 -29q38 -3 60.5 -24.5t22.5 -53.5z" />
    <glyph glyph-name="scedilla" unicode="&#x15f;" horiz-adv-x="461" 
d="M285 -117q0 -47 -37 -76.5t-98 -29.5q-19 0 -37.5 3t-47.5 12l17 69q19 -5 37.5 -8t31.5 -3q21 0 33 7.5t12 19.5q0 10 -9 15.5t-26 5.5q-6 0 -12 -0.5t-16 -2.5l-19 32l23 67q-29 4 -59.5 12.5t-63.5 23.5l36 98q42 -19 78.5 -28t72.5 -9q43 0 64.5 12.5t21.5 37.5
q0 19 -13.5 32t-45.5 24l-55 19q-54 19 -81 54.5t-27 89.5q0 74 50 115.5t142 41.5q41 0 81 -8.5t84 -27.5l-37 -98q-36 17 -68.5 25t-62.5 8q-37 0 -55.5 -11.5t-18.5 -35.5q0 -18 12 -29.5t39 -21.5l55 -19q58 -20 86.5 -56t28.5 -90q0 -73 -49 -116t-139 -47l-11 -29
q38 -3 60.5 -24.5t22.5 -53.5z" />
    <glyph glyph-name="Scaron" unicode="&#x160;" horiz-adv-x="518" 
d="M211 101q63 0 96.5 24t33.5 69q0 27 -15.5 46t-51.5 35l-73 33q-61 27 -89.5 69t-28.5 104q0 98 62.5 153.5t176.5 55.5q43 0 85.5 -10.5t95.5 -33.5l-42 -103q-50 21 -79.5 28.5t-59.5 7.5q-56 0 -84.5 -22t-28.5 -65q0 -26 14.5 -43.5t51.5 -34.5l73 -33q61 -28 90 -71
t29 -106q0 -100 -67 -157t-189 -57q-54 0 -104.5 12.5t-104.5 38.5l42 103q52 -24 89 -33.5t78 -9.5zM437 913h94l-124 -161h-112l-68 161h88l47 -80z" />
    <glyph glyph-name="scaron" unicode="&#x161;" horiz-adv-x="461" 
d="M201 91q43 0 64.5 12.5t21.5 37.5q0 19 -13.5 32t-45.5 24l-55 19q-54 19 -81 54.5t-27 89.5q0 74 50 115.5t142 41.5q41 0 81 -8.5t84 -27.5l-37 -98q-36 17 -68.5 25t-62.5 8q-37 0 -55.5 -11.5t-18.5 -35.5q0 -18 12 -29.5t39 -21.5l55 -19q58 -20 86.5 -56t28.5 -90
q0 -77 -53.5 -120t-152.5 -43q-47 0 -91 9.5t-90 30.5l36 98q42 -19 78.5 -28t72.5 -9zM368 740h94l-124 -161h-112l-68 161h88l47 -80z" />
    <glyph glyph-name="uni0162" unicode="&#x162;" horiz-adv-x="526" 
d="M258 565h-190l20 115h500l-20 -115h-190l-100 -565h-120zM266 -77l-108 -179l-74 17l58 162h124z" />
    <glyph glyph-name="uni0163" unicode="&#x163;" horiz-adv-x="400" 
d="M327 112l17 -101q-24 -10 -57 -15.5t-65 -5.5q-83 0 -119.5 47.5t-21.5 131.5l42 238h-82l17 100h83l23 132h115l-23 -132h157l-17 -100h-158l-42 -238q-6 -38 6 -54.5t46 -16.5q19 0 39.5 3.5t39.5 10.5zM243 -77l-108 -179l-74 17l58 162h124z" />
    <glyph glyph-name="Tcaron" unicode="&#x164;" horiz-adv-x="526" 
d="M258 565h-190l20 115h500l-20 -115h-190l-100 -565h-120zM433 913h94l-124 -161h-112l-68 161h88l47 -80z" />
    <glyph glyph-name="tcaron" unicode="&#x165;" horiz-adv-x="398" 
d="M327 112l17 -101q-24 -10 -57 -15.5t-65 -5.5q-83 0 -119.5 47.5t-21.5 131.5l42 238h-82l17 100h83l23 132h115l-23 -132h157l-17 -100h-158l-42 -238q-6 -38 6 -54.5t46 -16.5q19 0 39.5 3.5t39.5 10.5zM479 765l-70 -194h-77l34 194h113z" />
    <glyph glyph-name="Tbar" unicode="&#x166;" horiz-adv-x="526" 
d="M456 377l-19 -109h-112l-47 -268h-120l47 268h-112l19 109h113l33 188h-190l20 115h500l-20 -115h-190l-33 -188h111z" />
    <glyph glyph-name="tbar" unicode="&#x167;" horiz-adv-x="420" 
d="M345 112l17 -101q-24 -10 -57 -15.5t-65 -5.5q-83 0 -119.5 47.5t-21.5 131.5l10 58h-82l13 75h82l19 105h-82l17 100h83l23 132h115l-23 -132h157l-17 -100h-158l-19 -105h119l-13 -75h-119l-10 -58q-6 -38 6 -54.5t46 -16.5q19 0 39.5 3.5t39.5 10.5z" />
    <glyph glyph-name="Utilde" unicode="&#x168;" horiz-adv-x="646" 
d="M91 244l77 436h123l-77 -436q-12 -70 12.5 -105.5t84.5 -35.5q61 0 98 35.5t49 105.5l77 436h123l-77 -436q-23 -130 -90.5 -192t-183.5 -62q-119 0 -177.5 69.5t-38.5 184.5zM479 761q-24 0 -42.5 10t-40.5 38q-10 14 -15.5 18t-10.5 4q-10 0 -16.5 -14.5t-13.5 -47.5
h-81q13 79 40 116.5t72 37.5q24 0 42 -10t39 -38q10 -14 15.5 -18t10.5 -4q10 0 16.5 14.5t13.5 47.5h81q-13 -79 -39.5 -116.5t-70.5 -37.5z" />
    <glyph glyph-name="utilde" unicode="&#x169;" horiz-adv-x="570" 
d="M457 0h-109l15 86q-48 -49 -90.5 -72.5t-85.5 -23.5q-69 0 -101 52t-16 137l58 328h115l-57 -326q-7 -41 3 -62.5t37 -21.5q28 0 64.5 23.5t85.5 72.5l55 314h115zM408 588q-24 0 -42.5 10t-40.5 38q-10 14 -15.5 18t-10.5 4q-10 0 -16.5 -14.5t-13.5 -47.5h-81
q13 79 40 116.5t72 37.5q24 0 42 -10t39 -38q10 -14 15.5 -18t10.5 -4q10 0 16.5 14.5t13.5 47.5h81q-13 -79 -39.5 -116.5t-70.5 -37.5z" />
    <glyph glyph-name="Umacron" unicode="&#x16a;" horiz-adv-x="646" 
d="M91 244l77 436h123l-77 -436q-12 -70 12.5 -105.5t84.5 -35.5q61 0 98 35.5t49 105.5l77 436h123l-77 -436q-23 -130 -90.5 -192t-183.5 -62q-119 0 -177.5 69.5t-38.5 184.5zM276 865h303l-15 -83h-303z" />
    <glyph glyph-name="umacron" unicode="&#x16b;" horiz-adv-x="570" 
d="M457 0h-109l15 86q-48 -49 -90.5 -72.5t-85.5 -23.5q-69 0 -101 52t-16 137l58 328h115l-57 -326q-7 -41 3 -62.5t37 -21.5q28 0 64.5 23.5t85.5 72.5l55 314h115zM206 692h303l-15 -83h-303z" />
    <glyph glyph-name="Ubreve" unicode="&#x16c;" horiz-adv-x="646" 
d="M91 244l77 436h123l-77 -436q-12 -70 12.5 -105.5t84.5 -35.5q61 0 98 35.5t49 105.5l77 436h123l-77 -436q-23 -130 -90.5 -192t-183.5 -62q-119 0 -177.5 69.5t-38.5 184.5zM428 839q22 0 35.5 15.5t21.5 49.5h90q-18 -75 -54.5 -110.5t-97.5 -35.5q-65 0 -94.5 37
t-21.5 109h84q-5 -33 4 -49t33 -16z" />
    <glyph glyph-name="ubreve" unicode="&#x16d;" horiz-adv-x="570" 
d="M457 0h-109l15 86q-48 -49 -90.5 -72.5t-85.5 -23.5q-69 0 -101 52t-16 137l58 328h115l-57 -326q-7 -41 3 -62.5t37 -21.5q28 0 64.5 23.5t85.5 72.5l55 314h115zM357 666q22 0 35.5 15.5t21.5 49.5h90q-18 -75 -54.5 -110.5t-97.5 -35.5q-65 0 -94.5 37t-21.5 109h84
q-5 -33 4 -49t33 -16z" />
    <glyph glyph-name="Uring" unicode="&#x16e;" horiz-adv-x="646" 
d="M91 244l77 436h123l-77 -436q-12 -70 12.5 -105.5t84.5 -35.5q61 0 98 35.5t49 105.5l77 436h123l-77 -436q-23 -130 -90.5 -192t-183.5 -62q-119 0 -177.5 69.5t-38.5 184.5zM448 976q56 0 86.5 -34.5t19.5 -86.5l-3 -15q-9 -48 -44.5 -76t-86.5 -28q-56 0 -85.5 33.5
t-19.5 86.5l3 15q10 49 44.5 77t85.5 28zM482 849l3 15q4 21 -7.5 33.5t-34.5 12.5q-21 0 -36 -12.5t-20 -33.5l-3 -15q-4 -21 6.5 -33.5t33.5 -12.5q22 0 37.5 12.5t20.5 33.5z" />
    <glyph glyph-name="uring" unicode="&#x16f;" horiz-adv-x="570" 
d="M457 0h-109l15 86q-48 -49 -90.5 -72.5t-85.5 -23.5q-69 0 -101 52t-16 137l58 328h115l-57 -326q-7 -41 3 -62.5t37 -21.5q28 0 64.5 23.5t85.5 72.5l55 314h115zM377 803q56 0 86.5 -34.5t19.5 -86.5l-3 -15q-9 -48 -44.5 -76t-86.5 -28q-56 0 -85.5 33.5t-19.5 86.5
l3 15q10 49 44.5 77t85.5 28zM411 676l3 15q4 21 -7.5 33.5t-34.5 12.5q-21 0 -36 -12.5t-20 -33.5l-3 -15q-4 -21 6.5 -33.5t33.5 -12.5q22 0 37.5 12.5t20.5 33.5z" />
    <glyph glyph-name="Uhungarumlaut" unicode="&#x170;" horiz-adv-x="646" 
d="M91 244l77 436h123l-77 -436q-12 -70 12.5 -105.5t84.5 -35.5q61 0 98 35.5t49 105.5l77 436h123l-77 -436q-23 -130 -90.5 -192t-183.5 -62q-119 0 -177.5 69.5t-38.5 184.5zM475 872l-94 -120h-96l105 166zM625 872l-94 -120h-96l105 166z" />
    <glyph glyph-name="uhungarumlaut" unicode="&#x171;" horiz-adv-x="570" 
d="M457 0h-109l15 86q-48 -49 -90.5 -72.5t-85.5 -23.5q-69 0 -101 52t-16 137l58 328h115l-57 -326q-7 -41 3 -62.5t37 -21.5q28 0 64.5 23.5t85.5 72.5l55 314h115zM404 699l-94 -120h-96l105 166zM554 699l-94 -120h-96l105 166z" />
    <glyph glyph-name="Uogonek" unicode="&#x172;" horiz-adv-x="646" 
d="M380 -124l11 -83q-22 -8 -43.5 -12t-43.5 -4q-50 0 -77 21.5t-27 60.5q0 31 21.5 62t67.5 69q-111 6 -164.5 74.5t-34.5 179.5l77 436h123l-77 -436q-12 -70 12.5 -105.5t84.5 -35.5q61 0 98 35.5t49 105.5l77 436h123l-77 -436q-13 -74 -40 -125.5t-68 -80.5
q-112 -80 -139 -105t-27 -47q0 -9 6.5 -14t19.5 -5q10 0 21.5 2t26.5 7z" />
    <glyph glyph-name="uogonek" unicode="&#x173;" horiz-adv-x="570" 
d="M418 -124l11 -83q-22 -8 -43.5 -12t-43.5 -4q-50 0 -77 21.5t-27 60.5q0 36 27 71.5t84 77.5l14 78q-48 -49 -90.5 -72.5t-85.5 -23.5q-69 0 -101 52t-16 137l58 328h115l-57 -326q-7 -41 3 -62.5t37 -21.5q28 0 64.5 23.5t85.5 72.5l55 314h115l-89 -507
q-64 -46 -88.5 -70.5t-24.5 -43.5q0 -9 6.5 -14t19.5 -5q10 0 21.5 2t26.5 7z" />
    <glyph glyph-name="Wcircumflex" unicode="&#x174;" horiz-adv-x="867" 
d="M228 680l4 -269l-6 -252l228 521h108l44 -516l85 247l100 269h125l-273 -680h-123l-42 506l-221 -506h-123l-33 680h127zM669 752h-88l-47 80l-75 -80h-94l124 161h112z" />
    <glyph glyph-name="wcircumflex" unicode="&#x175;" horiz-adv-x="737" 
d="M637 507h117l-219 -507h-125l-16 381l-157 -381h-125l-41 507h112l14 -201l1 -191l157 392h116l20 -381l63 179zM577 579h-88l-47 80l-75 -80h-94l124 161h112z" />
    <glyph glyph-name="Ycircumflex" unicode="&#x176;" horiz-adv-x="544" 
d="M485 680h131l-279 -406l-49 -274h-120l48 271l-138 409h124l93 -289zM508 752h-88l-47 80l-75 -80h-94l124 161h112z" />
    <glyph glyph-name="ycircumflex" unicode="&#x177;" horiz-adv-x="499" 
d="M257 0l-27 -50q-50 -93 -108.5 -133t-145.5 -40l20 115q59 5 86.5 21.5t52.5 61.5l16 30l-90 502h114l43 -253l15 -105l51 105l127 253h115zM457 579h-88l-47 80l-75 -80h-94l124 161h112z" />
    <glyph glyph-name="Ydieresis" unicode="&#x178;" horiz-adv-x="544" 
d="M485 680h131l-279 -406l-49 -274h-120l48 271l-138 409h124l93 -289zM339 889l-19 -107h-109l19 107h109zM533 889l-19 -107h-109l19 107h109z" />
    <glyph glyph-name="Zacute" unicode="&#x179;" horiz-adv-x="509" 
d="M163 115h285l-20 -115h-435l19 105l356 460h-265l20 115h415l-19 -105zM516 872l-124 -120h-106l125 166z" />
    <glyph glyph-name="zacute" unicode="&#x17a;" horiz-adv-x="432" 
d="M151 100h219l-18 -100h-362l16 90l265 317h-199l17 100h342l-15 -90zM444 699l-124 -120h-106l125 166z" />
    <glyph glyph-name="Zdotaccent" unicode="&#x17b;" horiz-adv-x="509" 
d="M163 115h285l-20 -115h-435l19 105l356 460h-265l20 115h415l-19 -105zM425 895l-21 -119h-121l21 119h121z" />
    <glyph glyph-name="zdotaccent" unicode="&#x17c;" horiz-adv-x="432" 
d="M151 100h219l-18 -100h-362l16 90l265 317h-199l17 100h342l-15 -90zM353 722l-21 -119h-121l21 119h121z" />
    <glyph glyph-name="Zcaron" unicode="&#x17d;" horiz-adv-x="509" 
d="M163 115h285l-20 -115h-435l19 105l356 460h-265l20 115h415l-19 -105zM425 913h94l-124 -161h-112l-68 161h88l47 -80z" />
    <glyph glyph-name="zcaron" unicode="&#x17e;" horiz-adv-x="432" 
d="M151 100h219l-18 -100h-362l16 90l265 317h-199l17 100h342l-15 -90zM352 740h94l-124 -161h-112l-68 161h88l47 -80z" />
    <glyph glyph-name="florin" unicode="&#x192;" horiz-adv-x="393" 
d="M254 307l-91 -340q-30 -111 -71 -150.5t-115 -39.5q-29 0 -59 5.5t-53 14.5l36 99q14 -5 31 -8t33 -3q34 0 52 17.5t31 64.5l91 340h-117l18 100h125l41 153q30 111 71 150.5t115 39.5q29 0 59 -5.5t53 -14.5l-36 -99q-14 5 -31 8t-33 3q-34 0 -52 -17.5t-31 -64.5
l-41 -153h115l-18 -100h-123z" />
    <glyph glyph-name="uni0218" unicode="&#x218;" horiz-adv-x="518" 
d="M211 101q63 0 96.5 24t33.5 69q0 27 -15.5 46t-51.5 35l-73 33q-61 27 -89.5 69t-28.5 104q0 98 62.5 153.5t176.5 55.5q43 0 85.5 -10.5t95.5 -33.5l-42 -103q-50 21 -79.5 28.5t-59.5 7.5q-56 0 -84.5 -22t-28.5 -65q0 -26 14.5 -43.5t51.5 -34.5l73 -33q61 -28 90 -71
t29 -106q0 -100 -67 -157t-189 -57q-54 0 -104.5 12.5t-104.5 38.5l42 103q52 -24 89 -33.5t78 -9.5zM264 -77l-108 -179l-74 17l58 162h124z" />
    <glyph glyph-name="uni0219" unicode="&#x219;" horiz-adv-x="461" 
d="M201 91q43 0 64.5 12.5t21.5 37.5q0 19 -13.5 32t-45.5 24l-55 19q-54 19 -81 54.5t-27 89.5q0 74 50 115.5t142 41.5q41 0 81 -8.5t84 -27.5l-37 -98q-36 17 -68.5 25t-62.5 8q-37 0 -55.5 -11.5t-18.5 -35.5q0 -18 12 -29.5t39 -21.5l55 -19q58 -20 86.5 -56t28.5 -90
q0 -77 -53.5 -120t-152.5 -43q-47 0 -91 9.5t-90 30.5l36 98q42 -19 78.5 -28t72.5 -9zM232 -77l-108 -179l-74 17l58 162h124z" />
    <glyph glyph-name="uni021A" unicode="&#x21a;" horiz-adv-x="526" 
d="M258 565h-190l20 115h500l-20 -115h-190l-100 -565h-120zM266 -77l-108 -179l-74 17l58 162h124z" />
    <glyph glyph-name="uni021B" unicode="&#x21b;" horiz-adv-x="400" 
d="M327 112l17 -101q-24 -10 -57 -15.5t-65 -5.5q-83 0 -119.5 47.5t-21.5 131.5l42 238h-82l17 100h83l23 132h115l-23 -132h157l-17 -100h-158l-42 -238q-6 -38 6 -54.5t46 -16.5q19 0 39.5 3.5t39.5 10.5zM243 -77l-108 -179l-74 17l58 162h124z" />
    <glyph glyph-name="dotlessj" unicode="&#x237;" horiz-adv-x="273" 
d="M-109 -223l19 108q54 0 83.5 26.5t39.5 84.5l90 511h115l-90 -511q-22 -124 -81 -171.5t-176 -47.5z" />
    <glyph glyph-name="circumflex" unicode="&#x2c6;" horiz-adv-x="500" 
d="M459 579h-88l-47 80l-75 -80h-94l124 161h112z" />
    <glyph glyph-name="caron" unicode="&#x2c7;" horiz-adv-x="500" 
d="M393 740h94l-124 -161h-112l-68 161h88l47 -80z" />
    <glyph glyph-name="breve" unicode="&#x2d8;" horiz-adv-x="500" 
d="M327 666q22 0 35.5 15.5t21.5 49.5h90q-18 -75 -54.5 -110.5t-97.5 -35.5q-65 0 -94.5 37t-21.5 109h84q-5 -33 4 -49t33 -16z" />
    <glyph glyph-name="dotaccent" unicode="&#x2d9;" horiz-adv-x="500" 
d="M393 722l-21 -119h-121l21 119h121z" />
    <glyph glyph-name="ring" unicode="&#x2da;" horiz-adv-x="500" 
d="M347 803q56 0 86.5 -34.5t19.5 -86.5l-3 -15q-9 -48 -44.5 -76t-86.5 -28q-56 0 -85.5 33.5t-19.5 86.5l3 15q10 49 44.5 77t85.5 28zM381 676l3 15q4 21 -7.5 33.5t-34.5 12.5q-21 0 -36 -12.5t-20 -33.5l-3 -15q-4 -21 6.5 -33.5t33.5 -12.5q22 0 37.5 12.5t20.5 33.5z
" />
    <glyph glyph-name="ogonek" unicode="&#x2db;" horiz-adv-x="500" 
d="M182 -114q0 -9 6.5 -14t19.5 -5q10 0 21.5 2t26.5 7l11 -83q-22 -8 -43.5 -12t-43.5 -4q-50 0 -77 21.5t-27 60.5q0 43 39.5 87t124.5 98l54 -44q-63 -46 -87.5 -70.5t-24.5 -43.5z" />
    <glyph glyph-name="tilde" unicode="&#x2dc;" horiz-adv-x="500" 
d="M378 588q-24 0 -42.5 10t-40.5 38q-10 14 -15.5 18t-10.5 4q-10 0 -16.5 -14.5t-13.5 -47.5h-81q13 79 40 116.5t72 37.5q24 0 42 -10t39 -38q10 -14 15.5 -18t10.5 -4q10 0 16.5 14.5t13.5 47.5h81q-13 -79 -39.5 -116.5t-70.5 -37.5z" />
    <glyph glyph-name="hungarumlaut" unicode="&#x2dd;" horiz-adv-x="500" 
d="M374 699l-94 -120h-96l105 166zM524 699l-94 -120h-96l105 166z" />
    <glyph glyph-name="pi" unicode="&#x3c0;" horiz-adv-x="584" 
d="M124 407h-82l17 100h551l-17 -100h-83l-46 -264q-4 -19 5 -30.5t29 -11.5h41l-19 -106h-48q-73 0 -104 39.5t-18 113.5l45 259h-156l-72 -407h-115z" />
    <glyph glyph-name="Wgrave" unicode="&#x1e80;" horiz-adv-x="867" 
d="M228 680l4 -269l-6 -252l228 521h108l44 -516l85 247l100 269h125l-273 -680h-123l-42 506l-221 -506h-123l-33 680h127zM566 752h-96l-82 120l111 46z" />
    <glyph glyph-name="wgrave" unicode="&#x1e81;" horiz-adv-x="737" 
d="M637 507h117l-219 -507h-125l-16 381l-157 -381h-125l-41 507h112l14 -201l1 -191l157 392h116l20 -381l63 179zM472 579h-96l-82 120l111 46z" />
    <glyph glyph-name="Wacute" unicode="&#x1e82;" horiz-adv-x="867" 
d="M228 680l4 -269l-6 -252l228 521h108l44 -516l85 247l100 269h125l-273 -680h-123l-42 506l-221 -506h-123l-33 680h127zM696 872l-124 -120h-106l125 166z" />
    <glyph glyph-name="wacute" unicode="&#x1e83;" horiz-adv-x="737" 
d="M637 507h117l-219 -507h-125l-16 381l-157 -381h-125l-41 507h112l14 -201l1 -191l157 392h116l20 -381l63 179zM602 699l-124 -120h-106l125 166z" />
    <glyph glyph-name="Wdieresis" unicode="&#x1e84;" horiz-adv-x="867" 
d="M228 680l4 -269l-6 -252l228 521h108l44 -516l85 247l100 269h125l-273 -680h-123l-42 506l-221 -506h-123l-33 680h127zM500 889l-19 -107h-109l19 107h109zM694 889l-19 -107h-109l19 107h109z" />
    <glyph glyph-name="wdieresis" unicode="&#x1e85;" horiz-adv-x="737" 
d="M637 507h117l-219 -507h-125l-16 381l-157 -381h-125l-41 507h112l14 -201l1 -191l157 392h116l20 -381l63 179zM407 716l-19 -107h-109l19 107h109zM601 716l-19 -107h-109l19 107h109z" />
    <glyph glyph-name="uni1E9E" unicode="&#x1e9e;" horiz-adv-x="611" 
d="M558 165l-3 -14q-18 -83 -67.5 -122t-135.5 -39q-38 0 -75 8.5t-71 25.5l38 103q25 -13 53 -19.5t57 -6.5q35 0 56 16.5t26 48.5l3 14q6 35 -5.5 55t-47.5 37l-84 39l14 83l124 168q-19 9 -39 13t-43 4q-55 0 -86 -30t-42 -92l-81 -457h-120l81 457q21 119 81 176t167 57
q59 0 112 -18t96 -52l-14 -83l-118 -158l10 -5q76 -35 103 -85.5t11 -123.5z" />
    <glyph glyph-name="Ygrave" unicode="&#x1ef2;" horiz-adv-x="544" 
d="M485 680h131l-279 -406l-49 -274h-120l48 271l-138 409h124l93 -289zM404 752h-96l-82 120l111 46z" />
    <glyph glyph-name="ygrave" unicode="&#x1ef3;" horiz-adv-x="499" 
d="M257 0l-27 -50q-50 -93 -108.5 -133t-145.5 -40l20 115q59 5 86.5 21.5t52.5 61.5l16 30l-90 502h114l43 -253l15 -105l51 105l127 253h115zM354 579h-96l-82 120l111 46z" />
    <glyph glyph-name="endash" unicode="&#x2013;" horiz-adv-x="604" 
d="M556 265h-504l17 100h504z" />
    <glyph glyph-name="emdash" unicode="&#x2014;" horiz-adv-x="804" 
d="M756 265h-704l17 100h704z" />
    <glyph glyph-name="quoteleft" unicode="&#x2018;" horiz-adv-x="211" 
d="M167 388h-112l3 19q14 74 47 140t95 143l65 -39q-44 -73 -63.5 -125t-34.5 -138z" />
    <glyph glyph-name="quoteright" unicode="&#x2019;" horiz-adv-x="211" 
d="M143 680h112l-3 -19q-14 -74 -47 -140t-95 -143l-65 39q44 73 63.5 125t34.5 138z" />
    <glyph glyph-name="quotesinglbase" unicode="&#x201a;" horiz-adv-x="211" 
d="M26 119h112l-3 -19q-14 -74 -47 -140t-95 -143l-65 39q44 73 63.5 125t34.5 138z" />
    <glyph glyph-name="quotedblleft" unicode="&#x201c;" horiz-adv-x="396" 
d="M352 388h-112l3 19q14 74 47 140t95 143l65 -39q-44 -73 -63.5 -125t-34.5 -138zM167 388h-112l3 19q14 74 47 140t95 143l65 -39q-44 -73 -63.5 -125t-34.5 -138z" />
    <glyph glyph-name="quotedblright" unicode="&#x201d;" horiz-adv-x="396" 
d="M143 680h112l-3 -19q-14 -74 -47 -140t-95 -143l-65 39q44 73 63.5 125t34.5 138zM328 680h112l-3 -19q-14 -74 -47 -140t-95 -143l-65 39q44 73 63.5 125t34.5 138z" />
    <glyph glyph-name="quotedblbase" unicode="&#x201e;" horiz-adv-x="396" 
d="M26 119h112l-3 -19q-14 -74 -47 -140t-95 -143l-65 39q44 73 63.5 125t34.5 138zM211 119h112l-3 -19q-14 -74 -47 -140t-95 -143l-65 39q44 73 63.5 125t34.5 138z" />
    <glyph glyph-name="dagger" unicode="&#x2020;" horiz-adv-x="433" 
d="M282 308l-19 -109l-83 -342h-70l38 342l19 109l41 131l-103 -16h-60l19 109h60l97 -16l2 104l11 60h115l-11 -60l-35 -105l104 16h60l-20 -109h-60l-98 17z" />
    <glyph glyph-name="daggerdbl" unicode="&#x2021;" horiz-adv-x="455" 
d="M226 21l-2 -104l-10 -60h-115l10 60l36 105l-104 -16h-60l19 109h60l99 -17l6 131l14 79l41 131l-103 -16h-60l19 109h60l97 -16l2 104l11 60h115l-11 -60l-35 -105l104 16h60l-20 -109h-60l-98 17l-7 -131l-14 -79l-40 -131l103 16h60l-19 -109h-60z" />
    <glyph glyph-name="bullet" unicode="&#x2022;" horiz-adv-x="243" 
d="M220 405l-25 -143h-145l25 143h145z" />
    <glyph glyph-name="ellipsis" unicode="&#x2026;" horiz-adv-x="611" 
d="M142 119l-21 -119h-121l21 119h121zM342 119l-21 -119h-121l21 119h121zM542 119l-21 -119h-121l21 119h121z" />
    <glyph glyph-name="perthousand" unicode="&#x2030;" horiz-adv-x="1077" 
d="M369 538l-5 -34q-9 -61 -47.5 -95t-100.5 -34q-65 0 -99.5 41t-25.5 106l5 34q9 61 47.5 95t100.5 34q66 0 100 -40.5t25 -106.5zM119 0l445 680h94l-445 -680h-94zM219 449q26 0 43 14.5t21 40.5l6 37q5 33 -7.5 51.5t-40.5 18.5q-26 0 -43 -14.5t-21 -40.5l-6 -37
q-5 -33 7.5 -51.5t40.5 -18.5zM687 158l-5 -34q-9 -61 -47.5 -95t-100.5 -34q-65 0 -99.5 41t-25.5 106l5 34q9 61 47.5 95t100.5 34q66 0 100 -40.5t25 -106.5zM1030 158l-5 -34q-9 -61 -47.5 -95t-100.5 -34q-65 0 -99.5 41t-25.5 106l5 34q9 61 47.5 95t100.5 34
q66 0 100 -40.5t25 -106.5zM537 69q26 0 43 14.5t21 40.5l6 37q5 33 -7.5 51.5t-40.5 18.5q-26 0 -43 -14.5t-21 -40.5l-6 -37q-5 -33 7.5 -51.5t40.5 -18.5zM880 69q26 0 43 14.5t21 40.5l6 37q5 33 -7.5 51.5t-40.5 18.5q-26 0 -43 -14.5t-21 -40.5l-6 -37
q-5 -33 7.5 -51.5t40.5 -18.5z" />
    <glyph glyph-name="guilsinglleft" unicode="&#x2039;" horiz-adv-x="392" 
d="M152 241l164 -115l-21 -112l-261 195l13 77l330 192l-21 -124z" />
    <glyph glyph-name="guilsinglright" unicode="&#x203a;" horiz-adv-x="393" 
d="M355 283l-13 -77l-330 -192l21 124l204 113l-164 115l21 112z" />
    <glyph glyph-name="fraction" unicode="&#x2044;" horiz-adv-x="111" 
d="M-199 0l445 680h94l-445 -680h-94z" />
    <glyph glyph-name="zerosuperior" unicode="&#x2070;" horiz-adv-x="326" 
d="M253 790q64 0 96 -39t21 -105l-10 -61q-12 -74 -47 -109.5t-95 -35.5q-65 0 -97 39.5t-21 105.5l10 61q12 73 47.5 108.5t95.5 35.5zM280 585l10 61q5 35 -4.5 52t-34.5 17q-24 0 -39 -17t-21 -52l-10 -61q-6 -34 3.5 -51.5t34.5 -17.5q26 0 40.5 16.5t20.5 52.5z" />
    <glyph glyph-name="foursuperior" unicode="&#x2074;" horiz-adv-x="274" 
d="M320 581l-12 -69h-34l-12 -67h-73l12 67h-143l11 64q46 56 82.5 108.5t63.5 100.5h85q-28 -52 -63.5 -103t-78.5 -101h55l8 46h73l-8 -46h34z" />
    <glyph glyph-name="fivesuperior" unicode="&#x2075;" horiz-adv-x="276" 
d="M132 584l-32 37l39 164h191l-12 -69h-126l-14 -58q8 2 15.5 2.5t15.5 0.5q54 0 79.5 -28.5t16.5 -79.5l-3 -16q-9 -49 -42.5 -73t-90.5 -24q-27 0 -52 5.5t-51 16.5l23 71q21 -9 40.5 -13t40.5 -4q25 0 37.5 8t15.5 25l3 14q2 16 -7.5 24t-31.5 8q-13 0 -26 -2.5
t-29 -8.5z" />
    <glyph glyph-name="sixsuperior" unicode="&#x2076;" horiz-adv-x="303" 
d="M340 560l-2 -16q-7 -50 -39.5 -77t-86.5 -27q-64 0 -93.5 39t-17.5 108l11 64q13 71 48.5 105t99.5 34q26 0 49 -4.5t46 -14.5l-23 -71q-18 8 -35.5 12t-37.5 4q-30 0 -47.5 -16.5t-23.5 -48.5l-2 -9q17 11 34.5 16.5t36.5 5.5q45 0 67 -28t16 -76zM229 595q-13 0 -26 -5
t-28 -16q-4 -30 6 -45.5t34 -15.5q19 0 31 8.5t14 23.5l2 16q2 16 -6.5 25t-26.5 9z" />
    <glyph glyph-name="sevensuperior" unicode="&#x2077;" horiz-adv-x="253" 
d="M332 785l-13 -71q-51 -78 -85.5 -144t-56.5 -125h-84q26 69 60.5 134.5t77.5 129.5h-143l13 76h231z" />
    <glyph glyph-name="eightsuperior" unicode="&#x2078;" horiz-adv-x="303" 
d="M285 626q20 -14 30.5 -33t10.5 -42q0 -49 -37 -80t-100 -31q-54 0 -83.5 21t-29.5 59q0 26 16.5 48.5t50.5 41.5q-16 14 -24.5 32t-8.5 41q0 48 33.5 77.5t91.5 29.5q52 0 81.5 -21.5t29.5 -59.5q0 -25 -14.5 -45t-46.5 -38zM187 685q0 -10 7 -17.5t21 -12.5l22 -8
q16 12 23 23t7 25q0 12 -9 18.5t-26 6.5q-21 0 -33 -9.5t-12 -25.5zM156 537q0 -13 10.5 -20t29.5 -7q23 0 37.5 10t14.5 27q0 10 -8 17t-24 13l-26 9q-18 -13 -26 -24t-8 -25z" />
    <glyph glyph-name="ninesuperior" unicode="&#x2079;" horiz-adv-x="303" 
d="M337 643l-11 -64q-13 -71 -48.5 -105t-99.5 -34q-26 0 -49 4.5t-46 14.5l23 71q18 -8 35.5 -12t37.5 -4q30 0 47.5 16.5t23.5 48.5l2 9q-17 -11 -34.5 -16.5t-36.5 -5.5q-45 0 -67 28t-16 76l2 16q7 50 39.5 77t86.5 27q64 0 93.5 -39t17.5 -108zM178 685l-2 -16
q-2 -16 6.5 -25t26.5 -9q13 0 26 5t28 16q4 30 -6 45.5t-34 15.5q-19 0 -31 -8.5t-14 -23.5z" />
    <glyph glyph-name="zeroinferior" unicode="&#x2080;" horiz-adv-x="326" 
d="M157 240q64 0 96 -39t21 -105l-10 -61q-12 -74 -47 -109.5t-95 -35.5q-65 0 -97 39.5t-21 105.5l10 61q12 73 47.5 108.5t95.5 35.5zM184 35l10 61q5 35 -4.5 52t-34.5 17q-24 0 -39 -17t-21 -52l-10 -61q-6 -34 3.5 -51.5t34.5 -17.5q26 0 40.5 16.5t20.5 52.5z" />
    <glyph glyph-name="oneinferior" unicode="&#x2081;" horiz-adv-x="220" 
d="M28 123l-23 64l105 48h60l-60 -340h-79l44 249z" />
    <glyph glyph-name="twoinferior" unicode="&#x2082;" horiz-adv-x="269" 
d="M50 -32h142l-13 -73h-221l12 68q8 48 29 74.5t67 45.5l37 15q20 8 29 16.5t11 20.5l1 3q2 13 -7.5 20t-30.5 7q-15 0 -33.5 -4t-51.5 -15l-13 71q28 12 54.5 17.5t52.5 5.5q59 0 86.5 -26t21.5 -73l-1 -9q-4 -33 -26.5 -57.5t-66.5 -41.5l-37 -15q-19 -7 -29 -19t-13 -31
z" />
    <glyph glyph-name="threeinferior" unicode="&#x2083;" horiz-adv-x="275" 
d="M197 -8l-2 -12q-8 -46 -40 -68t-91 -22q-28 0 -53.5 5.5t-46.5 15.5l23 70q19 -8 38 -11.5t39 -3.5q26 0 39 7t16 22l1 7q2 15 -7.5 24t-29.5 9h-51l11 64h51q19 0 31 8t14 22l1 7q3 15 -6.5 22t-33.5 7q-16 0 -34.5 -3.5t-41.5 -11.5l-17 70q27 10 52 15t49 5
q60 0 89.5 -26t23.5 -70l-1 -7q-3 -25 -18 -43.5t-41 -28.5q22 -13 31 -31.5t5 -41.5z" />
    <glyph glyph-name="fourinferior" unicode="&#x2084;" horiz-adv-x="274" 
d="M224 31l-12 -69h-34l-12 -67h-73l12 67h-143l11 64q46 56 82.5 108.5t63.5 100.5h85q-28 -52 -63.5 -103t-78.5 -101h55l8 46h73l-8 -46h34z" />
    <glyph glyph-name="fiveinferior" unicode="&#x2085;" horiz-adv-x="276" 
d="M36 34l-32 37l39 164h191l-12 -69h-126l-14 -58q8 2 15.5 2.5t15.5 0.5q54 0 79.5 -28.5t16.5 -79.5l-3 -16q-9 -49 -42.5 -73t-90.5 -24q-27 0 -52 5.5t-51 16.5l23 71q21 -9 40.5 -13t40.5 -4q25 0 37.5 8t15.5 25l3 14q2 16 -7.5 24t-31.5 8q-13 0 -26 -2.5t-29 -8.5z
" />
    <glyph glyph-name="sixinferior" unicode="&#x2086;" horiz-adv-x="303" 
d="M244 10l-2 -16q-7 -50 -39.5 -77t-86.5 -27q-64 0 -93.5 39t-17.5 108l11 64q13 71 48.5 105t99.5 34q26 0 49 -4.5t46 -14.5l-23 -71q-18 8 -35.5 12t-37.5 4q-30 0 -47.5 -16.5t-23.5 -48.5l-2 -9q17 11 34.5 16.5t36.5 5.5q45 0 67 -28t16 -76zM133 45q-13 0 -26 -5
t-28 -16q-4 -30 6 -45.5t34 -15.5q19 0 31 8.5t14 23.5l2 16q2 16 -6.5 25t-26.5 9z" />
    <glyph glyph-name="seveninferior" unicode="&#x2087;" horiz-adv-x="253" 
d="M236 235l-13 -71q-51 -78 -85.5 -144t-56.5 -125h-84q26 69 60.5 134.5t77.5 129.5h-143l13 76h231z" />
    <glyph glyph-name="eightinferior" unicode="&#x2088;" horiz-adv-x="303" 
d="M189 76q20 -14 30.5 -33t10.5 -42q0 -49 -37 -80t-100 -31q-54 0 -83.5 21t-29.5 59q0 26 16.5 48.5t50.5 41.5q-16 14 -24.5 32t-8.5 41q0 48 33.5 77.5t91.5 29.5q52 0 81.5 -21.5t29.5 -59.5q0 -25 -14.5 -45t-46.5 -38zM91 135q0 -10 7 -17.5t21 -12.5l22 -8
q16 12 23 23t7 25q0 12 -9 18.5t-26 6.5q-21 0 -33 -9.5t-12 -25.5zM60 -13q0 -13 10.5 -20t29.5 -7q23 0 37.5 10t14.5 27q0 10 -8 17t-24 13l-26 9q-18 -13 -26 -24t-8 -25z" />
    <glyph glyph-name="nineinferior" unicode="&#x2089;" horiz-adv-x="303" 
d="M241 93l-11 -64q-13 -71 -48.5 -105t-99.5 -34q-26 0 -49 4.5t-46 14.5l23 71q18 -8 35.5 -12t37.5 -4q30 0 47.5 16.5t23.5 48.5l2 9q-17 -11 -34.5 -16.5t-36.5 -5.5q-45 0 -67 28t-16 76l2 16q7 50 39.5 77t86.5 27q64 0 93.5 -39t17.5 -108zM82 135l-2 -16
q-2 -16 6.5 -25t26.5 -9q13 0 26 5t28 16q4 30 -6 45.5t-34 15.5q-19 0 -31 -8.5t-14 -23.5z" />
    <glyph glyph-name="Euro" unicode="&#x20ac;" horiz-adv-x="602" 
d="M506 128l25 -105q-48 -16 -94 -24.5t-87 -8.5q-100 0 -159 58.5t-63 158.5h-92l16 87h83l13 76h-83l16 87h83q30 118 99.5 175.5t180.5 57.5q44 0 86 -10t86 -32l-45 -106q-45 20 -74.5 27.5t-60.5 7.5q-52 0 -89 -30.5t-58 -89.5h215l-34 -87h-199l-13 -76h186l-34 -87
h-158q5 -51 33 -77.5t77 -26.5q31 0 66.5 6t77.5 19z" />
    <glyph glyph-name="uni20B9" unicode="&#x20b9;" horiz-adv-x="552" 
d="M427 0h-147q-46 62 -93.5 116t-128.5 134l15 87h156q43 0 73 22t43 63h-257l16 87h256q2 40 -20.5 62t-64.5 22h-156l15 87h452l-15 -87h-132q15 -17 23 -38t9 -46h85l-16 -87h-81q-17 -84 -79.5 -128t-165.5 -44h-6q67 -65 117 -122t102 -128z" />
    <glyph glyph-name="uni2113" unicode="&#x2113;" horiz-adv-x="393" 
d="M288 113l17 -98q-28 -12 -60.5 -18.5t-61.5 -6.5q-77 0 -110 44t-19 124l65 367q14 80 58 122.5t113 42.5q67 0 104.5 -34t37.5 -98q0 -76 -61 -156t-191 -178l-12 -70q-5 -30 4.5 -43t36.5 -13q15 0 36.5 4t42.5 11zM286 582q-22 0 -34.5 -13.5t-17.5 -42.5l-30 -166
q56 52 85 98.5t29 84.5q0 19 -8 29t-24 10z" />
    <glyph glyph-name="uni2116" unicode="&#x2116;" horiz-adv-x="1088" 
d="M946 685q76 0 116.5 -49.5t28.5 -127.5l-5 -34q-11 -76 -57 -117.5t-119 -41.5q-77 0 -117 49t-28 128l5 34q11 76 57 117.5t119 41.5zM164 0h-115l120 680h110q66 -133 111 -240.5t87 -230.5l26 211l46 260h115l-120 -680h-110q-40 133 -86.5 254.5t-103.5 246.5
l-34 -241zM998 474l6 37q7 44 -9.5 68t-53.5 24q-33 0 -55 -20.5t-28 -56.5l-6 -37q-7 -43 10 -67.5t53 -24.5q33 0 55 20.5t28 56.5zM1009 159h-284l14 82h284z" />
    <glyph glyph-name="trademark" unicode="&#x2122;" horiz-adv-x="734" 
d="M417 680h87l50 -177l114 177h92l-60 -340h-78l15 87l31 137l-109 -173h-45l-46 172l-18 -136l-15 -87h-78zM170 603h-104l14 77h289l-14 -77h-104l-46 -263h-81z" />
    <glyph glyph-name="Omega" unicode="&#x2126;" horiz-adv-x="660" 
d="M561 0h-219l39 220q48 15 78.5 55t40.5 99l7 42q13 75 -20.5 118t-105.5 43q-71 0 -117 -42t-59 -119l-7 -42q-11 -60 7.5 -101.5t62.5 -54.5l-38 -218h-219l19 109h110l9 50q-46 34 -65 95t-7 132l7 42q21 123 100 192.5t199 69.5q131 0 198.5 -80t46.5 -205l-7 -42
q-12 -73 -48.5 -126t-94.5 -82l-8 -46h110z" />
    <glyph glyph-name="estimated" unicode="&#x212e;" horiz-adv-x="813" 
d="M784 314v-9h-583q-3 0 -4 -1t-1 -3v-176q0 -6 2 -11t6 -9q44 -46 101 -71t120 -25q67 0 127 28t105 79h52q-51 -59 -126 -92.5t-159 -33.5q-149 0 -254.5 95t-105.5 229t105.5 229t254.5 95t254.5 -95t105.5 -229zM652 328v178q0 6 -2 11.5t-7 9.5q-44 44 -100.5 68
t-117.5 24q-62 0 -119 -24.5t-101 -70.5q-5 -5 -7 -10t-2 -12v-174q0 -2 1.5 -3.5t3.5 -1.5h447q2 0 3 1.5t1 3.5z" />
    <glyph glyph-name="onethird" unicode="&#x2153;" horiz-adv-x="666" 
d="M106 568l-23 64l105 48h60l-60 -340h-79l44 249zM51 0l445 680h94l-445 -680h-94zM607 97l-2 -12q-8 -46 -40 -68t-91 -22q-28 0 -53.5 5.5t-46.5 15.5l23 70q19 -8 38 -11.5t39 -3.5q26 0 39 7t16 22l1 7q2 15 -7.5 24t-29.5 9h-51l11 64h51q19 0 31 8t14 22l1 7
q3 15 -6.5 22t-33.5 7q-16 0 -34.5 -3.5t-41.5 -11.5l-17 70q27 10 52 15t49 5q60 0 89.5 -26t23.5 -70l-1 -7q-3 -25 -18 -43.5t-41 -28.5q22 -13 31 -31.5t5 -41.5z" />
    <glyph glyph-name="twothirds" unicode="&#x2154;" horiz-adv-x="715" 
d="M128 413h142l-13 -73h-221l12 68q8 48 29 74.5t67 45.5l37 15q20 8 29 16.5t11 20.5l1 3q2 13 -7.5 20t-30.5 7q-15 0 -33.5 -4t-51.5 -15l-13 71q28 12 54.5 17.5t52.5 5.5q59 0 86.5 -26t21.5 -73l-1 -9q-4 -33 -26.5 -57.5t-66.5 -41.5l-37 -15q-19 -7 -29 -19
t-13 -31zM100 0l445 680h94l-445 -680h-94zM656 97l-2 -12q-8 -46 -40 -68t-91 -22q-28 0 -53.5 5.5t-46.5 15.5l23 70q19 -8 38 -11.5t39 -3.5q26 0 39 7t16 22l1 7q2 15 -7.5 24t-29.5 9h-51l11 64h51q19 0 31 8t14 22l1 7q3 15 -6.5 22t-33.5 7q-16 0 -34.5 -3.5
t-41.5 -11.5l-17 70q27 10 52 15t49 5q60 0 89.5 -26t23.5 -70l-1 -7q-3 -25 -18 -43.5t-41 -28.5q22 -13 31 -31.5t5 -41.5z" />
    <glyph glyph-name="oneeighth" unicode="&#x215b;" horiz-adv-x="679" 
d="M106 568l-23 64l105 48h60l-60 -340h-79l44 249zM51 0l445 680h94l-445 -680h-94zM584 181q20 -14 30.5 -33t10.5 -42q0 -49 -37 -80t-100 -31q-54 0 -83.5 21t-29.5 59q0 26 16.5 48.5t50.5 41.5q-16 14 -24.5 32t-8.5 41q0 48 33.5 77.5t91.5 29.5q52 0 81.5 -21.5
t29.5 -59.5q0 -25 -14.5 -45t-46.5 -38zM486 240q0 -10 7 -17.5t21 -12.5l22 -8q16 12 23 23t7 25q0 12 -9 18.5t-26 6.5q-21 0 -33 -9.5t-12 -25.5zM455 92q0 -13 10.5 -20t29.5 -7q23 0 37.5 10t14.5 27q0 10 -8 17t-24 13l-26 9q-18 -13 -26 -24t-8 -25z" />
    <glyph glyph-name="threeeighths" unicode="&#x215c;" horiz-adv-x="719" 
d="M275 437l-2 -12q-8 -46 -40 -68t-91 -22q-28 0 -53.5 5.5t-46.5 15.5l23 70q19 -8 38 -11.5t39 -3.5q26 0 39 7t16 22l1 7q2 15 -7.5 24t-29.5 9h-51l11 64h51q19 0 31 8t14 22l1 7q3 15 -6.5 22t-33.5 7q-16 0 -34.5 -3.5t-41.5 -11.5l-17 70q27 10 52 15t49 5
q60 0 89.5 -26t23.5 -70l-1 -7q-3 -25 -18 -43.5t-41 -28.5q22 -13 31 -31.5t5 -41.5zM91 0l445 680h94l-445 -680h-94zM624 181q20 -14 30.5 -33t10.5 -42q0 -49 -37 -80t-100 -31q-54 0 -83.5 21t-29.5 59q0 26 16.5 48.5t50.5 41.5q-16 14 -24.5 32t-8.5 41
q0 48 33.5 77.5t91.5 29.5q52 0 81.5 -21.5t29.5 -59.5q0 -25 -14.5 -45t-46.5 -38zM526 240q0 -10 7 -17.5t21 -12.5l22 -8q16 12 23 23t7 25q0 12 -9 18.5t-26 6.5q-21 0 -33 -9.5t-12 -25.5zM495 92q0 -13 10.5 -20t29.5 -7q23 0 37.5 10t14.5 27q0 10 -8 17t-24 13
l-26 9q-18 -13 -26 -24t-8 -25z" />
    <glyph glyph-name="fiveeighths" unicode="&#x215d;" horiz-adv-x="725" 
d="M114 479l-32 37l39 164h191l-12 -69h-126l-14 -58q8 2 15.5 2.5t15.5 0.5q54 0 79.5 -28.5t16.5 -79.5l-3 -16q-9 -49 -42.5 -73t-90.5 -24q-27 0 -52 5.5t-51 16.5l23 71q21 -9 40.5 -13t40.5 -4q25 0 37.5 8t15.5 25l3 14q2 16 -7.5 24t-31.5 8q-13 0 -26 -2.5
t-29 -8.5zM97 0l445 680h94l-445 -680h-94zM630 181q20 -14 30.5 -33t10.5 -42q0 -49 -37 -80t-100 -31q-54 0 -83.5 21t-29.5 59q0 26 16.5 48.5t50.5 41.5q-16 14 -24.5 32t-8.5 41q0 48 33.5 77.5t91.5 29.5q52 0 81.5 -21.5t29.5 -59.5q0 -25 -14.5 -45t-46.5 -38z
M532 240q0 -10 7 -17.5t21 -12.5l22 -8q16 12 23 23t7 25q0 12 -9 18.5t-26 6.5q-21 0 -33 -9.5t-12 -25.5zM501 92q0 -13 10.5 -20t29.5 -7q23 0 37.5 10t14.5 27q0 10 -8 17t-24 13l-26 9q-18 -13 -26 -24t-8 -25z" />
    <glyph glyph-name="seveneighths" unicode="&#x215e;" horiz-adv-x="692" 
d="M314 680l-13 -71q-51 -78 -85.5 -144t-56.5 -125h-84q26 69 60.5 134.5t77.5 129.5h-143l13 76h231zM64 0l445 680h94l-445 -680h-94zM597 181q20 -14 30.5 -33t10.5 -42q0 -49 -37 -80t-100 -31q-54 0 -83.5 21t-29.5 59q0 26 16.5 48.5t50.5 41.5q-16 14 -24.5 32
t-8.5 41q0 48 33.5 77.5t91.5 29.5q52 0 81.5 -21.5t29.5 -59.5q0 -25 -14.5 -45t-46.5 -38zM499 240q0 -10 7 -17.5t21 -12.5l22 -8q16 12 23 23t7 25q0 12 -9 18.5t-26 6.5q-21 0 -33 -9.5t-12 -25.5zM468 92q0 -13 10.5 -20t29.5 -7q23 0 37.5 10t14.5 27q0 10 -8 17
t-24 13l-26 9q-18 -13 -26 -24t-8 -25z" />
    <glyph glyph-name="arrowleft" unicode="&#x2190;" horiz-adv-x="651" 
d="M208 314l137 -126l-48 -62l-256 202v57l256 202l48 -62l-133 -123h410v-88h-414z" />
    <glyph glyph-name="arrowup" unicode="&#x2191;" horiz-adv-x="651" 
d="M566 392l-62 -48l-123 133v-410h-88v414l-126 -137l-62 48l202 256h57z" />
    <glyph glyph-name="arrowright" unicode="&#x2192;" horiz-adv-x="651" 
d="M630 387v-57l-256 -202l-48 62l133 123h-410v88h414l-137 126l48 62z" />
    <glyph glyph-name="arrowdown" unicode="&#x2193;" horiz-adv-x="651" 
d="M504 373l62 -48l-202 -256h-57l-202 256l62 48l123 -133v410h88v-414z" />
    <glyph glyph-name="uni2194" unicode="&#x2194;" horiz-adv-x="793" 
d="M216 314l137 -126l-48 -62l-256 202v57l256 202l48 -62l-133 -123h393l-137 126l48 62l256 -202v-57l-256 -202l-48 62l133 123h-393z" />
    <glyph glyph-name="uni2195" unicode="&#x2195;" horiz-adv-x="651" 
d="M506 297l62 -48l-202 -256h-57l-202 256l62 48l123 -133v393l-126 -137l-62 48l202 256h57l202 -256l-62 -48l-123 133v-393z" />
    <glyph glyph-name="uni2196" unicode="&#x2196;" horiz-adv-x="651" 
d="M279 474l290 -290l-62 -62l-293 292l8 -186l-78 -10l-38 324l40 41l324 -39l-10 -77z" />
    <glyph glyph-name="uni2197" unicode="&#x2197;" horiz-adv-x="651" 
d="M523 219l-78 10l7 181l-290 -290l-62 63l292 292l-185 -7l-10 77l324 39l40 -41z" />
    <glyph glyph-name="uni2198" unicode="&#x2198;" horiz-adv-x="651" 
d="M519 498l38 -324l-40 -41l-324 39l10 77l181 -7l-290 290l62 62l292 -292l-7 186z" />
    <glyph glyph-name="uni2199" unicode="&#x2199;" horiz-adv-x="651" 
d="M460 250l10 -77l-324 -39l-40 41l38 324l78 -10l-8 -182l291 291l62 -63l-292 -292z" />
    <glyph glyph-name="partialdiff" unicode="&#x2202;" horiz-adv-x="540" 
d="M506 269l-10 -40q-29 -116 -96.5 -177.5t-166.5 -61.5q-102 0 -152.5 68.5t-25.5 173.5l7 30q19 81 71 127.5t122 46.5q52 0 91.5 -24t57.5 -68q13 96 -26 176t-131 145l65 85q125 -89 176 -219.5t18 -261.5zM174 246l-7 -30q-12 -54 8 -88.5t63 -34.5q47 0 82.5 34.5
t57.5 101.5q-14 47 -42.5 73.5t-64.5 26.5q-34 0 -61.5 -23t-35.5 -60z" />
    <glyph glyph-name="Delta" unicode="&#x2206;" horiz-adv-x="563" 
d="M409 680l90 -586l-17 -94h-491l17 94l295 586h106zM329 514l-83 -173l-116 -237h253l-33 237z" />
    <glyph glyph-name="product" unicode="&#x220f;" horiz-adv-x="700" 
d="M158 565h-82l20 115h658l-20 -115h-82l-125 -708h-120l125 708h-254l-125 -708h-120z" />
    <glyph glyph-name="summation" unicode="&#x2211;" horiz-adv-x="530" 
d="M-41 -143l18 105l292 307l-184 306l19 105h479l-20 -115h-326l160 -270l-12 -67l-242 -256h335l-20 -115h-499z" />
    <glyph glyph-name="minus" unicode="&#x2212;" 
d="M503 265h-414l17 100h414z" />
    <glyph glyph-name="uni2215" unicode="&#x2215;" horiz-adv-x="111" 
d="M-199 0l445 680h94l-445 -680h-94z" />
    <glyph glyph-name="radical" unicode="&#x221a;" 
d="M135 285h-113l18 100h180l45 -225l292 520h114l-391 -680h-81z" />
    <glyph glyph-name="infinity" unicode="&#x221e;" horiz-adv-x="771" 
d="M592 538q73 0 114 -47.5t41 -134.5q0 -112 -59.5 -181t-157.5 -69q-57 0 -98 24.5t-64 72.5q-32 -48 -73.5 -72.5t-91.5 -24.5q-73 0 -114 47.5t-41 134.5q0 112 59.5 181t157.5 69q57 0 98 -24.5t64 -72.5q32 48 73.5 72.5t91.5 24.5zM255 420q-43 0 -71 -33t-28 -83
q0 -39 18.5 -59.5t53.5 -20.5q30 0 57.5 17.5t55.5 55.5l-8 37q-10 47 -28 66.5t-50 19.5zM454 347l8 -37q10 -47 28 -66.5t50 -19.5q43 0 71 33t28 83q0 39 -18.5 59.5t-53.5 20.5q-30 0 -57.5 -17.5t-55.5 -55.5z" />
    <glyph glyph-name="integral" unicode="&#x222b;" horiz-adv-x="355" 
d="M-38 -115q34 0 52 17.5t31 64.5l158 593q30 111 71 150.5t115 39.5q29 0 59 -5.5t53 -14.5l-36 -99q-14 5 -31 8t-33 3q-34 0 -52 -17.5t-31 -64.5l-158 -593q-30 -111 -71 -150.5t-115 -39.5q-29 0 -59 5.5t-53 14.5l36 99q14 -5 31 -8t33 -3z" />
    <glyph glyph-name="approxequal" unicode="&#x2248;" 
d="M403 320q-30 0 -56 14t-61 56q-19 23 -28.5 29.5t-17.5 6.5q-16 0 -30.5 -24t-29.5 -72l-87 20q26 89 62 132.5t87 43.5q30 0 55.5 -14t60.5 -56q20 -23 29 -29.5t17 -6.5q16 0 31.5 24t31.5 73l86 -20q-26 -90 -62 -133.5t-88 -43.5zM365 100q-30 0 -56 14t-61 56
q-19 23 -28.5 29.5t-17.5 6.5q-16 0 -30.5 -24t-29.5 -72l-87 20q26 89 62 132.5t87 43.5q30 0 55.5 -14t60.5 -56q20 -23 29 -29.5t17 -6.5q16 0 31.5 24t31.5 73l86 -20q-26 -90 -62 -133.5t-88 -43.5z" />
    <glyph glyph-name="notequal" unicode="&#x2260;" 
d="M503 265l-18 -100h-231l-86 -136l-64 39l62 97h-95l18 100h140l63 99h-186l18 100h231l86 135l64 -39l-61 -96h94l-18 -100h-140l-62 -99h185z" />
    <glyph glyph-name="lessequal" unicode="&#x2264;" 
d="M253 328l243 -100l-19 -104l-384 168l14 81l443 165l-20 -112zM456 0h-414l18 100h414z" />
    <glyph glyph-name="greaterequal" unicode="&#x2265;" 
d="M521 370l-14 -81l-443 -165l20 112l277 98l-243 100l19 104zM456 0h-414l18 100h414z" />
    <glyph glyph-name="lozenge" unicode="&#x25ca;" 
d="M289 0h-77l-108 340l225 340h77l108 -340zM346 540l-132 -205l58 -196l134 206z" />
    <glyph glyph-name="commaaccent" unicode="&#xf6c3;" horiz-adv-x="500" 
d="M254 -77l-108 -179l-74 17l58 162h124z" />
    <glyph glyph-name="kgreenlandic.case" horiz-adv-x="726" 
d="M619 474l116 211l74 -17l-66 -194h-124zM553 0h-137l-119 303q-11 -10 -23.5 -22t-65.5 -59l-39 -222h-120l120 680h120l-55 -313q86 82 152.5 158.5t118.5 154.5h138q-57 -82 -119.5 -157t-131.5 -144z" />
    <glyph glyph-name="napostrophe.case" horiz-adv-x="834" 
d="M315 0h-115l120 680h110q66 -133 111 -240.5t87 -230.5l26 211l46 260h115l-120 -680h-110q-40 133 -86.5 254.5t-103.5 246.5l-34 -241zM113 681h112l-3 -19q-14 -74 -47 -140t-95 -143l-65 39q44 73 63.5 125t34.5 138z" />
    <glyph glyph-name="i.dot" horiz-adv-x="273" 
d="M279 722l-21 -119h-121l21 119h121zM238 507l-89 -507h-115l89 507h115z" />
    <glyph glyph-name="caron.alt" horiz-adv-x="500" 
d="M409 740l-70 -194h-77l34 194h113z" />
    <glyph glyph-name="revcommaaccent" horiz-adv-x="500" 
d="M245 579l108 179l74 -17l-58 -162h-124z" />
    <glyph glyph-name="zero.tlf" horiz-adv-x="550" 
d="M351 690q115 0 172.5 -79.5t34.5 -208.5l-22 -123q-26 -148 -93 -218.5t-179 -70.5q-117 0 -174.5 79.5t-33.5 209.5l22 123q26 146 93.5 217t179.5 71zM415 279l22 123q15 86 -9 131.5t-84 45.5q-58 0 -93.5 -42.5t-51.5 -134.5l-22 -123q-16 -87 7.5 -132.5t84.5 -45.5
q60 0 94.5 42t51.5 136z" />
    <glyph glyph-name="one.tlf" horiz-adv-x="550" 
d="M164 480l-38 94l207 106h100l-100 -567h122l-20 -113h-392l20 113h152l76 431z" />
    <glyph glyph-name="two.tlf" horiz-adv-x="550" 
d="M169 113h294l-20 -113h-412l17 95q18 96 57 150t124 95l74 36q62 30 81.5 48t24.5 45l4 22q7 43 -17 65.5t-77 22.5q-32 0 -67.5 -8.5t-88.5 -29.5l-28 103q58 24 104.5 35t92.5 11q105 0 159.5 -56.5t39.5 -142.5l-4 -23q-11 -64 -46 -104t-143 -92l-74 -36
q-41 -19 -62.5 -46.5t-32.5 -76.5z" />
    <glyph glyph-name="three.tlf" horiz-adv-x="550" 
d="M463 193l-2 -14q-14 -94 -75 -141.5t-168 -47.5q-50 0 -97.5 11.5t-98.5 36.5l43 103q49 -22 84.5 -31t71.5 -9q56 0 86.5 20.5t36.5 61.5l2 14q6 45 -14.5 68.5t-65.5 23.5h-106l19 108h106q44 0 71 20t33 57l3 19q7 44 -14 65t-71 21q-33 0 -70 -8.5t-92 -29.5l-30 103
q56 23 105.5 34.5t96.5 11.5q105 0 156.5 -52t37.5 -140l-3 -19q-7 -47 -33 -83.5t-68 -59.5q34 -23 48 -59.5t8 -83.5z" />
    <glyph glyph-name="four.tlf" horiz-adv-x="550" 
d="M519 261l-19 -107h-71l-27 -154h-116l27 154h-292l17 97q121 149 192 247.5t116 181.5h141q-43 -79 -110 -172.5t-194 -246.5h149l18 103h116l-18 -103h71z" />
    <glyph glyph-name="five.tlf" horiz-adv-x="550" 
d="M145 294l-54 57l78 329h351l-20 -113h-246l-34 -147q15 3 30 4.5t31 1.5q103 0 155 -59t33 -153l-6 -30q-20 -98 -83 -146t-170 -48q-51 0 -98.5 11.5t-98.5 36.5l45 103q54 -23 88.5 -31.5t70.5 -8.5q53 0 85 21t40 62l6 30q10 50 -14 77.5t-78 27.5q-22 0 -49 -6
t-62 -19z" />
    <glyph glyph-name="six.tlf" horiz-adv-x="550" 
d="M521 219l-4 -22q-18 -100 -79 -153.5t-157 -53.5q-115 0 -171 83t-33 218l22 131q23 138 91.5 203t191.5 65q47 0 92 -11t93 -35l-49 -103q-38 19 -71 28.5t-64 9.5q-73 0 -114 -38.5t-55 -118.5l-8 -48q39 32 78 47.5t78 15.5q85 0 130.5 -63t28.5 -155zM326 329
q-32 0 -70.5 -14.5t-67.5 -39.5q-12 -85 13 -129.5t84 -44.5q45 0 76 26t39 70l4 20q10 51 -10.5 81.5t-67.5 30.5z" />
    <glyph glyph-name="seven.tlf" horiz-adv-x="550" 
d="M563 680l-19 -103q-91 -140 -162 -283t-124 -294h-132q51 146 121 286.5t160 280.5h-296l20 113h432z" />
    <glyph glyph-name="eight.tlf" horiz-adv-x="550" 
d="M417 351q41 -28 61 -64t20 -83q0 -98 -66.5 -156t-185.5 -58q-102 0 -159 42.5t-57 115.5q0 57 35.5 108t102.5 86q-35 27 -52 61.5t-17 79.5q0 92 64 149.5t172 57.5q97 0 151 -42t54 -117q0 -53 -31.5 -100t-91.5 -80zM219 494q0 -26 16 -44.5t56 -36.5l50 -22
q39 28 58.5 57.5t19.5 61.5q0 36 -22.5 55t-65.5 19q-51 0 -81.5 -24.5t-30.5 -65.5zM152 177q0 -39 26 -60t74 -21q59 0 91.5 24.5t32.5 68.5q0 27 -18.5 47.5t-60.5 39.5l-52 23q-49 -31 -71 -59.5t-22 -62.5z" />
    <glyph glyph-name="nine.tlf" horiz-adv-x="550" 
d="M520 389l-22 -131q-23 -138 -91.5 -203t-191.5 -65q-47 0 -92 11t-93 35l49 103q38 -19 71 -28.5t64 -9.5q73 0 114 38.5t55 118.5l8 48q-39 -32 -78 -47.5t-78 -15.5q-83 0 -127.5 61.5t-31.5 156.5l3 22q13 97 75.5 152t161.5 55q115 0 171 -83t33 -218zM196 483
l-3 -20q-8 -53 12 -82.5t66 -29.5q32 0 70.5 14.5t67.5 39.5q12 85 -13 129.5t-84 44.5q-45 0 -77 -26.5t-39 -69.5z" />
    <glyph glyph-name="zero.posf" horiz-adv-x="565" 
d="M321 517q110 0 168 -69.5t41 -181.5l-8 -52q-16 -107 -82 -165.5t-169 -58.5q-110 0 -168 70t-40 182l8 52q16 107 81 165t169 58zM404 214l9 57q11 67 -14.5 105t-81.5 38q-51 0 -85 -31.5t-43 -88.5l-9 -57q-11 -66 15 -105t81 -39q50 0 84.5 32t43.5 89z" />
    <glyph glyph-name="one.posf" horiz-adv-x="371" 
d="M84 316l-38 94l190 97h100l-89 -507h-118l65 371z" />
    <glyph glyph-name="two.posf" horiz-adv-x="492" 
d="M156 105h250l-19 -105h-368l17 95q13 74 48 115t109 66l72 24q32 10 48.5 23t20.5 30l1 8q4 24 -13.5 36.5t-54.5 12.5q-34 0 -66 -7.5t-78 -26.5l-32 97q55 23 99.5 33.5t87.5 10.5q95 0 141.5 -47t31.5 -122l-2 -10q-9 -47 -44.5 -80t-103.5 -55l-72 -24
q-37 -12 -52.5 -28t-20.5 -46z" />
    <glyph glyph-name="three.posf" horiz-adv-x="472" 
d="M388 20l-2 -14q-14 -94 -75 -141.5t-168 -47.5q-50 0 -97.5 11.5t-98.5 36.5l43 103q49 -22 84.5 -31t71.5 -9q56 0 86.5 20.5t36.5 61.5l2 14q6 45 -14.5 68.5t-65.5 23.5h-106l19 108h106q44 0 71 20t33 57l3 19q7 44 -14 65t-71 21q-33 0 -70 -8.5t-92 -29.5l-30 103
q56 23 105.5 34.5t96.5 11.5q105 0 156.5 -52t37.5 -140l-3 -19q-7 -47 -33 -83.5t-68 -59.5q34 -23 48 -59.5t8 -83.5z" />
    <glyph glyph-name="four.posf" horiz-adv-x="528" 
d="M483 107l-19 -107h-71l-31 -173h-116l31 173h-292l17 97q103 119 175 216.5t129 193.5h141q-52 -89 -124.5 -186t-174.5 -214h148l16 93h116l-16 -93h71z" />
    <glyph glyph-name="five.posf" horiz-adv-x="478" 
d="M88 121l-54 57l78 329h351l-20 -113h-246l-34 -147q15 3 30 4.5t31 1.5q103 0 155 -59t33 -153l-6 -30q-20 -98 -83 -146t-170 -48q-51 0 -98.5 11.5t-98.5 36.5l45 103q54 -23 88.5 -31.5t70.5 -8.5q53 0 85 21t40 62l6 30q10 50 -14 77.5t-78 27.5q-22 0 -49 -6
t-62 -19z" />
    <glyph glyph-name="six.posf" horiz-adv-x="559" 
d="M523 219l-4 -22q-18 -100 -79 -153.5t-157 -53.5q-115 0 -171 83t-33 218l22 131q23 138 91.5 203t191.5 65q47 0 92 -11t93 -35l-49 -103q-38 19 -71 28.5t-64 9.5q-73 0 -114 -38.5t-55 -118.5l-8 -48q39 32 78 47.5t78 15.5q85 0 130.5 -63t28.5 -155zM328 329
q-32 0 -70.5 -14.5t-67.5 -39.5q-12 -85 13 -129.5t84 -44.5q45 0 76 26t39 70l4 20q10 51 -10.5 81.5t-67.5 30.5z" />
    <glyph glyph-name="seven.posf" horiz-adv-x="476" 
d="M497 507l-19 -103q-91 -140 -162 -283t-124 -294h-132q51 146 121 286.5t160 280.5h-296l20 113h432z" />
    <glyph glyph-name="eight.posf" horiz-adv-x="535" 
d="M406 351q41 -28 61 -64t20 -83q0 -98 -66.5 -156t-185.5 -58q-102 0 -159 42.5t-57 115.5q0 57 35.5 108t102.5 86q-35 27 -52 61.5t-17 79.5q0 92 64 149.5t172 57.5q97 0 151 -42t54 -117q0 -53 -31.5 -100t-91.5 -80zM208 494q0 -26 16 -44.5t56 -36.5l50 -22
q39 28 58.5 57.5t19.5 61.5q0 36 -22.5 55t-65.5 19q-51 0 -81.5 -24.5t-30.5 -65.5zM141 177q0 -39 26 -60t74 -21q59 0 91.5 24.5t32.5 68.5q0 27 -18.5 47.5t-60.5 39.5l-52 23q-49 -31 -71 -59.5t-22 -62.5z" />
    <glyph glyph-name="nine.posf" horiz-adv-x="552" 
d="M493 216l-22 -131q-23 -138 -91.5 -203t-191.5 -65q-47 0 -92 11t-93 35l49 103q38 -19 71 -28.5t64 -9.5q73 0 114 38.5t55 118.5l8 48q-39 -32 -78 -47.5t-78 -15.5q-83 0 -127.5 61.5t-31.5 156.5l3 22q13 97 75.5 152t161.5 55q115 0 171 -83t33 -218zM169 310
l-3 -20q-8 -53 12 -82.5t66 -29.5q32 0 70.5 14.5t67.5 39.5q12 85 -13 129.5t-84 44.5q-45 0 -77 -26.5t-39 -69.5z" />
    <glyph glyph-name="zero.numerator" horiz-adv-x="326" 
d="M235 685q64 0 96 -39t21 -105l-10 -61q-12 -74 -47 -109.5t-95 -35.5q-65 0 -97 39.5t-21 105.5l10 61q12 73 47.5 108.5t95.5 35.5zM262 480l10 61q5 35 -4.5 52t-34.5 17q-24 0 -39 -17t-21 -52l-10 -61q-6 -34 3.5 -51.5t34.5 -17.5q26 0 40.5 16.5t20.5 52.5z" />
    <glyph glyph-name="one.numerator" horiz-adv-x="220" 
d="M106 568l-23 64l105 48h60l-60 -340h-79l44 249z" />
    <glyph glyph-name="two.numerator" horiz-adv-x="269" 
d="M128 413h142l-13 -73h-221l12 68q8 48 29 74.5t67 45.5l37 15q20 8 29 16.5t11 20.5l1 3q2 13 -7.5 20t-30.5 7q-15 0 -33.5 -4t-51.5 -15l-13 71q28 12 54.5 17.5t52.5 5.5q59 0 86.5 -26t21.5 -73l-1 -9q-4 -33 -26.5 -57.5t-66.5 -41.5l-37 -15q-19 -7 -29 -19
t-13 -31z" />
    <glyph glyph-name="three.numerator" horiz-adv-x="275" 
d="M275 437l-2 -12q-8 -46 -40 -68t-91 -22q-28 0 -53.5 5.5t-46.5 15.5l23 70q19 -8 38 -11.5t39 -3.5q26 0 39 7t16 22l1 7q2 15 -7.5 24t-29.5 9h-51l11 64h51q19 0 31 8t14 22l1 7q3 15 -6.5 22t-33.5 7q-16 0 -34.5 -3.5t-41.5 -11.5l-17 70q27 10 52 15t49 5
q60 0 89.5 -26t23.5 -70l-1 -7q-3 -25 -18 -43.5t-41 -28.5q22 -13 31 -31.5t5 -41.5z" />
    <glyph glyph-name="four.numerator" horiz-adv-x="274" 
d="M302 476l-12 -69h-34l-12 -67h-73l12 67h-143l11 64q46 56 82.5 108.5t63.5 100.5h85q-28 -52 -63.5 -103t-78.5 -101h55l8 46h73l-8 -46h34z" />
    <glyph glyph-name="five.numerator" horiz-adv-x="276" 
d="M114 479l-32 37l39 164h191l-12 -69h-126l-14 -58q8 2 15.5 2.5t15.5 0.5q54 0 79.5 -28.5t16.5 -79.5l-3 -16q-9 -49 -42.5 -73t-90.5 -24q-27 0 -52 5.5t-51 16.5l23 71q21 -9 40.5 -13t40.5 -4q25 0 37.5 8t15.5 25l3 14q2 16 -7.5 24t-31.5 8q-13 0 -26 -2.5
t-29 -8.5z" />
    <glyph glyph-name="six.numerator" horiz-adv-x="303" 
d="M322 455l-2 -16q-7 -50 -39.5 -77t-86.5 -27q-64 0 -93.5 39t-17.5 108l11 64q13 71 48.5 105t99.5 34q26 0 49 -4.5t46 -14.5l-23 -71q-18 8 -35.5 12t-37.5 4q-30 0 -47.5 -16.5t-23.5 -48.5l-2 -9q17 11 34.5 16.5t36.5 5.5q45 0 67 -28t16 -76zM211 490q-13 0 -26 -5
t-28 -16q-4 -30 6 -45.5t34 -15.5q19 0 31 8.5t14 23.5l2 16q2 16 -6.5 25t-26.5 9z" />
    <glyph glyph-name="seven.numerator" horiz-adv-x="253" 
d="M314 680l-13 -71q-51 -78 -85.5 -144t-56.5 -125h-84q26 69 60.5 134.5t77.5 129.5h-143l13 76h231z" />
    <glyph glyph-name="eight.numerator" horiz-adv-x="303" 
d="M267 521q20 -14 30.5 -33t10.5 -42q0 -49 -37 -80t-100 -31q-54 0 -83.5 21t-29.5 59q0 26 16.5 48.5t50.5 41.5q-16 14 -24.5 32t-8.5 41q0 48 33.5 77.5t91.5 29.5q52 0 81.5 -21.5t29.5 -59.5q0 -25 -14.5 -45t-46.5 -38zM169 580q0 -10 7 -17.5t21 -12.5l22 -8
q16 12 23 23t7 25q0 12 -9 18.5t-26 6.5q-21 0 -33 -9.5t-12 -25.5zM138 432q0 -13 10.5 -20t29.5 -7q23 0 37.5 10t14.5 27q0 10 -8 17t-24 13l-26 9q-18 -13 -26 -24t-8 -25z" />
    <glyph glyph-name="nine.numerator" horiz-adv-x="303" 
d="M319 538l-11 -64q-13 -71 -48.5 -105t-99.5 -34q-26 0 -49 4.5t-46 14.5l23 71q18 -8 35.5 -12t37.5 -4q30 0 47.5 16.5t23.5 48.5l2 9q-17 -11 -34.5 -16.5t-36.5 -5.5q-45 0 -67 28t-16 76l2 16q7 50 39.5 77t86.5 27q64 0 93.5 -39t17.5 -108zM160 580l-2 -16
q-2 -16 6.5 -25t26.5 -9q13 0 26 5t28 16q4 30 -6 45.5t-34 15.5q-19 0 -31 -8.5t-14 -23.5z" />
    <glyph glyph-name="zero.denominator" horiz-adv-x="326" 
d="M176 345q64 0 96 -39t21 -105l-10 -61q-12 -74 -47 -109.5t-95 -35.5q-65 0 -97 39.5t-21 105.5l10 61q12 73 47.5 108.5t95.5 35.5zM203 140l10 61q5 35 -4.5 52t-34.5 17q-24 0 -39 -17t-21 -52l-10 -61q-6 -34 3.5 -51.5t34.5 -17.5q26 0 40.5 16.5t20.5 52.5z" />
    <glyph glyph-name="one.denominator" horiz-adv-x="220" 
d="M47 228l-23 64l105 48h60l-60 -340h-79l44 249z" />
    <glyph glyph-name="two.denominator" horiz-adv-x="269" 
d="M69 73h142l-13 -73h-221l12 68q8 48 29 74.5t67 45.5l37 15q20 8 29 16.5t11 20.5l1 3q2 13 -7.5 20t-30.5 7q-15 0 -33.5 -4t-51.5 -15l-13 71q28 12 54.5 17.5t52.5 5.5q59 0 86.5 -26t21.5 -73l-1 -9q-4 -33 -26.5 -57.5t-66.5 -41.5l-37 -15q-19 -7 -29 -19t-13 -31z
" />
    <glyph glyph-name="three.denominator" horiz-adv-x="275" 
d="M216 97l-2 -12q-8 -46 -40 -68t-91 -22q-28 0 -53.5 5.5t-46.5 15.5l23 70q19 -8 38 -11.5t39 -3.5q26 0 39 7t16 22l1 7q2 15 -7.5 24t-29.5 9h-51l11 64h51q19 0 31 8t14 22l1 7q3 15 -6.5 22t-33.5 7q-16 0 -34.5 -3.5t-41.5 -11.5l-17 70q27 10 52 15t49 5
q60 0 89.5 -26t23.5 -70l-1 -7q-3 -25 -18 -43.5t-41 -28.5q22 -13 31 -31.5t5 -41.5z" />
    <glyph glyph-name="four.denominator" horiz-adv-x="274" 
d="M243 136l-12 -69h-34l-12 -67h-73l12 67h-143l11 64q46 56 82.5 108.5t63.5 100.5h85q-28 -52 -63.5 -103t-78.5 -101h55l8 46h73l-8 -46h34z" />
    <glyph glyph-name="five.denominator" horiz-adv-x="276" 
d="M55 139l-32 37l39 164h191l-12 -69h-126l-14 -58q8 2 15.5 2.5t15.5 0.5q54 0 79.5 -28.5t16.5 -79.5l-3 -16q-9 -49 -42.5 -73t-90.5 -24q-27 0 -52 5.5t-51 16.5l23 71q21 -9 40.5 -13t40.5 -4q25 0 37.5 8t15.5 25l3 14q2 16 -7.5 24t-31.5 8q-13 0 -26 -2.5t-29 -8.5
z" />
    <glyph glyph-name="six.denominator" horiz-adv-x="303" 
d="M263 115l-2 -16q-7 -50 -39.5 -77t-86.5 -27q-64 0 -93.5 39t-17.5 108l11 64q13 71 48.5 105t99.5 34q26 0 49 -4.5t46 -14.5l-23 -71q-18 8 -35.5 12t-37.5 4q-30 0 -47.5 -16.5t-23.5 -48.5l-2 -9q17 11 34.5 16.5t36.5 5.5q45 0 67 -28t16 -76zM152 150q-13 0 -26 -5
t-28 -16q-4 -30 6 -45.5t34 -15.5q19 0 31 8.5t14 23.5l2 16q2 16 -6.5 25t-26.5 9z" />
    <glyph glyph-name="seven.denominator" horiz-adv-x="253" 
d="M255 340l-13 -71q-51 -78 -85.5 -144t-56.5 -125h-84q26 69 60.5 134.5t77.5 129.5h-143l13 76h231z" />
    <glyph glyph-name="eight.denominator" horiz-adv-x="303" 
d="M208 181q20 -14 30.5 -33t10.5 -42q0 -49 -37 -80t-100 -31q-54 0 -83.5 21t-29.5 59q0 26 16.5 48.5t50.5 41.5q-16 14 -24.5 32t-8.5 41q0 48 33.5 77.5t91.5 29.5q52 0 81.5 -21.5t29.5 -59.5q0 -25 -14.5 -45t-46.5 -38zM110 240q0 -10 7 -17.5t21 -12.5l22 -8
q16 12 23 23t7 25q0 12 -9 18.5t-26 6.5q-21 0 -33 -9.5t-12 -25.5zM79 92q0 -13 10.5 -20t29.5 -7q23 0 37.5 10t14.5 27q0 10 -8 17t-24 13l-26 9q-18 -13 -26 -24t-8 -25z" />
    <glyph glyph-name="nine.denominator" horiz-adv-x="303" 
d="M260 198l-11 -64q-13 -71 -48.5 -105t-99.5 -34q-26 0 -49 4.5t-46 14.5l23 71q18 -8 35.5 -12t37.5 -4q30 0 47.5 16.5t23.5 48.5l2 9q-17 -11 -34.5 -16.5t-36.5 -5.5q-45 0 -67 28t-16 76l2 16q7 50 39.5 77t86.5 27q64 0 93.5 -39t17.5 -108zM101 240l-2 -16
q-2 -16 6.5 -25t26.5 -9q13 0 26 5t28 16q4 30 -6 45.5t-34 15.5q-19 0 -31 -8.5t-14 -23.5z" />
    <glyph glyph-name="onefifth" horiz-adv-x="657" 
d="M106 568l-23 64l105 48h60l-60 -340h-79l44 249zM51 0l445 680h94l-445 -680h-94zM436 139l-32 37l39 164h191l-12 -69h-126l-14 -58q8 2 15.5 2.5t15.5 0.5q54 0 79.5 -28.5t16.5 -79.5l-3 -16q-9 -49 -42.5 -73t-90.5 -24q-27 0 -52 5.5t-51 16.5l23 71q21 -9 40.5 -13
t40.5 -4q25 0 37.5 8t15.5 25l3 14q2 16 -7.5 24t-31.5 8q-13 0 -26 -2.5t-29 -8.5z" />
    <glyph glyph-name="onesixth" horiz-adv-x="676" 
d="M106 568l-23 64l105 48h60l-60 -340h-79l44 249zM51 0l445 680h94l-445 -680h-94zM636 115l-2 -16q-7 -50 -39.5 -77t-86.5 -27q-64 0 -93.5 39t-17.5 108l11 64q13 71 48.5 105t99.5 34q26 0 49 -4.5t46 -14.5l-23 -71q-18 8 -35.5 12t-37.5 4q-30 0 -47.5 -16.5
t-23.5 -48.5l-2 -9q17 11 34.5 16.5t36.5 5.5q45 0 67 -28t16 -76zM525 150q-13 0 -26 -5t-28 -16q-4 -30 6 -45.5t34 -15.5q19 0 31 8.5t14 23.5l2 16q2 16 -6.5 25t-26.5 9z" />
    <glyph glyph-name="oneseventh" horiz-adv-x="664" 
d="M106 568l-23 64l105 48h60l-60 -340h-79l44 249zM51 0l445 680h94l-445 -680h-94zM666 340l-13 -71q-51 -78 -85.5 -144t-56.5 -125h-84q26 69 60.5 134.5t77.5 129.5h-143l13 76h231z" />
    <glyph glyph-name="oneninth" horiz-adv-x="684" 
d="M106 568l-23 64l105 48h60l-60 -340h-79l44 249zM51 0l445 680h94l-445 -680h-94zM641 198l-11 -64q-13 -71 -48.5 -105t-99.5 -34q-26 0 -49 4.5t-46 14.5l23 71q18 -8 35.5 -12t37.5 -4q30 0 47.5 16.5t23.5 48.5l2 9q-17 -11 -34.5 -16.5t-36.5 -5.5q-45 0 -67 28
t-16 76l2 16q7 50 39.5 77t86.5 27q64 0 93.5 -39t17.5 -108zM482 240l-2 -16q-2 -16 6.5 -25t26.5 -9q13 0 26 5t28 16q4 30 -6 45.5t-34 15.5q-19 0 -31 -8.5t-14 -23.5z" />
    <glyph glyph-name="twofifths" horiz-adv-x="706" 
d="M128 413h142l-13 -73h-221l12 68q8 48 29 74.5t67 45.5l37 15q20 8 29 16.5t11 20.5l1 3q2 13 -7.5 20t-30.5 7q-15 0 -33.5 -4t-51.5 -15l-13 71q28 12 54.5 17.5t52.5 5.5q59 0 86.5 -26t21.5 -73l-1 -9q-4 -33 -26.5 -57.5t-66.5 -41.5l-37 -15q-19 -7 -29 -19
t-13 -31zM100 0l445 680h94l-445 -680h-94zM485 139l-32 37l39 164h191l-12 -69h-126l-14 -58q8 2 15.5 2.5t15.5 0.5q54 0 79.5 -28.5t16.5 -79.5l-3 -16q-9 -49 -42.5 -73t-90.5 -24q-27 0 -52 5.5t-51 16.5l23 71q21 -9 40.5 -13t40.5 -4q25 0 37.5 8t15.5 25l3 14
q2 16 -7.5 24t-31.5 8q-13 0 -26 -2.5t-29 -8.5z" />
    <glyph glyph-name="twosevenths" horiz-adv-x="713" 
d="M128 413h142l-13 -73h-221l12 68q8 48 29 74.5t67 45.5l37 15q20 8 29 16.5t11 20.5l1 3q2 13 -7.5 20t-30.5 7q-15 0 -33.5 -4t-51.5 -15l-13 71q28 12 54.5 17.5t52.5 5.5q59 0 86.5 -26t21.5 -73l-1 -9q-4 -33 -26.5 -57.5t-66.5 -41.5l-37 -15q-19 -7 -29 -19
t-13 -31zM100 0l445 680h94l-445 -680h-94zM715 340l-13 -71q-51 -78 -85.5 -144t-56.5 -125h-84q26 69 60.5 134.5t77.5 129.5h-143l13 76h231z" />
    <glyph glyph-name="twoninths" horiz-adv-x="733" 
d="M128 413h142l-13 -73h-221l12 68q8 48 29 74.5t67 45.5l37 15q20 8 29 16.5t11 20.5l1 3q2 13 -7.5 20t-30.5 7q-15 0 -33.5 -4t-51.5 -15l-13 71q28 12 54.5 17.5t52.5 5.5q59 0 86.5 -26t21.5 -73l-1 -9q-4 -33 -26.5 -57.5t-66.5 -41.5l-37 -15q-19 -7 -29 -19
t-13 -31zM100 0l445 680h94l-445 -680h-94zM690 198l-11 -64q-13 -71 -48.5 -105t-99.5 -34q-26 0 -49 4.5t-46 14.5l23 71q18 -8 35.5 -12t37.5 -4q30 0 47.5 16.5t23.5 48.5l2 9q-17 -11 -34.5 -16.5t-36.5 -5.5q-45 0 -67 28t-16 76l2 16q7 50 39.5 77t86.5 27
q64 0 93.5 -39t17.5 -108zM531 240l-2 -16q-2 -16 6.5 -25t26.5 -9q13 0 26 5t28 16q4 30 -6 45.5t-34 15.5q-19 0 -31 -8.5t-14 -23.5z" />
    <glyph glyph-name="threefifths" horiz-adv-x="697" 
d="M275 437l-2 -12q-8 -46 -40 -68t-91 -22q-28 0 -53.5 5.5t-46.5 15.5l23 70q19 -8 38 -11.5t39 -3.5q26 0 39 7t16 22l1 7q2 15 -7.5 24t-29.5 9h-51l11 64h51q19 0 31 8t14 22l1 7q3 15 -6.5 22t-33.5 7q-16 0 -34.5 -3.5t-41.5 -11.5l-17 70q27 10 52 15t49 5
q60 0 89.5 -26t23.5 -70l-1 -7q-3 -25 -18 -43.5t-41 -28.5q22 -13 31 -31.5t5 -41.5zM91 0l445 680h94l-445 -680h-94zM476 139l-32 37l39 164h191l-12 -69h-126l-14 -58q8 2 15.5 2.5t15.5 0.5q54 0 79.5 -28.5t16.5 -79.5l-3 -16q-9 -49 -42.5 -73t-90.5 -24
q-27 0 -52 5.5t-51 16.5l23 71q21 -9 40.5 -13t40.5 -4q25 0 37.5 8t15.5 25l3 14q2 16 -7.5 24t-31.5 8q-13 0 -26 -2.5t-29 -8.5z" />
    <glyph glyph-name="threesevenths" horiz-adv-x="704" 
d="M275 437l-2 -12q-8 -46 -40 -68t-91 -22q-28 0 -53.5 5.5t-46.5 15.5l23 70q19 -8 38 -11.5t39 -3.5q26 0 39 7t16 22l1 7q2 15 -7.5 24t-29.5 9h-51l11 64h51q19 0 31 8t14 22l1 7q3 15 -6.5 22t-33.5 7q-16 0 -34.5 -3.5t-41.5 -11.5l-17 70q27 10 52 15t49 5
q60 0 89.5 -26t23.5 -70l-1 -7q-3 -25 -18 -43.5t-41 -28.5q22 -13 31 -31.5t5 -41.5zM91 0l445 680h94l-445 -680h-94zM706 340l-13 -71q-51 -78 -85.5 -144t-56.5 -125h-84q26 69 60.5 134.5t77.5 129.5h-143l13 76h231z" />
    <glyph glyph-name="fourfifths" horiz-adv-x="721" 
d="M302 476l-12 -69h-34l-12 -67h-73l12 67h-143l11 64q46 56 82.5 108.5t63.5 100.5h85q-28 -52 -63.5 -103t-78.5 -101h55l8 46h73l-8 -46h34zM115 0l445 680h94l-445 -680h-94zM500 139l-32 37l39 164h191l-12 -69h-126l-14 -58q8 2 15.5 2.5t15.5 0.5q54 0 79.5 -28.5
t16.5 -79.5l-3 -16q-9 -49 -42.5 -73t-90.5 -24q-27 0 -52 5.5t-51 16.5l23 71q21 -9 40.5 -13t40.5 -4q25 0 37.5 8t15.5 25l3 14q2 16 -7.5 24t-31.5 8q-13 0 -26 -2.5t-29 -8.5z" />
    <glyph glyph-name="foursevenths" horiz-adv-x="728" 
d="M302 476l-12 -69h-34l-12 -67h-73l12 67h-143l11 64q46 56 82.5 108.5t63.5 100.5h85q-28 -52 -63.5 -103t-78.5 -101h55l8 46h73l-8 -46h34zM115 0l445 680h94l-445 -680h-94zM730 340l-13 -71q-51 -78 -85.5 -144t-56.5 -125h-84q26 69 60.5 134.5t77.5 129.5h-143
l13 76h231z" />
    <glyph glyph-name="fourninths" horiz-adv-x="748" 
d="M302 476l-12 -69h-34l-12 -67h-73l12 67h-143l11 64q46 56 82.5 108.5t63.5 100.5h85q-28 -52 -63.5 -103t-78.5 -101h55l8 46h73l-8 -46h34zM115 0l445 680h94l-445 -680h-94zM705 198l-11 -64q-13 -71 -48.5 -105t-99.5 -34q-26 0 -49 4.5t-46 14.5l23 71
q18 -8 35.5 -12t37.5 -4q30 0 47.5 16.5t23.5 48.5l2 9q-17 -11 -34.5 -16.5t-36.5 -5.5q-45 0 -67 28t-16 76l2 16q7 50 39.5 77t86.5 27q64 0 93.5 -39t17.5 -108zM546 240l-2 -16q-2 -16 6.5 -25t26.5 -9q13 0 26 5t28 16q4 30 -6 45.5t-34 15.5q-19 0 -31 -8.5
t-14 -23.5z" />
    <glyph glyph-name="fivesixths" horiz-adv-x="722" 
d="M114 479l-32 37l39 164h191l-12 -69h-126l-14 -58q8 2 15.5 2.5t15.5 0.5q54 0 79.5 -28.5t16.5 -79.5l-3 -16q-9 -49 -42.5 -73t-90.5 -24q-27 0 -52 5.5t-51 16.5l23 71q21 -9 40.5 -13t40.5 -4q25 0 37.5 8t15.5 25l3 14q2 16 -7.5 24t-31.5 8q-13 0 -26 -2.5
t-29 -8.5zM97 0l445 680h94l-445 -680h-94zM682 115l-2 -16q-7 -50 -39.5 -77t-86.5 -27q-64 0 -93.5 39t-17.5 108l11 64q13 71 48.5 105t99.5 34q26 0 49 -4.5t46 -14.5l-23 -71q-18 8 -35.5 12t-37.5 4q-30 0 -47.5 -16.5t-23.5 -48.5l-2 -9q17 11 34.5 16.5t36.5 5.5
q45 0 67 -28t16 -76zM571 150q-13 0 -26 -5t-28 -16q-4 -30 6 -45.5t34 -15.5q19 0 31 8.5t14 23.5l2 16q2 16 -6.5 25t-26.5 9z" />
    <glyph glyph-name="fivesevenths" horiz-adv-x="710" 
d="M114 479l-32 37l39 164h191l-12 -69h-126l-14 -58q8 2 15.5 2.5t15.5 0.5q54 0 79.5 -28.5t16.5 -79.5l-3 -16q-9 -49 -42.5 -73t-90.5 -24q-27 0 -52 5.5t-51 16.5l23 71q21 -9 40.5 -13t40.5 -4q25 0 37.5 8t15.5 25l3 14q2 16 -7.5 24t-31.5 8q-13 0 -26 -2.5
t-29 -8.5zM97 0l445 680h94l-445 -680h-94zM712 340l-13 -71q-51 -78 -85.5 -144t-56.5 -125h-84q26 69 60.5 134.5t77.5 129.5h-143l13 76h231z" />
    <glyph glyph-name="fiveninths" horiz-adv-x="730" 
d="M114 479l-32 37l39 164h191l-12 -69h-126l-14 -58q8 2 15.5 2.5t15.5 0.5q54 0 79.5 -28.5t16.5 -79.5l-3 -16q-9 -49 -42.5 -73t-90.5 -24q-27 0 -52 5.5t-51 16.5l23 71q21 -9 40.5 -13t40.5 -4q25 0 37.5 8t15.5 25l3 14q2 16 -7.5 24t-31.5 8q-13 0 -26 -2.5
t-29 -8.5zM97 0l445 680h94l-445 -680h-94zM687 198l-11 -64q-13 -71 -48.5 -105t-99.5 -34q-26 0 -49 4.5t-46 14.5l23 71q18 -8 35.5 -12t37.5 -4q30 0 47.5 16.5t23.5 48.5l2 9q-17 -11 -34.5 -16.5t-36.5 -5.5q-45 0 -67 28t-16 76l2 16q7 50 39.5 77t86.5 27
q64 0 93.5 -39t17.5 -108zM528 240l-2 -16q-2 -16 6.5 -25t26.5 -9q13 0 26 5t28 16q4 30 -6 45.5t-34 15.5q-19 0 -31 -8.5t-14 -23.5z" />
    <glyph glyph-name="sixsevenths" horiz-adv-x="732" 
d="M322 455l-2 -16q-7 -50 -39.5 -77t-86.5 -27q-64 0 -93.5 39t-17.5 108l11 64q13 71 48.5 105t99.5 34q26 0 49 -4.5t46 -14.5l-23 -71q-18 8 -35.5 12t-37.5 4q-30 0 -47.5 -16.5t-23.5 -48.5l-2 -9q17 11 34.5 16.5t36.5 5.5q45 0 67 -28t16 -76zM211 490q-13 0 -26 -5
t-28 -16q-4 -30 6 -45.5t34 -15.5q19 0 31 8.5t14 23.5l2 16q2 16 -6.5 25t-26.5 9zM119 0l445 680h94l-445 -680h-94zM734 340l-13 -71q-51 -78 -85.5 -144t-56.5 -125h-84q26 69 60.5 134.5t77.5 129.5h-143l13 76h231z" />
    <glyph glyph-name="sevenninths" horiz-adv-x="697" 
d="M314 680l-13 -71q-51 -78 -85.5 -144t-56.5 -125h-84q26 69 60.5 134.5t77.5 129.5h-143l13 76h231zM64 0l445 680h94l-445 -680h-94zM654 198l-11 -64q-13 -71 -48.5 -105t-99.5 -34q-26 0 -49 4.5t-46 14.5l23 71q18 -8 35.5 -12t37.5 -4q30 0 47.5 16.5t23.5 48.5l2 9
q-17 -11 -34.5 -16.5t-36.5 -5.5q-45 0 -67 28t-16 76l2 16q7 50 39.5 77t86.5 27q64 0 93.5 -39t17.5 -108zM495 240l-2 -16q-2 -16 6.5 -25t26.5 -9q13 0 26 5t28 16q4 30 -6 45.5t-34 15.5q-19 0 -31 -8.5t-14 -23.5z" />
    <glyph glyph-name="eightninths" horiz-adv-x="751" 
d="M267 521q20 -14 30.5 -33t10.5 -42q0 -49 -37 -80t-100 -31q-54 0 -83.5 21t-29.5 59q0 26 16.5 48.5t50.5 41.5q-16 14 -24.5 32t-8.5 41q0 48 33.5 77.5t91.5 29.5q52 0 81.5 -21.5t29.5 -59.5q0 -25 -14.5 -45t-46.5 -38zM169 580q0 -10 7 -17.5t21 -12.5l22 -8
q16 12 23 23t7 25q0 12 -9 18.5t-26 6.5q-21 0 -33 -9.5t-12 -25.5zM138 432q0 -13 10.5 -20t29.5 -7q23 0 37.5 10t14.5 27q0 10 -8 17t-24 13l-26 9q-18 -13 -26 -24t-8 -25zM117 0l445 680h94l-445 -680h-94zM707 198l-11 -64q-13 -71 -48.5 -105t-99.5 -34
q-26 0 -49 4.5t-46 14.5l23 71q18 -8 35.5 -12t37.5 -4q30 0 47.5 16.5t23.5 48.5l2 9q-17 -11 -34.5 -16.5t-36.5 -5.5q-45 0 -67 28t-16 76l2 16q7 50 39.5 77t86.5 27q64 0 93.5 -39t17.5 -108zM548 240l-2 -16q-2 -16 6.5 -25t26.5 -9q13 0 26 5t28 16q4 30 -6 45.5
t-34 15.5q-19 0 -31 -8.5t-14 -23.5z" />
    <glyph glyph-name="at.case" horiz-adv-x="945" 
d="M715 15l30 -92q-60 -27 -128 -41.5t-134 -14.5q-196 0 -311.5 117t-115.5 313q0 212 127 347.5t329 135.5q184 0 301 -112.5t117 -288.5q0 -127 -66 -210.5t-166 -83.5q-49 0 -80.5 20t-43.5 58q-41 -43 -79 -63t-80 -20q-68 0 -99.5 61t-15.5 160l7 44q17 107 70 159.5
t143 52.5q47 0 96.5 -16.5t100.5 -48.5l-42 -240q-7 -36 2.5 -55.5t33.5 -19.5q47 0 81.5 58.5t34.5 143.5q0 135 -87.5 220.5t-227.5 85.5q-158 0 -255.5 -108.5t-97.5 -279.5q0 -155 87 -245t237 -90q59 0 120.5 14t111.5 39zM423 345l-7 -44q-9 -58 1 -87t40 -29
q25 0 51.5 20t56.5 61l30 172q-21 10 -36 14t-29 4q-44 0 -71 -28.5t-36 -82.5z" />
    <glyph glyph-name="questiondown.case" horiz-adv-x="464" 
d="M250 561l21 119h121l-21 -119h-121zM236 97q34 0 73 9t91 29l29 -99q-56 -24 -106.5 -35t-99.5 -11q-108 0 -158.5 54t-32.5 144l4 20q8 39 27.5 68.5t69.5 73.5l38 33q34 30 47 47.5t17 41.5l2 9h120l-3 -18q-7 -43 -27.5 -73.5t-70.5 -73.5l-39 -34q-36 -31 -49 -48.5
t-17 -39.5l-3 -18q-7 -39 15 -59t73 -20z" />
    <glyph glyph-name="exclamdown.case" horiz-adv-x="281" 
d="M134 561l21 119h121l-21 -119h-121zM76 220l59 261h90l-34 -261l-39 -220h-115z" />
    <glyph glyph-name="parenleft.case" horiz-adv-x="334" 
d="M173 248v-22q0 -66 27 -137t77 -135l-89 -65q-61 74 -96.5 166t-35.5 177v31q0 146 71.5 276t219.5 253l66 -85q-129 -114 -184.5 -221.5t-55.5 -237.5z" />
    <glyph glyph-name="parenright.case" horiz-adv-x="334" 
d="M191 432v22q0 66 -27 137t-77 135l89 65q61 -74 96.5 -166t35.5 -177v-31q0 -146 -71.5 -276t-219.5 -253l-66 85q129 114 184.5 221.5t55.5 237.5z" />
    <glyph glyph-name="braceleft.case" horiz-adv-x="382" 
d="M246 -2h89l-17 -100h-81q-100 0 -138 57.5t-2 147.5l35 86q22 54 9 77.5t-61 23.5h-53l17 100h53q49 0 70.5 24t17.5 77l-5 86q-5 98 44 151.5t145 53.5h104l-17 -100h-89q-35 0 -53 -23t-16 -63l5 -86q4 -69 -22.5 -114t-80.5 -61q48 -15 59 -56.5t-16 -108.5l-36 -86
q-16 -40 -6 -63t45 -23z" />
    <glyph glyph-name="braceright.case" horiz-adv-x="382" 
d="M227 189l5 -86q5 -98 -44 -151.5t-145 -53.5h-104l17 100h89q35 0 53 23t16 63l-5 86q-4 69 22.5 114t80.5 61q-48 15 -59 56.5t16 108.5l36 86q16 40 6 63t-45 23h-89l17 100h81q100 0 138 -57.5t2 -147.5l-35 -86q-22 -54 -9 -77.5t61 -23.5h53l-17 -100h-53
q-49 0 -70.5 -24t-17.5 -77z" />
    <glyph glyph-name="bracketleft.case" horiz-adv-x="350" 
d="M163 -2h140l-17 -100h-255l155 883h255l-17 -100h-140z" />
    <glyph glyph-name="bracketright.case" horiz-adv-x="351" 
d="M94 781h255l-155 -883h-255l17 100h141l119 683h-139z" />
    <glyph glyph-name="hyphen.case" horiz-adv-x="404" 
d="M352 285h-304l17 100h304z" />
    <glyph glyph-name="endash.case" horiz-adv-x="604" 
d="M552 285h-504l17 100h504z" />
    <glyph glyph-name="emdash.case" horiz-adv-x="804" 
d="M752 285h-704l17 100h704z" />
    <glyph glyph-name="brokenbar.case" horiz-adv-x="281" 
d="M88 433l67 383h115l-67 -383h-115zM-13 -137l68 383h115l-68 -383h-115z" />
    <glyph glyph-name="bar.case" horiz-adv-x="303" 
d="M-2 -137l168 953h115l-168 -953h-115z" />
    <glyph glyph-name="guillemotleft.case" horiz-adv-x="712" 
d="M168 331l164 -115l-21 -112l-261 195l13 77l330 192l-21 -124zM488 331l164 -115l-21 -112l-261 195l13 77l330 192l-21 -124z" />
    <glyph glyph-name="guillemotright.case" horiz-adv-x="712" 
d="M370 373l-13 -77l-330 -192l21 124l204 113l-164 115l21 112zM690 373l-13 -77l-330 -192l21 124l204 113l-164 115l21 112z" />
    <glyph glyph-name="guilsinglleft.case" horiz-adv-x="392" 
d="M168 331l164 -115l-21 -112l-261 195l13 77l330 192l-21 -124z" />
    <glyph glyph-name="guilsinglright.case" horiz-adv-x="392" 
d="M370 373l-13 -77l-330 -192l21 124l204 113l-164 115l21 112z" />
    <glyph glyph-name="A.alt" horiz-adv-x="730" 
d="M176 412h-113q24 141 92 204.5t195 63.5h207l108 -680h-120l-19 133h-232l-7 -14q-48 -96 -84 -151.5t-75 -92.5q-52 -50 -117.5 -74t-149.5 -24l20 115q92 0 156.5 53t126.5 174l233 456h-61q-71 0 -108 -37.5t-52 -125.5zM477 513l-82 -172l-48 -98h164l-14 98z" />
    <glyph glyph-name="B.alt" horiz-adv-x="775" 
d="M162 412h-113q24 141 92 204.5t195 63.5h219q98 0 147.5 -51t34.5 -137l-5 -30q-6 -38 -26 -67t-53 -47q38 -23 54 -60.5t8 -85.5l-5 -30q-15 -92 -69 -132t-158 -40h-245l101 575h-17q-71 0 -108 -37.5t-52 -125.5zM546 570h-87l-30 -170h87q39 0 63 15.5t29 43.5l6 33
q7 36 -11 57t-57 21zM521 290h-112l-32 -180h112q41 0 67 17t31 47l6 33q7 39 -12 61t-60 22z" />
    <glyph glyph-name="D.alt" horiz-adv-x="828" 
d="M162 412h-113q24 141 92 204.5t195 63.5h232q119 0 180.5 -78t40.5 -200l-22 -123q-24 -138 -97 -208.5t-191 -70.5h-241l101 575h-17q-71 0 -108 -37.5t-52 -125.5zM560 565h-102l-80 -450h107q65 0 104.5 41t54.5 123l22 123q14 78 -13.5 120.5t-92.5 42.5z" />
    <glyph glyph-name="E.alt" horiz-adv-x="725" 
d="M162 412h-113q24 141 92 204.5t195 63.5h406l-20 -115h-264l-29 -163h234l-20 -115h-234l-31 -172h274l-20 -115h-394l101 575h-17q-71 0 -108 -37.5t-52 -125.5z" />
    <glyph glyph-name="F.alt" horiz-adv-x="694" 
d="M162 412h-113q24 141 92 204.5t195 63.5h400l-20 -115h-258l-34 -189h228l-20 -115h-228l-46 -261h-120l101 575h-17q-71 0 -108 -37.5t-52 -125.5z" />
    <glyph glyph-name="G.alt" horiz-adv-x="604" 
d="M581 374l-60 -343q-26 -149 -95.5 -201.5t-223.5 -52.5l19 105q99 0 137.5 31t53.5 117q-27 -10 -53.5 -14.5t-52.5 -4.5q-118 0 -179 81.5t-40 208.5l17 101q25 145 100.5 216.5t205.5 71.5q48 0 94.5 -10.5t94.5 -31.5l-45 -105q-45 18 -80.5 26t-68.5 8
q-72 0 -118 -45.5t-60 -129.5l-17 -101q-14 -85 16.5 -131t102.5 -46q23 0 47.5 4.5t55.5 14.5l22 126h-111l19 105h219z" />
    <glyph glyph-name="H.alt" horiz-adv-x="871" 
d="M162 412h-113q24 141 92 204.5t195 63.5h142l-49 -278h254l49 278h120l-120 -680h-120l51 287h-254l-51 -287h-120l101 575h-17q-71 0 -108 -37.5t-52 -125.5z" />
    <glyph glyph-name="J.alt" horiz-adv-x="495" 
d="M162 412h-113q24 141 92 204.5t195 63.5h158l-77 -436q-26 -149 -95.5 -201.5t-223.5 -52.5l21 115q93 0 128.5 29t49.5 110l58 331h-33q-71 0 -108 -37.5t-52 -125.5z" />
    <glyph glyph-name="K.alt" horiz-adv-x="803" 
d="M162 412h-113q24 141 92 204.5t195 63.5h142l-55 -313q86 82 152.5 158.5t118.5 154.5h138q-57 -82 -119.5 -157t-131.5 -144l161 -379h-137l-119 303q-11 -10 -23.5 -22t-65.5 -59l-39 -222h-120l101 575h-17q-71 0 -108 -37.5t-52 -125.5z" />
    <glyph glyph-name="L.alt" horiz-adv-x="696" 
d="M162 412h-113q24 141 92 204.5t195 63.5h142l-100 -565h272l-20 -115h-392l101 575h-17q-71 0 -108 -37.5t-52 -125.5z" />
    <glyph glyph-name="M.alt" horiz-adv-x="1018" 
d="M336 680h148l108 -468l274 468h133l-120 -680h-115l46 260l56 232l-242 -412h-107l-91 418l-27 -238l-46 -260h-115l101 575h-17q-71 0 -108 -37.5t-52 -125.5h-113q24 141 92 204.5t195 63.5z" />
    <glyph glyph-name="N.alt" horiz-adv-x="872" 
d="M162 412h-113q24 141 92 204.5t195 63.5h132q66 -133 111 -240.5t87 -230.5l26 211l46 260h115l-120 -680h-110q-40 133 -86.5 254.5t-103.5 246.5l-34 -241l-46 -260h-115l101 575h-17q-71 0 -108 -37.5t-52 -125.5z" />
    <glyph glyph-name="P.alt" horiz-adv-x="763" 
d="M162 412h-113q24 141 92 204.5t195 63.5h233q104 0 154.5 -56.5t35.5 -153.5l-9 -56q-14 -90 -74 -137t-160 -47h-117l-41 -230h-120l101 575h-17q-71 0 -108 -37.5t-52 -125.5zM562 565h-104l-39 -220h104q44 0 71.5 19.5t33.5 54.5l9 53q8 44 -12 68.5t-63 24.5z" />
    <glyph glyph-name="R.alt" horiz-adv-x="798" 
d="M162 412h-113q24 141 92 204.5t195 63.5h236q104 0 156 -57t35 -150l-8 -45q-10 -56 -41.5 -96.5t-81.5 -61.5q29 -67 51.5 -134.5t38.5 -135.5h-130q-14 63 -32.5 126t-42.5 124h-115l-44 -250h-120l101 575h-17q-71 0 -108 -37.5t-52 -125.5zM566 570h-107l-37 -210
h106q43 0 70.5 19.5t34.5 55.5l8 43q8 43 -11.5 67.5t-63.5 24.5z" />
    <glyph glyph-name="T.alt" horiz-adv-x="641" 
d="M162 412h-113q24 141 92 204.5t195 63.5h367l-20 -115h-190l-100 -565h-120l100 565h-52q-71 0 -108 -35.5t-51 -117.5z" />
    <glyph glyph-name="U.alt" horiz-adv-x="849" 
d="M162 412h-113q24 141 92 204.5t195 63.5h143l-77 -436q-12 -70 12.5 -105.5t84.5 -35.5q61 0 98 35.5t49 105.5l77 436h123l-77 -436q-23 -130 -90.5 -192t-183.5 -62q-119 0 -177.5 69.5t-38.5 184.5l58 331h-15q-71 0 -108 -37.5t-52 -125.5z" />
    <glyph glyph-name="V.alt" horiz-adv-x="819" 
d="M162 412h-113q24 141 92 204.5t195 63.5h102l43 -342l16 -177l81 178l106 222q92 193 189.5 267.5t240.5 74.5l-20 -115q-93 0 -158.5 -53.5t-124.5 -173.5l-277 -561h-123l-82 575h-7q-71 0 -108 -37.5t-52 -125.5z" />
    <glyph glyph-name="W.alt" horiz-adv-x="1099" 
d="M745 0l-42 506l-221 -506h-123l-28 575h-9q-71 0 -108 -37.5t-52 -125.5h-113q23 138 89 202t188 66h127l4 -269l-6 -252l228 521h108l44 -516l85 247l33 90q83 226 184.5 314t272.5 88l-20 -115q-72 0 -119 -20t-86 -65q-30 -33 -57.5 -83t-55.5 -119l-200 -501h-123z
" />
    <glyph glyph-name="X.alt" horiz-adv-x="728" 
d="M162 412h-113q24 142 87 205t180 63h80l91 -230l163 230h133l-250 -341l135 -339h-129l-97 243l-173 -243h-133l260 354l-87 221h-7q-62 0 -93.5 -36.5t-46.5 -126.5z" />
    <glyph glyph-name="Y.alt" horiz-adv-x="763" 
d="M162 412h-113q24 142 87 205t180 63h105l93 -289l190 289h131l-279 -406l-49 -274h-120l48 271l-103 304h-30q-62 0 -93.5 -36.5t-46.5 -126.5z" />
    <glyph glyph-name="Aacute.alt" horiz-adv-x="730" 
d="M176 412h-113q24 141 92 204.5t195 63.5h207l108 -680h-120l-19 133h-232l-7 -14q-48 -96 -84 -151.5t-75 -92.5q-52 -50 -117.5 -74t-149.5 -24l20 115q92 0 156.5 53t126.5 174l233 456h-61q-71 0 -108 -37.5t-52 -125.5zM477 513l-82 -172l-48 -98h164l-14 98z
M692 872l-124 -120h-106l125 166z" />
    <glyph glyph-name="Acircumflex.alt" horiz-adv-x="730" 
d="M176 412h-113q24 141 92 204.5t195 63.5h207l108 -680h-120l-19 133h-232l-7 -14q-48 -96 -84 -151.5t-75 -92.5q-52 -50 -117.5 -74t-149.5 -24l20 115q92 0 156.5 53t126.5 174l233 456h-61q-71 0 -108 -37.5t-52 -125.5zM477 513l-82 -172l-48 -98h164l-14 98z
M666 752h-88l-47 80l-75 -80h-94l124 161h112z" />
    <glyph glyph-name="Adieresis.alt" horiz-adv-x="730" 
d="M176 412h-113q24 141 92 204.5t195 63.5h207l108 -680h-120l-19 133h-232l-7 -14q-48 -96 -84 -151.5t-75 -92.5q-52 -50 -117.5 -74t-149.5 -24l20 115q92 0 156.5 53t126.5 174l233 456h-61q-71 0 -108 -37.5t-52 -125.5zM477 513l-82 -172l-48 -98h164l-14 98z
M496 889l-19 -107h-109l19 107h109zM690 889l-19 -107h-109l19 107h109z" />
    <glyph glyph-name="Agrave.alt" horiz-adv-x="730" 
d="M176 412h-113q24 141 92 204.5t195 63.5h207l108 -680h-120l-19 133h-232l-7 -14q-48 -96 -84 -151.5t-75 -92.5q-52 -50 -117.5 -74t-149.5 -24l20 115q92 0 156.5 53t126.5 174l233 456h-61q-71 0 -108 -37.5t-52 -125.5zM477 513l-82 -172l-48 -98h164l-14 98z
M562 752h-96l-82 120l111 46z" />
    <glyph glyph-name="Aring.alt" horiz-adv-x="601" 
d="M165 133l-7 -14q-48 -96 -84 -151.5t-75 -92.5q-52 -50 -117.5 -74t-149.5 -24l20 115q92 0 156.5 53t126.5 174l263 514q-23 16 -31.5 42t-2.5 58l3 15q10 49 44.5 77t85.5 28q56 0 86.5 -34.5t19.5 -86.5l-3 -15q-6 -30 -22.5 -53t-41.5 -35l100 -629h-120l-19 133
h-232zM431 726l3 15q4 21 -7.5 33.5t-34.5 12.5q-21 0 -36 -12.5t-20 -33.5l-3 -15q-4 -21 6.5 -33.5t33.5 -12.5q22 0 37.5 12.5t20.5 33.5zM348 513l-82 -172l-48 -98h164l-14 98z" />
    <glyph glyph-name="Atilde.alt" horiz-adv-x="730" 
d="M176 412h-113q24 141 92 204.5t195 63.5h207l108 -680h-120l-19 133h-232l-7 -14q-48 -96 -84 -151.5t-75 -92.5q-52 -50 -117.5 -74t-149.5 -24l20 115q92 0 156.5 53t126.5 174l233 456h-61q-71 0 -108 -37.5t-52 -125.5zM477 513l-82 -172l-48 -98h164l-14 98z
M586 761q-24 0 -42.5 10t-40.5 38q-10 14 -15.5 18t-10.5 4q-10 0 -16.5 -14.5t-13.5 -47.5h-81q13 79 40 116.5t72 37.5q24 0 42 -10t39 -38q10 -14 15.5 -18t10.5 -4q10 0 16.5 14.5t13.5 47.5h81q-13 -79 -39.5 -116.5t-70.5 -37.5z" />
    <glyph glyph-name="Abreve.alt" horiz-adv-x="730" 
d="M176 412h-113q24 141 92 204.5t195 63.5h207l108 -680h-120l-19 133h-232l-7 -14q-48 -96 -84 -151.5t-75 -92.5q-52 -50 -117.5 -74t-149.5 -24l20 115q92 0 156.5 53t126.5 174l233 456h-61q-71 0 -108 -37.5t-52 -125.5zM477 513l-82 -172l-48 -98h164l-14 98z
M535 839q22 0 35.5 15.5t21.5 49.5h90q-18 -75 -54.5 -110.5t-97.5 -35.5q-65 0 -94.5 37t-21.5 109h84q-5 -33 4 -49t33 -16z" />
    <glyph glyph-name="Amacron.alt" horiz-adv-x="730" 
d="M176 412h-113q24 141 92 204.5t195 63.5h207l108 -680h-120l-19 133h-232l-7 -14q-48 -96 -84 -151.5t-75 -92.5q-52 -50 -117.5 -74t-149.5 -24l20 115q92 0 156.5 53t126.5 174l233 456h-61q-71 0 -108 -37.5t-52 -125.5zM477 513l-82 -172l-48 -98h164l-14 98z
M383 865h303l-15 -83h-303z" />
    <glyph glyph-name="Aogonek.alt" horiz-adv-x="730" 
d="M176 412h-113q24 141 92 204.5t195 63.5h207l108 -680q-63 -46 -87.5 -70.5t-24.5 -43.5q0 -9 6.5 -14t19.5 -5q10 0 21.5 2t26.5 7l11 -83q-22 -8 -43.5 -12t-43.5 -4q-50 0 -77 21.5t-27 60.5q0 34 24 67.5t74 72.5l-18 134h-233l-7 -14q-47 -96 -83.5 -151.5
t-75.5 -92.5q-52 -50 -117.5 -74t-149.5 -24l20 115q92 0 156.5 53t126.5 174l233 456h-61q-71 0 -108 -37.5t-52 -125.5zM477 513l-82 -172l-48 -98h164l-14 98z" />
    <glyph glyph-name="Dcaron.alt" horiz-adv-x="828" 
d="M162 412h-113q24 141 92 204.5t195 63.5h232q119 0 180.5 -78t40.5 -200l-22 -123q-24 -138 -97 -208.5t-191 -70.5h-241l101 575h-17q-71 0 -108 -37.5t-52 -125.5zM560 565h-102l-80 -450h107q65 0 104.5 41t54.5 123l22 123q14 78 -13.5 120.5t-92.5 42.5zM679 913h94
l-124 -161h-112l-68 161h88l47 -80z" />
    <glyph glyph-name="Eacute.alt" horiz-adv-x="725" 
d="M162 412h-113q24 141 92 204.5t195 63.5h406l-20 -115h-264l-29 -163h234l-20 -115h-234l-31 -172h274l-20 -115h-394l101 575h-17q-71 0 -108 -37.5t-52 -125.5zM737 872l-124 -120h-106l125 166z" />
    <glyph glyph-name="Ecircumflex.alt" horiz-adv-x="725" 
d="M162 412h-113q24 141 92 204.5t195 63.5h406l-20 -115h-264l-29 -163h234l-20 -115h-234l-31 -172h274l-20 -115h-394l101 575h-17q-71 0 -108 -37.5t-52 -125.5zM711 752h-88l-47 80l-75 -80h-94l124 161h112z" />
    <glyph glyph-name="Edieresis.alt" horiz-adv-x="725" 
d="M162 412h-113q24 141 92 204.5t195 63.5h406l-20 -115h-264l-29 -163h234l-20 -115h-234l-31 -172h274l-20 -115h-394l101 575h-17q-71 0 -108 -37.5t-52 -125.5zM542 889l-19 -107h-109l19 107h109zM736 889l-19 -107h-109l19 107h109z" />
    <glyph glyph-name="Egrave.alt" horiz-adv-x="725" 
d="M162 412h-113q24 141 92 204.5t195 63.5h406l-20 -115h-264l-29 -163h234l-20 -115h-234l-31 -172h274l-20 -115h-394l101 575h-17q-71 0 -108 -37.5t-52 -125.5zM607 752h-96l-82 120l111 46z" />
    <glyph glyph-name="Ebreve.alt" horiz-adv-x="725" 
d="M162 412h-113q24 141 92 204.5t195 63.5h406l-20 -115h-264l-29 -163h234l-20 -115h-234l-31 -172h274l-20 -115h-394l101 575h-17q-71 0 -108 -37.5t-52 -125.5zM580 839q22 0 35.5 15.5t21.5 49.5h90q-18 -75 -54.5 -110.5t-97.5 -35.5q-65 0 -94.5 37t-21.5 109h84
q-5 -33 4 -49t33 -16z" />
    <glyph glyph-name="Ecaron.alt" horiz-adv-x="725" 
d="M162 412h-113q24 141 92 204.5t195 63.5h406l-20 -115h-264l-29 -163h234l-20 -115h-234l-31 -172h274l-20 -115h-394l101 575h-17q-71 0 -108 -37.5t-52 -125.5zM645 913h94l-124 -161h-112l-68 161h88l47 -80z" />
    <glyph glyph-name="Edotaccent.alt" horiz-adv-x="725" 
d="M162 412h-113q24 141 92 204.5t195 63.5h406l-20 -115h-264l-29 -163h234l-20 -115h-234l-31 -172h274l-20 -115h-394l101 575h-17q-71 0 -108 -37.5t-52 -125.5zM646 895l-21 -119h-121l21 119h121z" />
    <glyph glyph-name="Emacron.alt" horiz-adv-x="725" 
d="M162 412h-113q24 141 92 204.5t195 63.5h406l-20 -115h-264l-29 -163h234l-20 -115h-234l-31 -172h274l-20 -115h-394l101 575h-17q-71 0 -108 -37.5t-52 -125.5zM429 865h303l-15 -83h-303z" />
    <glyph glyph-name="Eogonek.alt" horiz-adv-x="725" 
d="M162 412h-113q24 141 92 204.5t195 63.5h406l-20 -115h-264l-29 -163h234l-20 -115h-234l-31 -172h274l-20 -115q-63 -46 -87.5 -70.5t-24.5 -43.5q0 -9 6.5 -14t19.5 -5q10 0 21.5 2t26.5 7l11 -83q-22 -8 -43.5 -12t-43.5 -4q-50 0 -77 21.5t-27 60.5q0 32 26 65.5
t83 75.5h-285l101 575h-17q-71 0 -108 -37.5t-52 -125.5z" />
    <glyph glyph-name="Gbreve.alt" horiz-adv-x="604" 
d="M581 374l-60 -343q-26 -149 -95.5 -201.5t-223.5 -52.5l19 105q99 0 137.5 31t53.5 117q-27 -10 -53.5 -14.5t-52.5 -4.5q-118 0 -179 81.5t-40 208.5l17 101q25 145 100.5 216.5t205.5 71.5q48 0 94.5 -10.5t94.5 -31.5l-45 -105q-45 18 -80.5 26t-68.5 8
q-72 0 -118 -45.5t-60 -129.5l-17 -101q-14 -85 16.5 -131t102.5 -46q23 0 47.5 4.5t55.5 14.5l22 126h-111l19 105h219zM432 839q22 0 35.5 15.5t21.5 49.5h90q-18 -75 -54.5 -110.5t-97.5 -35.5q-65 0 -94.5 37t-21.5 109h84q-5 -33 4 -49t33 -16z" />
    <glyph glyph-name="Gcircumflex.alt" horiz-adv-x="604" 
d="M581 374l-60 -343q-26 -149 -95.5 -201.5t-223.5 -52.5l19 105q99 0 137.5 31t53.5 117q-27 -10 -53.5 -14.5t-52.5 -4.5q-118 0 -179 81.5t-40 208.5l17 101q25 145 100.5 216.5t205.5 71.5q48 0 94.5 -10.5t94.5 -31.5l-45 -105q-45 18 -80.5 26t-68.5 8
q-72 0 -118 -45.5t-60 -129.5l-17 -101q-14 -85 16.5 -131t102.5 -46q23 0 47.5 4.5t55.5 14.5l22 126h-111l19 105h219zM563 752h-88l-47 80l-75 -80h-94l124 161h112z" />
    <glyph glyph-name="Gdotaccent.alt" horiz-adv-x="604" 
d="M581 374l-60 -343q-26 -149 -95.5 -201.5t-223.5 -52.5l19 105q99 0 137.5 31t53.5 117q-27 -10 -53.5 -14.5t-52.5 -4.5q-118 0 -179 81.5t-40 208.5l17 101q25 145 100.5 216.5t205.5 71.5q48 0 94.5 -10.5t94.5 -31.5l-45 -105q-45 18 -80.5 26t-68.5 8
q-72 0 -118 -45.5t-60 -129.5l-17 -101q-14 -85 16.5 -131t102.5 -46q23 0 47.5 4.5t55.5 14.5l22 126h-111l19 105h219zM497 895l-21 -119h-121l21 119h121z" />
    <glyph glyph-name="Hcircumflex.alt" horiz-adv-x="871" 
d="M162 412h-113q24 141 92 204.5t195 63.5h142l-49 -278h254l49 278h120l-120 -680h-120l51 287h-254l-51 -287h-120l101 575h-17q-71 0 -108 -37.5t-52 -125.5zM766 752h-88l-47 80l-75 -80h-94l124 161h112z" />
    <glyph glyph-name="Jcircumflex.alt" horiz-adv-x="495" 
d="M162 412h-113q24 141 92 204.5t195 63.5h158l-77 -436q-26 -149 -95.5 -201.5t-223.5 -52.5l21 115q93 0 128.5 29t49.5 110l58 331h-33q-71 0 -108 -37.5t-52 -125.5zM595 752h-88l-47 80l-75 -80h-94l124 161h112z" />
    <glyph glyph-name="Kcommaaccent.alt" horiz-adv-x="803" 
d="M162 412h-113q24 141 92 204.5t195 63.5h142l-55 -313q86 82 152.5 158.5t118.5 154.5h138q-57 -82 -119.5 -157t-131.5 -144l161 -379h-137l-119 303q-11 -10 -23.5 -22t-65.5 -59l-39 -222h-120l101 575h-17q-71 0 -108 -37.5t-52 -125.5zM529 -77l-108 -179l-74 17
l58 162h124z" />
    <glyph glyph-name="Lacute.alt" horiz-adv-x="696" 
d="M162 412h-113q24 141 92 204.5t195 63.5h142l-100 -565h272l-20 -115h-392l101 575h-17q-71 0 -108 -37.5t-52 -125.5zM604 872l-124 -120h-106l125 166z" />
    <glyph glyph-name="Lcaron.alt" horiz-adv-x="696" 
d="M162 412h-113q24 141 92 204.5t195 63.5h142l-100 -565h272l-20 -115h-392l101 575h-17q-71 0 -108 -37.5t-52 -125.5zM687 680l-70 -194h-77l34 194h113z" />
    <glyph glyph-name="Lcommaaccent.alt" horiz-adv-x="696" 
d="M162 412h-113q24 141 92 204.5t195 63.5h142l-100 -565h272l-20 -115h-392l101 575h-17q-71 0 -108 -37.5t-52 -125.5zM486 -77l-108 -179l-74 17l58 162h124z" />
    <glyph glyph-name="Ntilde.alt" horiz-adv-x="872" 
d="M162 412h-113q24 141 92 204.5t195 63.5h132q66 -133 111 -240.5t87 -230.5l26 211l46 260h115l-120 -680h-110q-40 133 -86.5 254.5t-103.5 246.5l-34 -241l-46 -260h-115l101 575h-17q-71 0 -108 -37.5t-52 -125.5zM687 761q-24 0 -42.5 10t-40.5 38q-10 14 -15.5 18
t-10.5 4q-10 0 -16.5 -14.5t-13.5 -47.5h-81q13 79 40 116.5t72 37.5q24 0 42 -10t39 -38q10 -14 15.5 -18t10.5 -4q10 0 16.5 14.5t13.5 47.5h81q-13 -79 -39.5 -116.5t-70.5 -37.5z" />
    <glyph glyph-name="Nacute.alt" horiz-adv-x="872" 
d="M162 412h-113q24 141 92 204.5t195 63.5h132q66 -133 111 -240.5t87 -230.5l26 211l46 260h115l-120 -680h-110q-40 133 -86.5 254.5t-103.5 246.5l-34 -241l-46 -260h-115l101 575h-17q-71 0 -108 -37.5t-52 -125.5zM793 872l-124 -120h-106l125 166z" />
    <glyph glyph-name="Ncaron.alt" horiz-adv-x="872" 
d="M162 412h-113q24 141 92 204.5t195 63.5h132q66 -133 111 -240.5t87 -230.5l26 211l46 260h115l-120 -680h-110q-40 133 -86.5 254.5t-103.5 246.5l-34 -241l-46 -260h-115l101 575h-17q-71 0 -108 -37.5t-52 -125.5zM701 913h94l-124 -161h-112l-68 161h88l47 -80z" />
    <glyph glyph-name="Ncommaaccent.alt" horiz-adv-x="872" 
d="M162 412h-113q24 141 92 204.5t195 63.5h132q66 -133 111 -240.5t87 -230.5l26 211l46 260h115l-120 -680h-110q-40 133 -86.5 254.5t-103.5 246.5l-34 -241l-46 -260h-115l101 575h-17q-71 0 -108 -37.5t-52 -125.5zM534 -77l-108 -179l-74 17l58 162h124z" />
    <glyph glyph-name="Eng.alt" horiz-adv-x="872" 
d="M162 412h-113q24 141 92 204.5t195 63.5h132q66 -133 111 -240.5t87 -230.5l26 211l46 260h115l-115 -649q-26 -148 -95.5 -201t-223.5 -53l21 115q89 0 125.5 27.5t50.5 102.5q-40 128 -84.5 245t-98.5 234l-34 -241l-46 -260h-115l101 575h-17q-71 0 -108 -37.5
t-52 -125.5z" />
    <glyph glyph-name="Racute.alt" horiz-adv-x="798" 
d="M162 412h-113q24 141 92 204.5t195 63.5h236q104 0 156 -57t35 -150l-8 -45q-10 -56 -41.5 -96.5t-81.5 -61.5q29 -67 51.5 -134.5t38.5 -135.5h-130q-14 63 -32.5 126t-42.5 124h-115l-44 -250h-120l101 575h-17q-71 0 -108 -37.5t-52 -125.5zM566 570h-107l-37 -210
h106q43 0 70.5 19.5t34.5 55.5l8 43q8 43 -11.5 67.5t-63.5 24.5zM756 872l-124 -120h-106l125 166z" />
    <glyph glyph-name="Rcaron.alt" horiz-adv-x="798" 
d="M162 412h-113q24 141 92 204.5t195 63.5h236q104 0 156 -57t35 -150l-8 -45q-10 -56 -41.5 -96.5t-81.5 -61.5q29 -67 51.5 -134.5t38.5 -135.5h-130q-14 63 -32.5 126t-42.5 124h-115l-44 -250h-120l101 575h-17q-71 0 -108 -37.5t-52 -125.5zM566 570h-107l-37 -210
h106q43 0 70.5 19.5t34.5 55.5l8 43q8 43 -11.5 67.5t-63.5 24.5zM664 913h94l-124 -161h-112l-68 161h88l47 -80z" />
    <glyph glyph-name="Rcommaaccent.alt" horiz-adv-x="798" 
d="M162 412h-113q24 141 92 204.5t195 63.5h236q104 0 156 -57t35 -150l-8 -45q-10 -56 -41.5 -96.5t-81.5 -61.5q29 -67 51.5 -134.5t38.5 -135.5h-130q-14 63 -32.5 126t-42.5 124h-115l-44 -250h-120l101 575h-17q-71 0 -108 -37.5t-52 -125.5zM566 570h-107l-37 -210
h106q43 0 70.5 19.5t34.5 55.5l8 43q8 43 -11.5 67.5t-63.5 24.5zM518 -77l-108 -179l-74 17l58 162h124z" />
    <glyph glyph-name="Tbar.alt" horiz-adv-x="641" 
d="M571 377l-19 -109h-112l-47 -268h-120l47 268h-112l19 109h113l33 188h-52q-71 0 -108 -35.5t-51 -117.5h-113q24 141 92 204.5t195 63.5h367l-20 -115h-190l-33 -188h111z" />
    <glyph glyph-name="Tcaron.alt" horiz-adv-x="641" 
d="M162 412h-113q24 141 92 204.5t195 63.5h367l-20 -115h-190l-100 -565h-120l100 565h-52q-71 0 -108 -35.5t-51 -117.5zM548 913h94l-124 -161h-112l-68 161h88l47 -80z" />
    <glyph glyph-name="uni0162.alt" horiz-adv-x="641" 
d="M162 412h-113q24 141 92 204.5t195 63.5h367l-20 -115h-190l-100 -565h-120l100 565h-52q-71 0 -108 -35.5t-51 -117.5zM382 -77l-108 -179l-74 17l58 162h124z" />
    <glyph glyph-name="uni021A.alt" horiz-adv-x="641" 
d="M162 412h-113q24 141 92 204.5t195 63.5h367l-20 -115h-190l-100 -565h-120l100 565h-52q-71 0 -108 -35.5t-51 -117.5zM382 -77l-108 -179l-74 17l58 162h124z" />
    <glyph glyph-name="Uacute.alt" horiz-adv-x="849" 
d="M162 412h-113q24 141 92 204.5t195 63.5h143l-77 -436q-12 -70 12.5 -105.5t84.5 -35.5q61 0 98 35.5t49 105.5l77 436h123l-77 -436q-23 -130 -90.5 -192t-183.5 -62q-119 0 -177.5 69.5t-38.5 184.5l58 331h-15q-71 0 -108 -37.5t-52 -125.5zM788 872l-124 -120h-106
l125 166z" />
    <glyph glyph-name="Ucircumflex.alt" horiz-adv-x="849" 
d="M162 412h-113q24 141 92 204.5t195 63.5h143l-77 -436q-12 -70 12.5 -105.5t84.5 -35.5q61 0 98 35.5t49 105.5l77 436h123l-77 -436q-23 -130 -90.5 -192t-183.5 -62q-119 0 -177.5 69.5t-38.5 184.5l58 331h-15q-71 0 -108 -37.5t-52 -125.5zM762 752h-88l-47 80
l-75 -80h-94l124 161h112z" />
    <glyph glyph-name="Udieresis.alt" horiz-adv-x="849" 
d="M162 412h-113q24 141 92 204.5t195 63.5h143l-77 -436q-12 -70 12.5 -105.5t84.5 -35.5q61 0 98 35.5t49 105.5l77 436h123l-77 -436q-23 -130 -90.5 -192t-183.5 -62q-119 0 -177.5 69.5t-38.5 184.5l58 331h-15q-71 0 -108 -37.5t-52 -125.5zM593 889l-19 -107h-109
l19 107h109zM787 889l-19 -107h-109l19 107h109z" />
    <glyph glyph-name="Ugrave.alt" horiz-adv-x="849" 
d="M162 412h-113q24 141 92 204.5t195 63.5h143l-77 -436q-12 -70 12.5 -105.5t84.5 -35.5q61 0 98 35.5t49 105.5l77 436h123l-77 -436q-23 -130 -90.5 -192t-183.5 -62q-119 0 -177.5 69.5t-38.5 184.5l58 331h-15q-71 0 -108 -37.5t-52 -125.5zM658 752h-96l-82 120
l111 46z" />
    <glyph glyph-name="Ubreve.alt" horiz-adv-x="849" 
d="M162 412h-113q24 141 92 204.5t195 63.5h143l-77 -436q-12 -70 12.5 -105.5t84.5 -35.5q61 0 98 35.5t49 105.5l77 436h123l-77 -436q-23 -130 -90.5 -192t-183.5 -62q-119 0 -177.5 69.5t-38.5 184.5l58 331h-15q-71 0 -108 -37.5t-52 -125.5zM631 839q22 0 35.5 15.5
t21.5 49.5h90q-18 -75 -54.5 -110.5t-97.5 -35.5q-65 0 -94.5 37t-21.5 109h84q-5 -33 4 -49t33 -16z" />
    <glyph glyph-name="Uhungarumlaut.alt" horiz-adv-x="849" 
d="M162 412h-113q24 141 92 204.5t195 63.5h143l-77 -436q-12 -70 12.5 -105.5t84.5 -35.5q61 0 98 35.5t49 105.5l77 436h123l-77 -436q-23 -130 -90.5 -192t-183.5 -62q-119 0 -177.5 69.5t-38.5 184.5l58 331h-15q-71 0 -108 -37.5t-52 -125.5zM678 872l-94 -120h-96
l105 166zM828 872l-94 -120h-96l105 166z" />
    <glyph glyph-name="Umacron.alt" horiz-adv-x="849" 
d="M162 412h-113q24 141 92 204.5t195 63.5h143l-77 -436q-12 -70 12.5 -105.5t84.5 -35.5q61 0 98 35.5t49 105.5l77 436h123l-77 -436q-23 -130 -90.5 -192t-183.5 -62q-119 0 -177.5 69.5t-38.5 184.5l58 331h-15q-71 0 -108 -37.5t-52 -125.5zM480 865h303l-15 -83h-303
z" />
    <glyph glyph-name="Uogonek.alt" horiz-adv-x="849" 
d="M162 412h-113q24 141 92 204.5t195 63.5h143l-77 -436q-12 -70 12.5 -105.5t84.5 -35.5q61 0 98 35.5t49 105.5l77 436h123l-77 -436q-13 -74 -40 -125.5t-68 -80.5q-112 -80 -139 -105t-27 -47q0 -9 6.5 -14t19.5 -5q10 0 21.5 2t26.5 7l11 -83q-22 -8 -43.5 -12
t-43.5 -4q-50 0 -77 21.5t-27 60.5q0 31 21.5 62t67.5 69q-111 6 -164.5 74.5t-34.5 179.5l58 331h-15q-71 0 -108 -37.5t-52 -125.5z" />
    <glyph glyph-name="Uring.alt" horiz-adv-x="849" 
d="M162 412h-113q24 141 92 204.5t195 63.5h143l-77 -436q-12 -70 12.5 -105.5t84.5 -35.5q61 0 98 35.5t49 105.5l77 436h123l-77 -436q-23 -130 -90.5 -192t-183.5 -62q-119 0 -177.5 69.5t-38.5 184.5l58 331h-15q-71 0 -108 -37.5t-52 -125.5zM651 976q56 0 86.5 -34.5
t19.5 -86.5l-3 -15q-9 -48 -44.5 -76t-86.5 -28q-56 0 -85.5 33.5t-19.5 86.5l3 15q10 49 44.5 77t85.5 28zM685 849l3 15q4 21 -7.5 33.5t-34.5 12.5q-21 0 -36 -12.5t-20 -33.5l-3 -15q-4 -21 6.5 -33.5t33.5 -12.5q22 0 37.5 12.5t20.5 33.5z" />
    <glyph glyph-name="Utilde.alt" horiz-adv-x="849" 
d="M162 412h-113q24 141 92 204.5t195 63.5h143l-77 -436q-12 -70 12.5 -105.5t84.5 -35.5q61 0 98 35.5t49 105.5l77 436h123l-77 -436q-23 -130 -90.5 -192t-183.5 -62q-119 0 -177.5 69.5t-38.5 184.5l58 331h-15q-71 0 -108 -37.5t-52 -125.5zM682 761q-24 0 -42.5 10
t-40.5 38q-10 14 -15.5 18t-10.5 4q-10 0 -16.5 -14.5t-13.5 -47.5h-81q13 79 40 116.5t72 37.5q24 0 42 -10t39 -38q10 -14 15.5 -18t10.5 -4q10 0 16.5 14.5t13.5 47.5h81q-13 -79 -39.5 -116.5t-70.5 -37.5z" />
    <glyph glyph-name="Wacute.alt" horiz-adv-x="1099" 
d="M745 0l-42 506l-221 -506h-123l-28 575h-9q-71 0 -108 -37.5t-52 -125.5h-113q23 138 89 202t188 66h127l4 -269l-6 -252l228 521h108l44 -516l85 247l33 90q83 226 184.5 314t272.5 88l-20 -115q-72 0 -119 -20t-86 -65q-30 -33 -57.5 -83t-55.5 -119l-200 -501h-123z
M921 872l-124 -120h-106l125 166z" />
    <glyph glyph-name="Wcircumflex.alt" horiz-adv-x="1099" 
d="M745 0l-42 506l-221 -506h-123l-28 575h-9q-71 0 -108 -37.5t-52 -125.5h-113q23 138 89 202t188 66h127l4 -269l-6 -252l228 521h108l44 -516l85 247l33 90q83 226 184.5 314t272.5 88l-20 -115q-72 0 -119 -20t-86 -65q-30 -33 -57.5 -83t-55.5 -119l-200 -501h-123z
M895 752h-88l-47 80l-75 -80h-94l124 161h112z" />
    <glyph glyph-name="Wdieresis.alt" horiz-adv-x="1099" 
d="M745 0l-42 506l-221 -506h-123l-28 575h-9q-71 0 -108 -37.5t-52 -125.5h-113q23 138 89 202t188 66h127l4 -269l-6 -252l228 521h108l44 -516l85 247l33 90q83 226 184.5 314t272.5 88l-20 -115q-72 0 -119 -20t-86 -65q-30 -33 -57.5 -83t-55.5 -119l-200 -501h-123z
M725 889l-19 -107h-109l19 107h109zM919 889l-19 -107h-109l19 107h109z" />
    <glyph glyph-name="Wgrave.alt" horiz-adv-x="1099" 
d="M745 0l-42 506l-221 -506h-123l-28 575h-9q-71 0 -108 -37.5t-52 -125.5h-113q23 138 89 202t188 66h127l4 -269l-6 -252l228 521h108l44 -516l85 247l33 90q83 226 184.5 314t272.5 88l-20 -115q-72 0 -119 -20t-86 -65q-30 -33 -57.5 -83t-55.5 -119l-200 -501h-123z
M791 752h-96l-82 120l111 46z" />
    <glyph glyph-name="Yacute.alt" horiz-adv-x="763" 
d="M162 412h-113q24 142 87 205t180 63h105l93 -289l190 289h131l-279 -406l-49 -274h-120l48 271l-103 304h-30q-62 0 -93.5 -36.5t-46.5 -126.5zM745 872l-124 -120h-106l125 166z" />
    <glyph glyph-name="Ydieresis.alt" horiz-adv-x="763" 
d="M162 412h-113q24 142 87 205t180 63h105l93 -289l190 289h131l-279 -406l-49 -274h-120l48 271l-103 304h-30q-62 0 -93.5 -36.5t-46.5 -126.5zM550 889l-19 -107h-109l19 107h109zM744 889l-19 -107h-109l19 107h109z" />
    <glyph glyph-name="Ycircumflex.alt" horiz-adv-x="763" 
d="M162 412h-113q24 142 87 205t180 63h105l93 -289l190 289h131l-279 -406l-49 -274h-120l48 271l-103 304h-30q-62 0 -93.5 -36.5t-46.5 -126.5zM719 752h-88l-47 80l-75 -80h-94l124 161h112z" />
    <glyph glyph-name="Ygrave.alt" horiz-adv-x="763" 
d="M162 412h-113q24 142 87 205t180 63h105l93 -289l190 289h131l-279 -406l-49 -274h-120l48 271l-103 304h-30q-62 0 -93.5 -36.5t-46.5 -126.5zM615 752h-96l-82 120l111 46z" />
    </font>
</defs>
</svg>
